{"glyphs":{"0":{"ha":875,"x_min":0,"x_max":0,"o":"m 450 -14 b 814 475 672 -14 814 196 b 432 986 814 763 665 986 b 61 501 211 986 61 781 b 450 -14 61 214 215 -14 z m 479 74 b 261 607 340 74 261 385 b 393 897 261 767 292 897 b 613 367 533 897 613 588 b 479 74 613 208 578 74 z "},"1":{"ha":503,"x_min":0,"x_max":0,"o":"m 375 944 b 343 986 375 974 365 986 b 129 911 321 986 204 946 b 68 865 78 890 68 883 b 110 825 68 847 78 836 b 179 721 172 804 179 782 l 179 167 b 85 32 179 78 85 85 b 151 1 85 10 106 1 l 379 1 b 443 32 422 1 443 8 b 375 167 443 76 375 78 z "},"2":{"ha":836,"x_min":0,"x_max":0,"o":"m 649 0 b 754 74 721 0 736 24 b 782 206 769 115 781 158 b 757 256 785 233 776 256 b 515 160 714 256 667 171 b 271 161 425 154 347 154 b 718 731 565 392 717 575 b 431 986 719 888 590 986 b 106 771 254 986 139 861 b 150 736 92 729 124 706 b 358 844 214 811 282 844 b 510 697 450 844 510 786 b 76 83 510 539 356 358 b 118 0 28 36 47 0 z "},"3":{"ha":821,"x_min":0,"x_max":0,"o":"m 399 -14 b 767 304 632 -14 767 133 b 443 592 767 490 597 575 b 725 913 542 685 643 797 b 694 972 749 944 735 972 l 247 972 b 126 907 156 972 140 953 b 103 769 114 864 104 814 b 131 719 101 743 107 719 b 189 772 151 719 161 742 b 294 818 217 806 244 815 b 539 817 369 824 463 824 b 282 563 467 722 383 647 b 297 492 258 542 254 497 b 554 292 467 469 554 407 b 360 122 554 179 465 122 b 110 232 258 122 175 165 b 58 196 82 258 44 236 b 399 -14 92 103 211 -14 z "},"4":{"ha":840,"x_min":0,"x_max":0,"o":"m 538 -40 b 658 -10 561 -40 621 -31 b 692 50 683 6 692 25 l 692 156 l 725 156 b 793 233 757 156 785 168 b 776 335 803 303 800 335 b 692 318 756 335 739 318 l 692 938 b 640 986 692 974 674 986 b 492 890 578 986 553 957 b 257 596 444 839 340 706 b 42 235 140 443 42 315 b 104 165 42 176 61 165 l 492 167 l 492 1 b 538 -40 492 -28 507 -40 z m 221 318 b 206 375 185 317 181 339 b 496 758 278 479 364 599 l 496 322 z "},"5":{"ha":819,"x_min":0,"x_max":0,"o":"m 410 -14 b 760 311 618 -14 760 139 b 258 672 761 513 600 629 l 303 817 b 600 815 403 810 507 810 b 706 878 674 818 690 835 b 726 967 718 915 724 940 b 701 1014 728 994 722 1014 b 536 972 661 1014 656 979 b 297 972 444 967 371 967 b 247 935 268 975 256 963 l 144 588 b 181 533 133 553 143 538 b 546 292 400 504 546 443 b 360 121 546 186 468 121 b 90 232 242 121 156 165 b 39 196 63 260 25 236 b 410 -14 72 103 192 -14 z "},"6":{"ha":824,"x_min":0,"x_max":0,"o":"m 419 -15 b 774 356 613 -15 774 146 b 489 682 774 536 656 682 b 279 586 399 682 318 639 b 494 881 282 794 392 881 b 651 843 554 881 592 872 b 686 896 679 829 708 858 b 472 986 657 940 578 988 b 63 439 231 986 58 732 b 419 -15 65 151 206 -15 z m 460 79 b 269 375 340 79 269 232 b 404 563 269 468 304 563 b 590 261 521 563 590 406 b 460 79 590 172 558 79 z "},"7":{"ha":738,"x_min":0,"x_max":0,"o":"m 332 -15 b 364 24 356 -15 364 -3 b 707 913 364 321 561 626 b 661 972 731 957 710 972 l 176 972 b 81 911 110 972 94 956 b 51 756 67 868 53 793 b 78 706 50 731 57 706 b 244 811 132 706 139 801 b 565 811 351 821 458 821 b 161 79 419 590 161 308 b 194 21 161 56 169 35 b 332 -15 235 -3 299 -14 z "},"8":{"ha":826,"x_min":0,"x_max":0,"o":"m 571 535 b 735 767 657 582 735 656 b 436 983 735 921 571 983 b 96 732 260 983 96 899 b 235 510 96 635 157 567 b 58 257 154 464 58 382 b 410 -15 58 63 244 -15 b 768 265 600 -15 768 76 b 571 535 768 390 686 464 z m 421 896 b 567 746 510 896 567 838 b 499 578 567 685 544 626 l 489 583 b 293 781 388 642 293 700 b 421 896 293 854 351 896 z m 431 72 b 233 282 313 72 233 160 b 301 465 233 367 267 424 l 364 428 b 575 214 494 353 575 293 b 431 72 575 149 531 72 z "},"9":{"ha":831,"x_min":0,"x_max":0,"o":"m 410 986 b 56 615 217 986 56 826 b 340 290 56 436 174 290 b 550 385 431 290 511 332 b 335 90 547 178 438 90 b 178 128 274 90 238 100 b 143 76 149 143 121 113 b 357 -15 171 32 250 -15 b 767 533 597 -15 771 240 b 410 986 764 821 622 986 z m 369 892 b 558 596 489 892 558 739 b 425 408 558 503 525 408 b 239 711 308 408 239 565 b 369 892 239 799 271 892 z "},"A":{"ha":994,"x_min":0,"x_max":0,"o":"m 251 238 b 447 276 267 276 267 276 b 642 233 625 276 625 276 l 663 183 b 613 39 704 74 613 93 b 679 0 613 10 635 0 l 903 0 b 976 40 957 0 976 10 b 874 183 976 92 919 68 l 575 938 b 524 972 565 961 549 972 l 367 972 b 322 935 338 972 322 960 b 369 800 322 882 404 888 l 119 178 b 3 36 78 74 3 88 b 75 1 3 8 31 1 l 199 1 b 263 38 235 1 263 7 b 226 178 263 88 183 69 z m 449 364 b 318 406 301 364 301 364 l 447 733 l 576 401 b 449 364 590 364 590 364 z "},"Á":{"ha":994,"x_min":0,"x_max":0,"o":"m 443 1051 b 664 1183 521 1044 658 1104 b 603 1261 668 1224 636 1257 b 485 1193 568 1265 532 1235 b 392 1079 449 1158 393 1103 b 443 1051 390 1061 418 1053 z m 251 238 b 447 276 267 276 267 276 b 642 233 625 276 625 276 l 663 183 b 613 39 704 74 613 93 b 679 0 613 10 635 0 l 903 0 b 976 40 957 0 976 10 b 874 183 976 92 919 68 l 575 938 b 524 972 565 961 549 972 l 367 972 b 322 935 338 972 322 960 b 369 800 322 882 404 888 l 119 178 b 3 36 78 74 3 88 b 75 1 3 8 31 1 l 199 1 b 263 38 235 1 263 7 b 226 178 263 88 183 69 z m 449 364 b 318 406 301 364 301 364 l 447 733 l 576 401 b 449 364 590 364 590 364 z "},"Ă":{"ha":994,"x_min":0,"x_max":0,"o":"m 463 1049 b 658 1228 578 1049 657 1125 b 636 1268 660 1253 651 1268 b 608 1249 626 1268 621 1263 b 464 1175 568 1197 529 1175 b 318 1249 397 1175 357 1197 b 289 1268 307 1263 299 1268 b 267 1228 275 1268 267 1253 b 463 1049 268 1129 342 1049 z m 251 238 b 447 276 267 276 267 276 b 642 233 625 276 625 276 l 663 183 b 613 39 704 74 613 93 b 679 0 613 10 635 0 l 903 0 b 976 40 957 0 976 10 b 874 183 976 92 919 68 l 575 938 b 524 972 565 961 549 972 l 367 972 b 322 935 338 972 322 960 b 369 800 322 882 404 888 l 119 178 b 3 36 78 74 3 88 b 75 1 3 8 31 1 l 199 1 b 263 38 235 1 263 7 b 226 178 263 88 183 69 z m 449 364 b 318 406 301 364 301 364 l 447 733 l 576 401 b 449 364 590 364 590 364 z "},"Â":{"ha":994,"x_min":0,"x_max":0,"o":"m 290 1042 b 468 1110 332 1040 421 1076 b 646 1042 517 1076 604 1040 b 669 1064 663 1043 669 1051 b 590 1154 669 1079 636 1108 b 468 1236 526 1217 522 1236 b 343 1151 415 1236 404 1211 b 267 1064 296 1104 268 1078 b 290 1042 268 1051 274 1043 z m 251 238 b 447 276 267 276 267 276 b 642 233 625 276 625 276 l 663 183 b 613 39 704 74 613 93 b 679 0 613 10 635 0 l 903 0 b 976 40 957 0 976 10 b 874 183 976 92 919 68 l 575 938 b 524 972 565 961 549 972 l 367 972 b 322 935 338 972 322 960 b 369 800 322 882 404 888 l 119 178 b 3 36 78 74 3 88 b 75 1 3 8 31 1 l 199 1 b 263 38 235 1 263 7 b 226 178 263 88 183 69 z m 449 364 b 318 406 301 364 301 364 l 447 733 l 576 401 b 449 364 590 364 590 364 z "},"Ä":{"ha":994,"x_min":0,"x_max":0,"o":"m 365 1064 b 471 1158 421 1064 471 1103 b 393 1235 471 1204 439 1235 b 294 1132 336 1235 294 1183 b 365 1064 294 1090 326 1064 z m 594 1064 b 699 1158 649 1064 699 1103 b 619 1235 699 1204 667 1235 b 521 1132 565 1235 521 1183 b 594 1064 521 1090 553 1064 z m 251 238 b 447 276 267 276 267 276 b 642 233 625 276 625 276 l 663 183 b 613 39 704 74 613 93 b 679 0 613 10 635 0 l 903 0 b 976 40 957 0 976 10 b 874 183 976 92 919 68 l 575 938 b 524 972 565 961 549 972 l 367 972 b 322 935 338 972 322 960 b 369 800 322 882 404 888 l 119 178 b 3 36 78 74 3 88 b 75 1 3 8 31 1 l 199 1 b 263 38 235 1 263 7 b 226 178 263 88 183 69 z m 449 364 b 318 406 301 364 301 364 l 447 733 l 576 401 b 449 364 590 364 590 364 z "},"À":{"ha":994,"x_min":0,"x_max":0,"o":"m 514 1051 b 567 1079 540 1053 567 1061 b 472 1193 565 1103 510 1158 b 354 1261 426 1235 390 1265 b 293 1183 321 1257 289 1224 b 514 1051 300 1104 438 1044 z m 251 238 b 447 276 267 276 267 276 b 642 233 625 276 625 276 l 663 183 b 613 39 704 74 613 93 b 679 0 613 10 635 0 l 903 0 b 976 40 957 0 976 10 b 874 183 976 92 919 68 l 575 938 b 524 972 565 961 549 972 l 367 972 b 322 935 338 972 322 960 b 369 800 322 882 404 888 l 119 178 b 3 36 78 74 3 88 b 75 1 3 8 31 1 l 199 1 b 263 38 235 1 263 7 b 226 178 263 88 183 69 z m 449 364 b 318 406 301 364 301 364 l 447 733 l 576 401 b 449 364 590 364 590 364 z "},"Ā":{"ha":994,"x_min":0,"x_max":0,"o":"m 610 1072 b 679 1121 669 1072 675 1079 b 624 1163 685 1154 678 1163 l 310 1163 b 244 1114 257 1163 251 1154 b 296 1072 240 1079 246 1072 z m 251 238 b 447 276 267 276 267 276 b 642 233 625 276 625 276 l 663 183 b 613 39 704 74 613 93 b 679 0 613 10 635 0 l 903 0 b 976 40 957 0 976 10 b 874 183 976 92 919 68 l 575 938 b 524 972 565 961 549 972 l 367 972 b 322 935 338 972 322 960 b 369 800 322 882 404 888 l 119 178 b 3 36 78 74 3 88 b 75 1 3 8 31 1 l 199 1 b 263 38 235 1 263 7 b 226 178 263 88 183 69 z m 449 364 b 318 406 301 364 301 364 l 447 733 l 576 401 b 449 364 590 364 590 364 z "},"Ą":{"ha":994,"x_min":0,"x_max":0,"o":"m 954 -176 b 903 -189 936 -185 918 -189 b 832 -119 856 -189 832 -158 b 888 0 832 -87 847 -49 l 903 0 b 976 40 957 0 976 10 b 874 183 976 92 919 68 l 575 938 b 524 972 565 961 549 972 l 367 972 b 322 935 338 972 322 960 b 369 800 322 882 404 888 l 119 178 b 3 36 78 74 3 88 b 75 1 3 8 31 1 l 199 1 b 263 38 235 1 263 7 b 226 178 263 88 183 69 l 251 238 b 447 276 267 276 267 276 b 642 233 625 276 625 276 l 663 183 b 613 39 704 74 613 93 b 679 0 613 10 635 0 l 817 0 b 718 -143 753 -40 718 -90 b 857 -261 718 -214 776 -261 b 978 -212 903 -261 950 -242 b 954 -176 999 -192 989 -160 z m 449 364 b 318 406 301 364 301 364 l 447 733 l 576 401 b 449 364 590 364 590 364 z "},"Å":{"ha":994,"x_min":0,"x_max":0,"o":"m 464 1031 b 615 1174 547 1031 615 1086 b 469 1313 615 1258 551 1313 b 318 1169 385 1313 318 1256 b 464 1031 318 1086 381 1031 z m 469 1106 b 403 1172 433 1106 407 1133 b 464 1240 400 1213 424 1240 b 529 1176 500 1240 525 1214 b 469 1106 532 1138 510 1106 z m 251 238 b 447 276 267 276 267 276 b 642 233 625 276 625 276 l 663 183 b 613 39 704 74 613 93 b 679 0 613 10 635 0 l 903 0 b 976 40 957 0 976 10 b 874 183 976 92 919 68 l 575 938 b 524 972 565 961 549 972 l 367 972 b 322 935 338 972 322 960 b 369 800 322 882 404 888 l 119 178 b 3 36 78 74 3 88 b 75 1 3 8 31 1 l 199 1 b 263 38 235 1 263 7 b 226 178 263 88 183 69 z m 449 364 b 318 406 301 364 301 364 l 447 733 l 576 401 b 449 364 590 364 590 364 z "},"Ã":{"ha":994,"x_min":0,"x_max":0,"o":"m 575 1047 b 683 1144 650 1047 683 1097 b 632 1192 683 1207 632 1226 b 583 1150 632 1160 613 1150 b 349 1208 538 1150 429 1208 b 240 1111 274 1208 240 1160 b 292 1065 240 1050 292 1029 b 340 1106 292 1096 313 1106 b 575 1047 419 1106 504 1047 z m 251 238 b 447 276 267 276 267 276 b 642 233 625 276 625 276 l 663 183 b 613 39 704 74 613 93 b 679 0 613 10 635 0 l 903 0 b 976 40 957 0 976 10 b 874 183 976 92 919 68 l 575 938 b 524 972 565 961 549 972 l 367 972 b 322 935 338 972 322 960 b 369 800 322 882 404 888 l 119 178 b 3 36 78 74 3 88 b 75 1 3 8 31 1 l 199 1 b 263 38 235 1 263 7 b 226 178 263 88 183 69 z m 449 364 b 318 406 301 364 301 364 l 447 733 l 576 401 b 449 364 590 364 590 364 z "},"Æ":{"ha":1357,"x_min":0,"x_max":0,"o":"m 1279 290 b 1215 238 1257 296 1239 285 b 1044 89 1171 140 1142 89 l 953 88 b 821 153 840 88 821 107 l 821 456 b 914 524 821 517 853 524 l 928 524 b 1135 390 1060 524 1068 375 b 1157 458 1161 396 1168 408 l 1124 617 b 1082 658 1118 642 1108 658 b 928 611 1035 658 1043 611 l 914 611 b 821 679 853 611 821 619 l 821 821 b 943 885 821 865 840 885 l 1010 885 b 1213 753 1100 885 1158 840 b 1279 713 1236 717 1253 704 b 1300 781 1304 719 1307 743 b 1264 924 1290 839 1276 886 b 1147 972 1249 965 1228 972 l 551 972 b 508 942 521 972 508 963 b 542 900 508 922 528 910 b 550 817 567 881 575 854 l 114 140 b 6 36 75 82 6 88 b 79 0 6 7 35 0 l 203 0 b 265 36 239 0 265 7 b 235 142 265 86 193 75 l 310 260 l 624 260 l 624 236 b 533 39 624 56 533 111 b 610 0 533 8 556 0 l 1171 0 b 1286 58 1256 0 1276 17 b 1308 226 1297 97 1306 150 b 1279 290 1310 264 1307 285 z m 624 758 l 624 349 l 365 349 z "},"B":{"ha":903,"x_min":0,"x_max":0,"o":"m 625 582 b 758 761 714 613 760 678 b 403 972 757 915 611 972 l 119 972 b 42 933 64 972 42 964 b 133 736 42 861 133 917 l 133 236 b 42 39 133 56 42 111 b 119 0 42 8 64 0 l 444 0 b 868 317 715 0 868 124 b 625 582 868 449 782 549 z m 329 840 b 388 885 329 876 353 885 b 565 735 496 885 565 818 b 401 617 565 656 513 617 b 329 647 369 617 329 614 z m 442 88 b 329 185 346 88 329 117 l 329 479 b 388 525 329 513 338 525 b 656 281 560 525 656 417 b 442 88 656 147 585 88 z "},"":{"ha":903,"x_min":0,"x_max":0,"o":"m 625 582 b 758 761 714 613 760 678 b 403 972 757 915 611 972 l 119 972 b 42 933 64 972 42 964 b 133 736 42 861 133 917 l 133 236 b 42 39 133 56 42 111 b 119 0 42 8 64 0 l 444 0 b 868 317 715 0 868 124 b 625 582 868 449 782 549 z m 329 840 b 388 885 329 876 353 885 b 565 735 496 885 565 818 b 401 617 565 656 513 617 b 329 647 369 617 329 614 z m 442 88 b 329 185 346 88 329 117 l 329 479 b 388 525 329 513 338 525 b 656 281 560 525 656 417 b 442 88 656 147 585 88 z "},"C":{"ha":971,"x_min":0,"x_max":0,"o":"m 536 -14 b 924 192 726 -14 872 86 b 875 239 947 236 908 275 b 603 110 801 160 718 110 b 256 554 385 110 256 314 b 540 893 256 744 363 893 b 807 719 663 893 743 813 b 876 658 835 678 847 656 b 908 721 907 661 914 683 b 865 911 896 804 881 863 b 808 985 849 971 833 985 b 732 963 776 985 767 963 b 563 986 699 963 649 986 b 56 467 275 986 56 754 b 536 -14 56 172 253 -14 z "},"Ć":{"ha":971,"x_min":0,"x_max":0,"o":"m 482 1051 b 703 1183 560 1044 697 1104 b 642 1261 707 1224 675 1257 b 524 1193 607 1265 571 1235 b 431 1079 488 1158 432 1103 b 482 1051 429 1061 457 1053 z m 536 -14 b 924 192 726 -14 872 86 b 875 239 947 236 908 275 b 603 110 801 160 718 110 b 256 554 385 110 256 314 b 540 893 256 744 363 893 b 807 719 663 893 743 813 b 876 658 835 678 847 656 b 908 721 907 661 914 683 b 865 911 896 804 881 863 b 808 985 849 971 833 985 b 732 963 776 985 767 963 b 563 986 699 963 649 986 b 56 467 275 986 56 754 b 536 -14 56 172 253 -14 z "},"Č":{"ha":971,"x_min":0,"x_max":0,"o":"m 331 1242 b 307 1221 314 1242 308 1233 b 383 1133 308 1206 336 1179 b 508 1049 444 1072 456 1049 b 631 1131 563 1049 567 1067 b 710 1221 676 1176 710 1206 b 686 1242 710 1233 703 1242 b 508 1175 644 1243 557 1208 b 331 1242 461 1208 372 1243 z m 536 -14 b 924 192 726 -14 872 86 b 875 239 947 236 908 275 b 603 110 801 160 718 110 b 256 554 385 110 256 314 b 540 893 256 744 363 893 b 807 719 663 893 743 813 b 876 658 835 678 847 656 b 908 721 907 661 914 683 b 865 911 896 804 881 863 b 808 985 849 971 833 985 b 732 963 776 985 767 963 b 563 986 699 963 649 986 b 56 467 275 986 56 754 b 536 -14 56 172 253 -14 z "},"Ç":{"ha":971,"x_min":0,"x_max":0,"o":"m 875 239 b 603 110 801 160 718 110 b 256 554 385 110 256 314 b 540 893 256 744 363 893 b 807 719 663 893 743 813 b 876 658 835 678 847 656 b 908 721 907 661 914 683 b 865 911 896 804 881 863 b 808 985 849 971 833 985 b 732 963 776 985 767 963 b 563 986 699 963 649 986 b 56 467 275 986 56 754 b 475 -11 56 194 225 14 l 431 -93 b 447 -119 424 -107 433 -117 b 539 -189 488 -129 539 -143 b 479 -242 539 -217 518 -242 b 418 -222 454 -242 435 -233 b 388 -250 390 -206 371 -231 b 506 -297 407 -275 446 -297 b 642 -182 582 -297 642 -250 b 513 -71 642 -114 582 -83 l 543 -14 b 924 192 729 -11 872 88 b 875 239 947 236 908 275 z "},"Ċ":{"ha":971,"x_min":0,"x_max":0,"o":"m 481 1063 b 631 1192 553 1061 628 1124 b 543 1279 631 1239 593 1278 b 397 1147 472 1282 399 1211 b 481 1063 396 1101 428 1064 z m 536 -14 b 924 192 726 -14 872 86 b 875 239 947 236 908 275 b 603 110 801 160 718 110 b 256 554 385 110 256 314 b 540 893 256 744 363 893 b 807 719 663 893 743 813 b 876 658 835 678 847 656 b 908 721 907 661 914 683 b 865 911 896 804 881 863 b 808 985 849 971 833 985 b 732 963 776 985 767 963 b 563 986 699 963 649 986 b 56 467 275 986 56 754 b 536 -14 56 172 253 -14 z "},"D":{"ha":1053,"x_min":0,"x_max":0,"o":"m 119 972 b 42 933 64 972 42 964 b 133 736 42 861 133 917 l 133 236 b 42 39 133 56 42 111 b 119 0 42 8 64 0 l 485 0 b 994 503 819 0 994 229 b 451 972 994 733 836 972 z m 469 82 b 329 167 347 82 329 114 l 329 831 b 410 892 329 882 349 892 b 789 424 638 892 789 689 b 469 82 789 228 701 82 z "},"Ď":{"ha":1053,"x_min":0,"x_max":0,"o":"m 278 1133 b 403 1049 339 1072 350 1049 b 525 1131 457 1049 461 1067 b 604 1221 571 1176 604 1206 b 581 1242 604 1233 597 1242 b 403 1175 539 1243 451 1208 b 225 1242 356 1208 267 1243 b 201 1221 208 1242 203 1233 b 278 1133 203 1206 231 1179 z m 119 972 b 42 933 64 972 42 964 b 133 736 42 861 133 917 l 133 236 b 42 39 133 56 42 111 b 119 0 42 8 64 0 l 485 0 b 994 503 819 0 994 229 b 451 972 994 733 836 972 z m 469 82 b 329 167 347 82 329 114 l 329 831 b 410 892 329 882 349 892 b 789 424 638 892 789 689 b 469 82 789 228 701 82 z "},"Đ":{"ha":1053,"x_min":0,"x_max":0,"o":"m 119 972 b 42 933 64 972 42 964 b 133 736 42 861 133 917 l 133 529 l 69 529 b 31 492 43 529 31 515 b 69 440 31 458 35 440 l 133 440 l 133 236 b 42 39 133 56 42 111 b 119 0 42 8 64 0 l 485 0 b 994 503 819 0 994 229 b 451 972 994 733 836 972 z m 469 82 b 329 167 347 82 329 114 l 329 440 l 406 440 b 444 492 439 440 444 456 b 406 529 444 515 432 529 l 329 529 l 329 831 b 410 892 329 882 349 892 b 789 424 638 892 789 689 b 469 82 789 228 701 82 z "},"Ð":{"ha":1053,"x_min":0,"x_max":0,"o":"m 119 972 b 42 933 64 972 42 964 b 133 736 42 861 133 917 l 133 529 l 69 529 b 31 492 43 529 31 515 b 69 440 31 458 35 440 l 133 440 l 133 236 b 42 39 133 56 42 111 b 119 0 42 8 64 0 l 485 0 b 994 503 819 0 994 229 b 451 972 994 733 836 972 z m 469 82 b 329 167 347 82 329 114 l 329 440 l 406 440 b 444 492 439 440 444 456 b 406 529 444 515 432 529 l 329 529 l 329 831 b 410 892 329 882 349 892 b 789 424 638 892 789 689 b 469 82 789 228 701 82 z "},"E":{"ha":865,"x_min":0,"x_max":0,"o":"m 788 290 b 725 238 765 296 747 285 b 553 89 679 140 650 89 l 461 88 b 329 153 349 88 329 107 l 329 456 b 422 524 329 517 363 524 l 436 524 b 643 390 568 524 576 375 b 665 458 669 396 676 408 l 632 617 b 590 658 626 642 617 658 b 436 611 543 658 551 611 l 422 611 b 329 679 363 611 329 619 l 329 821 b 453 885 329 865 349 885 l 518 885 b 722 753 610 885 668 840 b 788 713 744 717 761 704 b 808 781 813 719 815 743 b 772 924 799 839 785 886 b 657 972 757 965 738 972 l 119 972 b 42 933 64 972 42 964 b 133 736 42 861 133 917 l 133 236 b 42 39 133 56 42 111 b 119 0 42 8 64 0 l 679 0 b 796 58 764 0 785 17 b 817 226 807 97 814 150 b 788 290 818 264 817 285 z "},"":{"ha":865,"x_min":0,"x_max":0,"o":"m 788 290 b 725 238 765 296 747 285 b 553 89 679 140 650 89 l 461 88 b 329 153 349 88 329 107 l 329 456 b 422 524 329 517 363 524 l 436 524 b 643 390 568 524 576 375 b 665 458 669 396 676 408 l 632 617 b 590 658 626 642 617 658 b 436 611 543 658 551 611 l 422 611 b 329 679 363 611 329 619 l 329 821 b 453 885 329 865 349 885 l 518 885 b 722 753 610 885 668 840 b 788 713 744 717 761 704 b 808 781 813 719 815 743 b 772 924 799 839 785 886 b 657 972 757 965 738 972 l 119 972 b 42 933 64 972 42 964 b 133 736 42 861 133 917 l 133 236 b 42 39 133 56 42 111 b 119 0 42 8 64 0 l 679 0 b 796 58 764 0 785 17 b 817 226 807 97 814 150 b 788 290 818 264 817 285 z "},"É":{"ha":865,"x_min":0,"x_max":0,"o":"m 363 1051 b 583 1183 440 1044 578 1104 b 522 1261 588 1224 556 1257 b 404 1193 488 1265 451 1235 b 311 1079 368 1158 313 1103 b 363 1051 310 1061 338 1053 z m 788 290 b 725 238 765 296 747 285 b 553 89 679 140 650 89 l 461 88 b 329 153 349 88 329 107 l 329 456 b 422 524 329 517 363 524 l 436 524 b 643 390 568 524 576 375 b 665 458 669 396 676 408 l 632 617 b 590 658 626 642 617 658 b 436 611 543 658 551 611 l 422 611 b 329 679 363 611 329 619 l 329 821 b 453 885 329 865 349 885 l 518 885 b 722 753 610 885 668 840 b 788 713 744 717 761 704 b 808 781 813 719 815 743 b 772 924 799 839 785 886 b 657 972 757 965 738 972 l 119 972 b 42 933 64 972 42 964 b 133 736 42 861 133 917 l 133 236 b 42 39 133 56 42 111 b 119 0 42 8 64 0 l 679 0 b 796 58 764 0 785 17 b 817 226 807 97 814 150 b 788 290 818 264 817 285 z "},"Ě":{"ha":865,"x_min":0,"x_max":0,"o":"m 250 1133 b 375 1049 311 1072 322 1049 b 497 1131 429 1049 433 1067 b 576 1221 543 1176 576 1206 b 553 1242 576 1233 569 1242 b 375 1175 511 1243 424 1208 b 197 1242 328 1208 239 1243 b 174 1221 181 1242 175 1233 b 250 1133 175 1206 203 1179 z m 788 290 b 725 238 765 296 747 285 b 553 89 679 140 650 89 l 461 88 b 329 153 349 88 329 107 l 329 456 b 422 524 329 517 363 524 l 436 524 b 643 390 568 524 576 375 b 665 458 669 396 676 408 l 632 617 b 590 658 626 642 617 658 b 436 611 543 658 551 611 l 422 611 b 329 679 363 611 329 619 l 329 821 b 453 885 329 865 349 885 l 518 885 b 722 753 610 885 668 840 b 788 713 744 717 761 704 b 808 781 813 719 815 743 b 772 924 799 839 785 886 b 657 972 757 965 738 972 l 119 972 b 42 933 64 972 42 964 b 133 736 42 861 133 917 l 133 236 b 42 39 133 56 42 111 b 119 0 42 8 64 0 l 679 0 b 796 58 764 0 785 17 b 817 226 807 97 814 150 b 788 290 818 264 817 285 z "},"Ê":{"ha":865,"x_min":0,"x_max":0,"o":"m 246 1042 b 424 1110 288 1040 376 1076 b 601 1042 472 1076 560 1040 b 625 1064 618 1043 625 1051 b 546 1154 625 1079 592 1108 b 424 1236 482 1217 478 1236 b 299 1151 371 1236 360 1211 b 222 1064 251 1104 224 1078 b 246 1042 224 1051 229 1043 z m 788 290 b 725 238 765 296 747 285 b 553 89 679 140 650 89 l 461 88 b 329 153 349 88 329 107 l 329 456 b 422 524 329 517 363 524 l 436 524 b 643 390 568 524 576 375 b 665 458 669 396 676 408 l 632 617 b 590 658 626 642 617 658 b 436 611 543 658 551 611 l 422 611 b 329 679 363 611 329 619 l 329 821 b 453 885 329 865 349 885 l 518 885 b 722 753 610 885 668 840 b 788 713 744 717 761 704 b 808 781 813 719 815 743 b 772 924 799 839 785 886 b 657 972 757 965 738 972 l 119 972 b 42 933 64 972 42 964 b 133 736 42 861 133 917 l 133 236 b 42 39 133 56 42 111 b 119 0 42 8 64 0 l 679 0 b 796 58 764 0 785 17 b 817 226 807 97 814 150 b 788 290 818 264 817 285 z "},"Ë":{"ha":865,"x_min":0,"x_max":0,"o":"m 299 1064 b 404 1158 354 1064 404 1103 b 326 1235 404 1204 372 1235 b 228 1132 269 1235 228 1183 b 299 1064 228 1090 260 1064 z m 528 1064 b 632 1158 582 1064 632 1103 b 553 1235 632 1204 600 1235 b 454 1132 499 1235 454 1183 b 528 1064 454 1090 486 1064 z m 788 290 b 725 238 765 296 747 285 b 553 89 679 140 650 89 l 461 88 b 329 153 349 88 329 107 l 329 456 b 422 524 329 517 363 524 l 436 524 b 643 390 568 524 576 375 b 665 458 669 396 676 408 l 632 617 b 590 658 626 642 617 658 b 436 611 543 658 551 611 l 422 611 b 329 679 363 611 329 619 l 329 821 b 453 885 329 865 349 885 l 518 885 b 722 753 610 885 668 840 b 788 713 744 717 761 704 b 808 781 813 719 815 743 b 772 924 799 839 785 886 b 657 972 757 965 738 972 l 119 972 b 42 933 64 972 42 964 b 133 736 42 861 133 917 l 133 236 b 42 39 133 56 42 111 b 119 0 42 8 64 0 l 679 0 b 796 58 764 0 785 17 b 817 226 807 97 814 150 b 788 290 818 264 817 285 z "},"Ė":{"ha":865,"x_min":0,"x_max":0,"o":"m 417 1063 b 567 1192 489 1061 564 1124 b 479 1279 567 1239 529 1278 b 333 1147 408 1282 335 1211 b 417 1063 332 1101 364 1064 z m 788 290 b 725 238 765 296 747 285 b 553 89 679 140 650 89 l 461 88 b 329 153 349 88 329 107 l 329 456 b 422 524 329 517 363 524 l 436 524 b 643 390 568 524 576 375 b 665 458 669 396 676 408 l 632 617 b 590 658 626 642 617 658 b 436 611 543 658 551 611 l 422 611 b 329 679 363 611 329 619 l 329 821 b 453 885 329 865 349 885 l 518 885 b 722 753 610 885 668 840 b 788 713 744 717 761 704 b 808 781 813 719 815 743 b 772 924 799 839 785 886 b 657 972 757 965 738 972 l 119 972 b 42 933 64 972 42 964 b 133 736 42 861 133 917 l 133 236 b 42 39 133 56 42 111 b 119 0 42 8 64 0 l 679 0 b 796 58 764 0 785 17 b 817 226 807 97 814 150 b 788 290 818 264 817 285 z "},"È":{"ha":865,"x_min":0,"x_max":0,"o":"m 485 1051 b 538 1079 511 1053 538 1061 b 443 1193 536 1103 481 1158 b 325 1261 397 1235 361 1265 b 264 1183 292 1257 260 1224 b 485 1051 271 1104 408 1044 z m 788 290 b 725 238 765 296 747 285 b 553 89 679 140 650 89 l 461 88 b 329 153 349 88 329 107 l 329 456 b 422 524 329 517 363 524 l 436 524 b 643 390 568 524 576 375 b 665 458 669 396 676 408 l 632 617 b 590 658 626 642 617 658 b 436 611 543 658 551 611 l 422 611 b 329 679 363 611 329 619 l 329 821 b 453 885 329 865 349 885 l 518 885 b 722 753 610 885 668 840 b 788 713 744 717 761 704 b 808 781 813 719 815 743 b 772 924 799 839 785 886 b 657 972 757 965 738 972 l 119 972 b 42 933 64 972 42 964 b 133 736 42 861 133 917 l 133 236 b 42 39 133 56 42 111 b 119 0 42 8 64 0 l 679 0 b 796 58 764 0 785 17 b 817 226 807 97 814 150 b 788 290 818 264 817 285 z "},"Ē":{"ha":865,"x_min":0,"x_max":0,"o":"m 557 1072 b 626 1121 617 1072 622 1079 b 571 1163 632 1154 625 1163 l 257 1163 b 192 1114 204 1163 199 1154 b 243 1072 188 1079 193 1072 z m 788 290 b 725 238 765 296 747 285 b 553 89 679 140 650 89 l 461 88 b 329 153 349 88 329 107 l 329 456 b 422 524 329 517 363 524 l 436 524 b 643 390 568 524 576 375 b 665 458 669 396 676 408 l 632 617 b 590 658 626 642 617 658 b 436 611 543 658 551 611 l 422 611 b 329 679 363 611 329 619 l 329 821 b 453 885 329 865 349 885 l 518 885 b 722 753 610 885 668 840 b 788 713 744 717 761 704 b 808 781 813 719 815 743 b 772 924 799 839 785 886 b 657 972 757 965 738 972 l 119 972 b 42 933 64 972 42 964 b 133 736 42 861 133 917 l 133 236 b 42 39 133 56 42 111 b 119 0 42 8 64 0 l 679 0 b 796 58 764 0 785 17 b 817 226 807 97 814 150 b 788 290 818 264 817 285 z "},"Ę":{"ha":865,"x_min":0,"x_max":0,"o":"m 788 290 b 725 238 765 296 747 285 b 553 89 679 140 650 89 l 461 88 b 329 153 349 88 329 107 l 329 456 b 422 524 329 517 363 524 l 436 524 b 643 390 568 524 576 375 b 665 458 669 396 676 408 l 632 617 b 590 658 626 642 617 658 b 436 611 543 658 551 611 l 422 611 b 329 679 363 611 329 619 l 329 821 b 453 885 329 865 349 885 l 518 885 b 722 753 610 885 668 840 b 788 713 744 717 761 704 b 808 781 813 719 815 743 b 772 924 799 839 785 886 b 657 972 757 965 738 972 l 119 972 b 42 933 64 972 42 964 b 133 736 42 861 133 917 l 133 236 b 42 39 133 56 42 111 b 119 0 42 8 64 0 l 608 0 b 510 -143 544 -40 510 -90 b 649 -261 510 -214 568 -261 b 769 -212 694 -261 742 -242 b 746 -176 790 -192 781 -160 b 694 -189 728 -185 710 -189 b 624 -119 647 -189 624 -158 b 679 0 624 -87 639 -49 b 796 58 764 0 785 17 b 817 226 807 97 814 150 b 788 290 818 264 817 285 z "},"F":{"ha":822,"x_min":0,"x_max":0,"o":"m 807 781 b 771 924 797 839 783 886 b 654 972 756 965 735 972 l 119 972 b 42 933 64 972 42 964 b 133 736 42 861 133 917 l 133 232 b 42 39 133 67 42 106 b 119 0 42 10 64 0 l 340 0 b 417 39 397 0 417 10 b 329 232 417 106 329 67 l 329 443 b 422 511 329 503 363 511 l 449 511 b 656 376 582 511 590 361 b 679 446 682 383 689 396 l 644 603 b 603 644 639 628 629 644 b 449 597 556 644 565 597 l 422 597 b 329 665 363 597 329 607 l 329 822 b 453 885 329 865 349 885 l 517 885 b 719 753 607 885 665 840 b 786 713 743 717 760 704 b 807 781 811 719 814 743 z "},"G":{"ha":1075,"x_min":0,"x_max":0,"o":"m 544 -14 b 953 194 774 -12 953 96 l 953 290 b 1006 453 953 422 1006 399 b 942 492 1004 482 983 492 l 692 489 b 615 450 633 489 614 479 b 756 289 615 385 756 424 l 756 185 b 590 89 756 119 661 89 b 256 557 381 89 256 288 b 531 894 256 740 353 894 b 806 717 679 893 742 806 b 879 656 835 675 850 653 b 914 718 911 658 919 681 b 879 911 901 803 890 863 b 822 985 867 971 847 985 b 747 963 789 985 782 963 b 554 986 714 963 661 986 b 56 467 268 986 56 754 b 544 -14 56 183 251 -15 z "},"Ğ":{"ha":1075,"x_min":0,"x_max":0,"o":"m 547 1049 b 743 1228 663 1049 742 1125 b 721 1268 744 1253 736 1268 b 693 1249 711 1268 706 1263 b 549 1175 653 1197 614 1175 b 403 1249 482 1175 442 1197 b 374 1268 392 1263 383 1268 b 351 1228 360 1268 351 1253 b 547 1049 353 1129 426 1049 z m 544 -14 b 953 194 774 -12 953 96 l 953 290 b 1006 453 953 422 1006 399 b 942 492 1004 482 983 492 l 692 489 b 615 450 633 489 614 479 b 756 289 615 385 756 424 l 756 185 b 590 89 756 119 661 89 b 256 557 381 89 256 288 b 531 894 256 740 353 894 b 806 717 679 893 742 806 b 879 656 835 675 850 653 b 914 718 911 658 919 681 b 879 911 901 803 890 863 b 822 985 867 971 847 985 b 747 963 789 985 782 963 b 554 986 714 963 661 986 b 56 467 268 986 56 754 b 544 -14 56 183 251 -15 z "},"Ġ":{"ha":1075,"x_min":0,"x_max":0,"o":"m 526 1063 b 676 1192 599 1061 674 1124 b 589 1279 676 1239 639 1278 b 443 1147 518 1282 444 1211 b 526 1063 442 1101 474 1064 z m 544 -14 b 953 194 774 -12 953 96 l 953 290 b 1006 453 953 422 1006 399 b 942 492 1004 482 983 492 l 692 489 b 615 450 633 489 614 479 b 756 289 615 385 756 424 l 756 185 b 590 89 756 119 661 89 b 256 557 381 89 256 288 b 531 894 256 740 353 894 b 806 717 679 893 742 806 b 879 656 835 675 850 653 b 914 718 911 658 919 681 b 879 911 901 803 890 863 b 822 985 867 971 847 985 b 747 963 789 985 782 963 b 554 986 714 963 661 986 b 56 467 268 986 56 754 b 544 -14 56 183 251 -15 z "},"H":{"ha":1111,"x_min":0,"x_max":0,"o":"m 978 740 b 1069 933 978 906 1069 867 b 992 972 1069 963 1047 972 l 771 972 b 694 933 714 972 694 963 b 782 740 694 867 782 906 l 782 619 b 560 560 782 560 782 560 b 329 619 329 560 329 560 l 329 740 b 419 933 329 906 419 867 b 343 972 419 963 397 972 l 122 972 b 44 933 64 972 44 963 b 133 740 44 867 133 906 l 133 232 b 42 39 133 67 42 106 b 119 0 42 10 64 0 l 340 0 b 417 39 397 0 417 10 b 329 232 417 106 329 67 l 329 411 b 558 471 329 471 329 471 b 782 411 782 471 782 471 l 782 232 b 692 39 782 67 692 106 b 768 0 692 10 714 0 l 989 0 b 1067 39 1047 0 1067 10 b 978 232 1067 106 978 67 z "},"Ħ":{"ha":1111,"x_min":0,"x_max":0,"o":"m 979 765 b 1069 933 988 901 1069 871 b 992 972 1069 963 1047 972 l 771 972 b 694 933 714 972 694 963 b 781 765 694 871 772 901 l 331 765 b 419 933 339 901 419 871 b 343 972 419 963 397 972 l 122 972 b 44 933 64 972 44 963 b 132 765 44 871 124 901 l 90 765 b 56 729 67 765 56 753 l 56 714 b 90 678 56 690 67 678 l 133 678 l 133 232 b 42 39 133 67 42 106 b 119 0 42 10 64 0 l 340 0 b 417 39 397 0 417 10 b 329 232 417 106 329 67 l 329 411 b 558 471 329 471 329 471 b 782 411 782 471 782 471 l 782 232 b 692 39 782 67 692 106 b 768 0 692 10 714 0 l 989 0 b 1067 39 1047 0 1067 10 b 978 232 1067 106 978 67 l 978 678 l 1042 678 b 1076 714 1065 678 1076 690 l 1076 729 b 1042 765 1076 753 1065 765 z m 782 619 b 560 560 782 560 782 560 b 329 619 329 560 329 560 l 329 678 l 782 678 z "},"I":{"ha":461,"x_min":0,"x_max":0,"o":"m 133 232 b 42 39 133 67 42 106 b 119 0 42 10 64 0 l 340 0 b 417 39 397 0 417 10 b 329 232 417 106 329 67 l 329 740 b 419 933 329 906 419 867 b 343 972 419 963 397 972 l 122 972 b 44 933 64 972 44 963 b 133 740 44 867 133 906 z "},"Í":{"ha":461,"x_min":0,"x_max":0,"o":"m 213 1051 b 433 1183 290 1044 428 1104 b 372 1261 438 1224 406 1257 b 254 1193 338 1265 301 1235 b 161 1079 218 1158 163 1103 b 213 1051 160 1061 188 1053 z m 133 232 b 42 39 133 67 42 106 b 119 0 42 10 64 0 l 340 0 b 417 39 397 0 417 10 b 329 232 417 106 329 67 l 329 740 b 419 933 329 906 419 867 b 343 972 419 963 397 972 l 122 972 b 44 933 64 972 44 963 b 133 740 44 867 133 906 z "},"Î":{"ha":461,"x_min":0,"x_max":0,"o":"m 60 1042 b 238 1110 101 1040 190 1076 b 415 1042 286 1076 374 1040 b 439 1064 432 1043 439 1051 b 360 1154 439 1079 406 1108 b 238 1236 296 1217 292 1236 b 113 1151 185 1236 174 1211 b 36 1064 65 1104 38 1078 b 60 1042 38 1051 43 1043 z m 133 232 b 42 39 133 67 42 106 b 119 0 42 10 64 0 l 340 0 b 417 39 397 0 417 10 b 329 232 417 106 329 67 l 329 740 b 419 933 329 906 419 867 b 343 972 419 963 397 972 l 122 972 b 44 933 64 972 44 963 b 133 740 44 867 133 906 z "},"Ï":{"ha":461,"x_min":0,"x_max":0,"o":"m 135 1064 b 240 1158 190 1064 240 1103 b 163 1235 240 1204 208 1235 b 64 1132 106 1235 64 1183 b 135 1064 64 1090 96 1064 z m 364 1064 b 468 1158 418 1064 468 1103 b 389 1235 468 1204 436 1235 b 290 1132 335 1235 290 1183 b 364 1064 290 1090 322 1064 z m 133 232 b 42 39 133 67 42 106 b 119 0 42 10 64 0 l 340 0 b 417 39 397 0 417 10 b 329 232 417 106 329 67 l 329 740 b 419 933 329 906 419 867 b 343 972 419 963 397 972 l 122 972 b 44 933 64 972 44 963 b 133 740 44 867 133 906 z "},"İ":{"ha":461,"x_min":0,"x_max":0,"o":"m 211 1063 b 361 1192 283 1061 358 1124 b 274 1279 361 1239 324 1278 b 128 1147 203 1282 129 1211 b 211 1063 126 1101 158 1064 z m 133 232 b 42 39 133 67 42 106 b 119 0 42 10 64 0 l 340 0 b 417 39 397 0 417 10 b 329 232 417 106 329 67 l 329 740 b 419 933 329 906 419 867 b 343 972 419 963 397 972 l 122 972 b 44 933 64 972 44 963 b 133 740 44 867 133 906 z "},"Ì":{"ha":461,"x_min":0,"x_max":0,"o":"m 283 1051 b 336 1079 310 1053 336 1061 b 242 1193 335 1103 279 1158 b 124 1261 196 1235 160 1265 b 63 1183 90 1257 58 1224 b 283 1051 69 1104 207 1044 z m 133 232 b 42 39 133 67 42 106 b 119 0 42 10 64 0 l 340 0 b 417 39 397 0 417 10 b 329 232 417 106 329 67 l 329 740 b 419 933 329 906 419 867 b 343 972 419 963 397 972 l 122 972 b 44 933 64 972 44 963 b 133 740 44 867 133 906 z "},"Ī":{"ha":461,"x_min":0,"x_max":0,"o":"m 379 1072 b 449 1121 439 1072 444 1079 b 393 1163 454 1154 447 1163 l 79 1163 b 14 1114 26 1163 21 1154 b 65 1072 10 1079 15 1072 z m 133 232 b 42 39 133 67 42 106 b 119 0 42 10 64 0 l 340 0 b 417 39 397 0 417 10 b 329 232 417 106 329 67 l 329 740 b 419 933 329 906 419 867 b 343 972 419 963 397 972 l 122 972 b 44 933 64 972 44 963 b 133 740 44 867 133 906 z "},"Į":{"ha":461,"x_min":0,"x_max":0,"o":"m 429 -176 b 378 -189 411 -185 393 -189 b 307 -119 331 -189 307 -158 b 364 0 307 -87 322 -47 b 417 39 403 3 417 14 b 329 232 417 106 329 67 l 329 740 b 419 933 329 906 419 867 b 343 972 419 963 397 972 l 122 972 b 44 933 64 972 44 963 b 133 740 44 867 133 906 l 133 232 b 42 39 133 67 42 106 b 119 0 42 10 64 0 l 292 0 b 193 -143 228 -40 193 -90 b 332 -261 193 -214 251 -261 b 453 -212 378 -261 425 -242 b 429 -176 474 -192 464 -160 z "},"J":{"ha":731,"x_min":0,"x_max":0,"o":"m 415 328 b 303 85 415 174 381 85 b 196 229 236 85 210 142 b 103 318 189 278 160 318 b 14 221 56 318 14 286 b 288 -12 14 103 106 -12 b 614 410 560 -12 614 161 l 613 740 b 703 933 613 906 703 867 b 626 972 703 963 681 972 l 404 972 b 328 933 347 972 328 963 b 415 740 328 867 415 906 z "},"K":{"ha":1029,"x_min":0,"x_max":0,"o":"m 779 808 b 938 933 879 901 938 874 b 860 972 938 963 911 972 l 682 972 b 625 933 644 972 625 963 b 646 808 625 882 726 883 l 329 514 l 329 740 b 419 933 329 906 419 867 b 343 972 419 963 397 972 l 122 972 b 44 933 64 972 44 963 b 133 740 44 867 133 906 l 133 232 b 42 39 133 67 42 106 b 119 0 42 10 64 0 l 340 0 b 417 39 397 0 417 10 b 329 232 417 106 329 67 l 329 390 l 532 579 l 708 182 b 671 40 747 94 671 89 b 749 0 671 10 694 0 l 961 0 b 1032 39 1013 0 1032 10 b 914 192 1032 100 967 75 l 675 713 z "},"L":{"ha":797,"x_min":0,"x_max":0,"o":"m 733 290 b 671 238 711 296 693 285 b 499 89 625 140 596 89 l 436 88 b 329 151 349 88 329 107 l 329 740 b 419 933 329 906 419 867 b 343 972 419 963 397 972 l 122 972 b 44 933 64 972 44 963 b 133 740 44 867 133 906 l 133 236 b 42 39 133 56 42 111 b 119 0 42 8 64 0 l 625 0 b 742 58 710 0 731 17 b 763 226 753 97 760 150 b 733 290 764 264 763 285 z "},"Ĺ":{"ha":797,"x_min":0,"x_max":0,"o":"m 213 1051 b 433 1183 290 1044 428 1104 b 372 1261 438 1224 406 1257 b 254 1193 338 1265 301 1235 b 161 1079 218 1158 163 1103 b 213 1051 160 1061 188 1053 z m 733 290 b 671 238 711 296 693 285 b 499 89 625 140 596 89 l 436 88 b 329 151 349 88 329 107 l 329 740 b 419 933 329 906 419 867 b 343 972 419 963 397 972 l 122 972 b 44 933 64 972 44 963 b 133 740 44 867 133 906 l 133 236 b 42 39 133 56 42 111 b 119 0 42 8 64 0 l 625 0 b 742 58 710 0 731 17 b 763 226 753 97 760 150 b 733 290 764 264 763 285 z "},"Ľ":{"ha":797,"x_min":0,"x_max":0,"o":"m 556 654 b 689 906 603 654 689 836 b 621 981 689 951 663 981 b 551 904 585 981 558 957 b 532 685 549 883 538 744 b 556 654 529 665 539 654 z m 733 290 b 671 238 711 296 693 285 b 499 89 625 140 596 89 l 436 88 b 329 151 349 88 329 107 l 329 740 b 419 933 329 906 419 867 b 343 972 419 963 397 972 l 122 972 b 44 933 64 972 44 963 b 133 740 44 867 133 906 l 133 236 b 42 39 133 56 42 111 b 119 0 42 8 64 0 l 625 0 b 742 58 710 0 731 17 b 763 226 753 97 760 150 b 733 290 764 264 763 285 z "},"Ł":{"ha":797,"x_min":0,"x_max":0,"o":"m 733 290 b 671 238 711 296 693 285 b 499 89 625 140 596 89 l 436 88 b 329 151 349 88 329 107 l 329 492 l 435 553 b 444 606 460 567 458 583 b 392 626 429 633 413 638 l 329 590 l 329 740 b 419 933 329 906 419 867 b 343 972 419 963 397 972 l 122 972 b 44 933 64 972 44 963 b 133 740 44 867 133 906 l 133 476 l 47 426 b 39 372 25 414 22 399 b 89 353 53 346 69 342 l 133 379 l 133 236 b 42 39 133 56 42 111 b 119 0 42 8 64 0 l 625 0 b 742 58 710 0 731 17 b 763 226 753 97 760 150 b 733 290 764 264 763 285 z "},"M":{"ha":1253,"x_min":0,"x_max":0,"o":"m 1097 790 b 1175 933 1093 893 1175 876 b 1108 972 1175 963 1156 972 l 956 972 b 903 936 931 972 914 961 l 619 325 l 358 938 b 306 972 349 961 331 972 l 144 972 b 78 933 97 972 78 963 b 156 790 78 878 160 889 l 129 174 b 46 38 125 79 46 83 b 111 1 46 10 64 1 l 235 1 b 299 36 278 1 299 7 b 229 174 299 85 225 79 l 247 721 l 517 81 b 571 57 524 61 540 51 b 621 97 599 64 610 74 l 914 729 l 925 204 b 846 40 926 83 846 108 b 922 0 846 10 868 0 l 1136 0 b 1210 40 1190 0 1210 10 b 1117 204 1210 113 1122 79 z "},"N":{"ha":1061,"x_min":0,"x_max":0,"o":"m 836 971 b 771 936 792 971 771 965 b 847 799 771 888 847 893 l 847 365 l 293 939 b 226 972 272 960 256 972 l 115 972 b 38 933 60 972 38 964 b 129 736 38 861 129 917 l 129 174 b 54 38 129 79 54 83 b 119 1 54 10 72 1 l 242 1 b 306 36 286 1 306 7 b 231 174 306 85 231 79 l 228 725 l 806 133 b 849 43 835 101 849 76 b 899 0 849 19 864 0 b 949 58 933 0 949 15 l 949 799 b 1024 935 949 893 1024 889 b 958 971 1024 964 1006 971 z "},"Ń":{"ha":1061,"x_min":0,"x_max":0,"o":"m 508 1051 b 729 1183 586 1044 724 1104 b 668 1261 733 1224 701 1257 b 550 1193 633 1265 597 1235 b 457 1079 514 1158 458 1103 b 508 1051 456 1061 483 1053 z m 836 971 b 771 936 792 971 771 965 b 847 799 771 888 847 893 l 847 365 l 293 939 b 226 972 272 960 256 972 l 115 972 b 38 933 60 972 38 964 b 129 736 38 861 129 917 l 129 174 b 54 38 129 79 54 83 b 119 1 54 10 72 1 l 242 1 b 306 36 286 1 306 7 b 231 174 306 85 231 79 l 228 725 l 806 133 b 849 43 835 101 849 76 b 899 0 849 19 864 0 b 949 58 933 0 949 15 l 949 799 b 1024 935 949 893 1024 889 b 958 971 1024 964 1006 971 z "},"Ň":{"ha":1061,"x_min":0,"x_max":0,"o":"m 408 1133 b 533 1049 469 1072 481 1049 b 656 1131 588 1049 592 1067 b 735 1221 701 1176 735 1206 b 711 1242 735 1233 728 1242 b 533 1175 669 1243 582 1208 b 356 1242 486 1208 397 1243 b 332 1221 339 1242 333 1233 b 408 1133 333 1206 361 1179 z m 836 971 b 771 936 792 971 771 965 b 847 799 771 888 847 893 l 847 365 l 293 939 b 226 972 272 960 256 972 l 115 972 b 38 933 60 972 38 964 b 129 736 38 861 129 917 l 129 174 b 54 38 129 79 54 83 b 119 1 54 10 72 1 l 242 1 b 306 36 286 1 306 7 b 231 174 306 85 231 79 l 228 725 l 806 133 b 849 43 835 101 849 76 b 899 0 849 19 864 0 b 949 58 933 0 949 15 l 949 799 b 1024 935 949 893 1024 889 b 958 971 1024 964 1006 971 z "},"Ñ":{"ha":1061,"x_min":0,"x_max":0,"o":"m 357 1065 b 406 1106 357 1096 378 1106 b 640 1047 485 1106 569 1047 b 749 1144 715 1047 749 1097 b 697 1192 749 1207 697 1226 b 649 1150 697 1160 678 1150 b 414 1208 603 1150 494 1208 b 306 1111 339 1208 306 1160 b 357 1065 306 1050 357 1029 z m 836 971 b 771 936 792 971 771 965 b 847 799 771 888 847 893 l 847 365 l 293 939 b 226 972 272 960 256 972 l 115 972 b 38 933 60 972 38 964 b 129 736 38 861 129 917 l 129 174 b 54 38 129 79 54 83 b 119 1 54 10 72 1 l 242 1 b 306 36 286 1 306 7 b 231 174 306 85 231 79 l 228 725 l 806 133 b 849 43 835 101 849 76 b 899 0 849 19 864 0 b 949 58 933 0 949 15 l 949 799 b 1024 935 949 893 1024 889 b 958 971 1024 964 1006 971 z "},"O":{"ha":1089,"x_min":0,"x_max":0,"o":"m 514 -14 b 1031 514 815 -14 1031 214 b 572 986 1031 782 851 986 b 56 449 275 986 56 746 b 514 -14 56 178 250 -14 z m 586 96 b 247 575 376 96 247 335 b 507 888 247 738 333 888 b 839 408 713 888 839 643 b 586 96 839 238 763 96 z "},"Ó":{"ha":1089,"x_min":0,"x_max":0,"o":"m 524 1051 b 744 1183 601 1044 739 1104 b 683 1261 749 1224 717 1257 b 565 1193 649 1265 613 1235 b 472 1079 529 1158 474 1103 b 524 1051 471 1061 499 1053 z m 514 -14 b 1031 514 815 -14 1031 214 b 572 986 1031 782 851 986 b 56 449 275 986 56 746 b 514 -14 56 178 250 -14 z m 586 96 b 247 575 376 96 247 335 b 507 888 247 738 333 888 b 839 408 713 888 839 643 b 586 96 839 238 763 96 z "},"Ô":{"ha":1089,"x_min":0,"x_max":0,"o":"m 371 1042 b 549 1110 413 1040 501 1076 b 726 1042 597 1076 685 1040 b 750 1064 743 1043 750 1051 b 671 1154 750 1079 717 1108 b 549 1236 607 1217 603 1236 b 424 1151 496 1236 485 1211 b 347 1064 376 1104 349 1078 b 371 1042 349 1051 354 1043 z m 514 -14 b 1031 514 815 -14 1031 214 b 572 986 1031 782 851 986 b 56 449 275 986 56 746 b 514 -14 56 178 250 -14 z m 586 96 b 247 575 376 96 247 335 b 507 888 247 738 333 888 b 839 408 713 888 839 643 b 586 96 839 238 763 96 z "},"Ö":{"ha":1089,"x_min":0,"x_max":0,"o":"m 446 1064 b 551 1158 501 1064 551 1103 b 474 1235 551 1204 519 1235 b 375 1132 417 1235 375 1183 b 446 1064 375 1090 407 1064 z m 675 1064 b 779 1158 729 1064 779 1103 b 700 1235 779 1204 747 1235 b 601 1132 646 1235 601 1183 b 675 1064 601 1090 633 1064 z m 514 -14 b 1031 514 815 -14 1031 214 b 572 986 1031 782 851 986 b 56 449 275 986 56 746 b 514 -14 56 178 250 -14 z m 586 96 b 247 575 376 96 247 335 b 507 888 247 738 333 888 b 839 408 713 888 839 643 b 586 96 839 238 763 96 z "},"Ò":{"ha":1089,"x_min":0,"x_max":0,"o":"m 594 1051 b 647 1079 621 1053 647 1061 b 553 1193 646 1103 590 1158 b 435 1261 507 1235 471 1265 b 374 1183 401 1257 369 1224 b 594 1051 381 1104 518 1044 z m 514 -14 b 1031 514 815 -14 1031 214 b 572 986 1031 782 851 986 b 56 449 275 986 56 746 b 514 -14 56 178 250 -14 z m 586 96 b 247 575 376 96 247 335 b 507 888 247 738 333 888 b 839 408 713 888 839 643 b 586 96 839 238 763 96 z "},"Ő":{"ha":1089,"x_min":0,"x_max":0,"o":"m 361 1056 b 590 1193 442 1056 590 1124 b 519 1254 590 1221 560 1254 b 407 1188 488 1254 451 1225 b 310 1078 372 1158 310 1101 b 361 1056 310 1063 331 1056 z m 635 1053 b 868 1178 714 1049 865 1108 b 803 1243 869 1207 842 1240 b 686 1182 771 1244 732 1217 b 583 1078 650 1156 585 1101 b 635 1053 582 1063 604 1054 z m 514 -14 b 1031 514 815 -14 1031 214 b 572 986 1031 782 851 986 b 56 449 275 986 56 746 b 514 -14 56 178 250 -14 z m 586 96 b 247 575 376 96 247 335 b 507 888 247 738 333 888 b 839 408 713 888 839 643 b 586 96 839 238 763 96 z "},"Ō":{"ha":1089,"x_min":0,"x_max":0,"o":"m 690 1072 b 760 1121 750 1072 756 1079 b 704 1163 765 1154 758 1163 l 390 1163 b 325 1114 338 1163 332 1154 b 376 1072 321 1079 326 1072 z m 514 -14 b 1031 514 815 -14 1031 214 b 572 986 1031 782 851 986 b 56 449 275 986 56 746 b 514 -14 56 178 250 -14 z m 586 96 b 247 575 376 96 247 335 b 507 888 247 738 333 888 b 839 408 713 888 839 643 b 586 96 839 238 763 96 z "},"Ø":{"ha":1089,"x_min":0,"x_max":0,"o":"m 922 1046 b 903 1103 938 1074 929 1086 b 847 1092 876 1118 860 1113 l 765 949 b 572 986 708 972 643 986 b 56 449 275 986 56 746 b 253 61 56 279 131 142 l 181 -62 b 197 -117 169 -83 172 -101 b 256 -108 222 -132 239 -136 l 331 21 b 514 -14 386 -1 447 -14 b 1031 514 815 -14 1031 214 b 842 906 1031 681 961 822 z m 247 575 b 507 888 247 738 333 888 b 686 814 576 888 638 860 l 349 229 b 247 575 283 321 247 447 z m 586 96 b 411 161 519 96 460 121 l 746 742 b 839 408 806 650 839 528 b 586 96 839 238 763 96 z "},"Õ":{"ha":1089,"x_min":0,"x_max":0,"o":"m 656 1047 b 764 1144 731 1047 764 1097 b 713 1192 764 1207 713 1226 b 664 1150 713 1160 693 1150 b 429 1208 618 1150 510 1208 b 321 1111 354 1208 321 1160 b 372 1065 321 1050 372 1029 b 421 1106 372 1096 393 1106 b 656 1047 500 1106 585 1047 z m 514 -14 b 1031 514 815 -14 1031 214 b 572 986 1031 782 851 986 b 56 449 275 986 56 746 b 514 -14 56 178 250 -14 z m 586 96 b 247 575 376 96 247 335 b 507 888 247 738 333 888 b 839 408 713 888 839 643 b 586 96 839 238 763 96 z "},"Œ":{"ha":1601,"x_min":0,"x_max":0,"o":"m 1528 261 b 1461 219 1501 268 1485 256 b 1258 89 1408 133 1350 89 l 1168 88 b 1040 135 1058 88 1040 104 l 1040 478 l 1224 478 b 1431 343 1356 476 1365 328 b 1453 411 1457 350 1464 361 l 1419 569 b 1378 611 1414 594 1404 611 b 1224 564 1331 611 1339 564 l 1040 565 l 1040 838 b 1168 885 1040 868 1058 885 l 1235 885 b 1438 753 1326 885 1385 840 b 1504 713 1461 717 1478 704 b 1525 781 1529 719 1532 743 b 1489 924 1515 839 1501 886 b 1374 972 1474 965 1453 972 l 890 972 b 849 931 864 972 849 957 l 849 901 b 572 986 775 956 681 986 b 56 449 275 986 56 746 b 514 -14 56 178 250 -14 b 849 103 646 -14 761 29 l 849 42 b 890 0 849 15 864 0 l 1397 0 b 1513 49 1476 0 1497 8 b 1549 192 1525 86 1539 133 b 1528 261 1556 229 1553 253 z m 586 96 b 247 575 376 96 247 335 b 507 888 247 738 333 888 b 839 408 713 888 839 643 b 586 96 839 238 763 96 z "},"P":{"ha":907,"x_min":0,"x_max":0,"o":"m 119 972 b 42 933 64 972 42 964 b 133 736 42 861 133 917 l 133 232 b 42 39 133 67 42 106 b 119 0 42 10 64 0 l 340 0 b 417 39 397 0 417 10 b 329 232 417 106 329 67 l 329 268 b 357 296 329 293 335 296 l 457 296 b 882 610 735 296 882 401 b 417 972 882 824 713 972 z m 447 381 b 329 425 351 381 329 393 l 329 853 b 414 890 329 882 336 890 b 682 588 558 890 682 778 b 447 381 682 449 592 381 z "},"Þ":{"ha":860,"x_min":0,"x_max":0,"o":"m 329 808 b 396 942 329 900 396 894 b 333 972 396 965 375 972 l 131 972 b 65 940 86 972 65 964 b 133 800 65 897 133 894 l 133 233 b 42 40 133 68 42 107 b 119 1 42 11 64 1 l 340 1 b 417 40 397 1 417 11 b 329 214 417 104 336 71 b 357 232 331 231 338 232 l 436 232 b 835 501 694 232 835 311 b 418 808 835 688 690 810 z m 421 315 b 329 354 346 315 329 322 l 329 689 b 371 726 329 718 339 726 b 626 497 528 725 626 638 b 421 315 626 376 544 315 z "},"Q":{"ha":1089,"x_min":0,"x_max":0,"o":"m 997 -35 b 889 -74 965 -35 965 -74 b 531 -14 778 -74 650 -44 b 1031 514 824 -6 1031 219 b 572 986 1031 782 851 986 b 56 449 275 986 56 746 b 275 47 56 269 140 125 b 186 57 242 54 213 57 b 88 -21 113 57 88 14 b 115 -61 88 -40 97 -61 b 172 -40 131 -61 135 -40 b 411 -118 215 -40 292 -71 b 824 -239 550 -174 710 -239 b 1026 -89 971 -239 1026 -164 b 997 -35 1026 -50 1011 -35 z m 507 888 b 839 408 713 888 839 643 b 586 96 839 238 763 96 b 247 575 376 96 247 335 b 507 888 247 738 333 888 z "},"R":{"ha":958,"x_min":0,"x_max":0,"o":"m 690 394 b 865 660 806 440 865 533 b 422 972 865 825 721 972 l 119 972 b 42 933 64 972 42 964 b 133 736 42 861 133 917 l 133 232 b 42 39 133 67 42 106 b 119 0 42 10 64 0 l 340 0 b 417 39 397 0 417 10 b 329 232 417 106 329 67 l 329 347 b 428 379 329 390 367 388 b 535 321 492 369 514 361 l 613 182 b 588 40 658 99 588 89 b 654 0 588 10 610 0 l 858 0 b 929 39 910 0 929 10 b 815 175 929 99 869 79 z m 467 457 b 329 522 407 463 329 476 l 329 853 b 415 889 329 882 340 890 b 664 640 567 889 664 778 b 467 457 664 533 601 443 z "},"Ŕ":{"ha":958,"x_min":0,"x_max":0,"o":"m 322 1051 b 543 1183 400 1044 538 1104 b 482 1261 547 1224 515 1257 b 364 1193 447 1265 411 1235 b 271 1079 328 1158 272 1103 b 322 1051 269 1061 297 1053 z m 690 394 b 865 660 806 440 865 533 b 422 972 865 825 721 972 l 119 972 b 42 933 64 972 42 964 b 133 736 42 861 133 917 l 133 232 b 42 39 133 67 42 106 b 119 0 42 10 64 0 l 340 0 b 417 39 397 0 417 10 b 329 232 417 106 329 67 l 329 347 b 428 379 329 390 367 388 b 535 321 492 369 514 361 l 613 182 b 588 40 658 99 588 89 b 654 0 588 10 610 0 l 858 0 b 929 39 910 0 929 10 b 815 175 929 99 869 79 z m 467 457 b 329 522 407 463 329 476 l 329 853 b 415 889 329 882 340 890 b 664 640 567 889 664 778 b 467 457 664 533 601 443 z "},"Ř":{"ha":958,"x_min":0,"x_max":0,"o":"m 311 1133 b 436 1049 372 1072 383 1049 b 558 1131 490 1049 494 1067 b 638 1221 604 1176 638 1206 b 614 1242 638 1233 631 1242 b 436 1175 572 1243 485 1208 b 258 1242 389 1208 300 1243 b 235 1221 242 1242 236 1233 b 311 1133 236 1206 264 1179 z m 690 394 b 865 660 806 440 865 533 b 422 972 865 825 721 972 l 119 972 b 42 933 64 972 42 964 b 133 736 42 861 133 917 l 133 232 b 42 39 133 67 42 106 b 119 0 42 10 64 0 l 340 0 b 417 39 397 0 417 10 b 329 232 417 106 329 67 l 329 347 b 428 379 329 390 367 388 b 535 321 492 369 514 361 l 613 182 b 588 40 658 99 588 89 b 654 0 588 10 610 0 l 858 0 b 929 39 910 0 929 10 b 815 175 929 99 869 79 z m 467 457 b 329 522 407 463 329 476 l 329 853 b 415 889 329 882 340 890 b 664 640 567 889 664 778 b 467 457 664 533 601 443 z "},"S":{"ha":856,"x_min":0,"x_max":0,"o":"m 429 -12 b 793 282 617 -12 796 96 b 500 572 792 438 660 492 b 276 778 356 646 276 689 b 414 897 276 847 325 897 b 643 742 522 897 597 810 b 708 683 669 701 686 683 b 743 744 738 683 746 707 b 715 911 738 806 726 863 b 663 985 703 971 688 985 b 592 965 635 985 626 965 b 435 985 560 965 503 985 b 88 708 229 985 88 860 b 363 413 88 544 211 489 b 593 206 479 353 596 301 b 444 78 590 140 547 78 b 165 268 288 78 206 190 b 104 326 140 310 129 326 b 72 265 78 326 71 303 b 100 63 78 193 89 129 b 153 -14 110 3 126 -14 b 226 13 181 -14 186 13 b 429 -12 264 13 325 -12 z "},"":{"ha":856,"x_min":0,"x_max":0,"o":"m 429 -12 b 793 282 617 -12 796 96 b 500 572 792 438 660 492 b 276 778 356 646 276 689 b 414 897 276 847 325 897 b 643 742 522 897 597 810 b 708 683 669 701 686 683 b 743 744 738 683 746 707 b 715 911 738 806 726 863 b 663 985 703 971 688 985 b 592 965 635 985 626 965 b 435 985 560 965 503 985 b 88 708 229 985 88 860 b 363 413 88 544 211 489 b 593 206 479 353 596 301 b 444 78 590 140 547 78 b 165 268 288 78 206 190 b 104 326 140 310 129 326 b 72 265 78 326 71 303 b 100 63 78 193 89 129 b 153 -14 110 3 126 -14 b 226 13 181 -14 186 13 b 429 -12 264 13 325 -12 z "},"Ś":{"ha":856,"x_min":0,"x_max":0,"o":"m 375 1057 b 596 1189 453 1050 590 1110 b 535 1267 600 1229 568 1263 b 417 1199 500 1271 464 1240 b 324 1085 381 1164 325 1108 b 375 1057 322 1067 350 1058 z m 429 -12 b 793 282 617 -12 796 96 b 500 572 792 438 660 492 b 276 778 356 646 276 689 b 414 897 276 847 325 897 b 643 742 522 897 597 810 b 708 683 669 701 686 683 b 743 744 738 683 746 707 b 715 911 738 806 726 863 b 663 985 703 971 688 985 b 592 965 635 985 626 965 b 435 985 560 965 503 985 b 88 708 229 985 88 860 b 363 413 88 544 211 489 b 593 206 479 353 596 301 b 444 78 590 140 547 78 b 165 268 288 78 206 190 b 104 326 140 310 129 326 b 72 265 78 326 71 303 b 100 63 78 193 89 129 b 153 -14 110 3 126 -14 b 226 13 181 -14 186 13 b 429 -12 264 13 325 -12 z "},"Š":{"ha":856,"x_min":0,"x_max":0,"o":"m 238 1247 b 214 1226 221 1247 215 1239 b 290 1139 215 1211 243 1185 b 415 1054 351 1078 363 1054 b 538 1136 469 1054 474 1072 b 617 1226 583 1182 617 1211 b 593 1247 617 1239 610 1247 b 415 1181 551 1249 464 1214 b 238 1247 368 1214 279 1249 z m 429 -12 b 793 282 617 -12 796 96 b 500 572 792 438 660 492 b 276 778 356 646 276 689 b 414 897 276 847 325 897 b 643 742 522 897 597 810 b 708 683 669 701 686 683 b 743 744 738 683 746 707 b 715 911 738 806 726 863 b 663 985 703 971 688 985 b 592 965 635 985 626 965 b 435 985 560 965 503 985 b 88 708 229 985 88 860 b 363 413 88 544 211 489 b 593 206 479 353 596 301 b 444 78 590 140 547 78 b 165 268 288 78 206 190 b 104 326 140 310 129 326 b 72 265 78 326 71 303 b 100 63 78 193 89 129 b 153 -14 110 3 126 -14 b 226 13 181 -14 186 13 b 429 -12 264 13 325 -12 z "},"Ş":{"ha":856,"x_min":0,"x_max":0,"o":"m 793 282 b 500 572 792 438 660 492 b 276 778 356 646 276 689 b 414 897 276 847 325 897 b 643 742 522 897 597 810 b 708 683 669 701 686 683 b 743 744 738 683 746 707 b 715 911 738 806 726 863 b 663 985 703 971 688 985 b 592 965 635 985 626 965 b 435 985 560 965 503 985 b 88 708 229 985 88 860 b 363 413 88 544 211 489 b 593 206 479 353 596 301 b 444 78 590 140 547 78 b 165 268 288 78 206 190 b 104 326 140 310 129 326 b 72 265 78 326 71 303 b 100 63 78 193 89 129 b 153 -14 110 3 126 -14 b 226 13 181 -14 186 13 b 372 -10 257 13 301 -4 l 328 -93 b 344 -119 321 -107 331 -117 b 436 -189 385 -129 436 -143 b 376 -242 436 -217 415 -242 b 315 -222 351 -242 332 -233 b 285 -250 288 -206 268 -231 b 403 -297 304 -275 343 -297 b 539 -182 479 -297 539 -250 b 410 -71 539 -114 479 -83 l 440 -12 b 793 282 624 -8 796 100 z "},"ẞ":{"ha":1711,"x_min":0,"x_max":0,"o":"m 429 -12 b 793 282 617 -12 796 96 b 500 572 792 438 660 492 b 276 778 356 646 276 689 b 414 897 276 847 325 897 b 643 742 522 897 597 810 b 708 683 669 701 686 683 b 743 744 738 683 746 707 b 715 911 738 806 726 863 b 663 985 703 971 688 985 b 592 965 635 985 626 965 b 435 985 560 965 503 985 b 88 708 229 985 88 860 b 363 413 88 544 211 489 b 593 206 479 353 596 301 b 444 78 590 140 547 78 b 165 268 288 78 206 190 b 104 326 140 310 129 326 b 72 265 78 326 71 303 b 100 63 78 193 89 129 b 153 -14 110 3 126 -14 b 226 13 181 -14 186 13 b 429 -12 264 13 325 -12 z m 1285 -12 b 1649 282 1472 -12 1651 96 b 1356 572 1647 438 1515 492 b 1132 778 1211 646 1132 689 b 1269 897 1132 847 1181 897 b 1499 742 1378 897 1453 810 b 1564 683 1525 701 1542 683 b 1599 744 1593 683 1601 707 b 1571 911 1593 806 1582 863 b 1518 985 1558 971 1543 985 b 1447 965 1490 985 1482 965 b 1290 985 1415 965 1358 985 b 943 708 1085 985 943 860 b 1218 413 943 544 1067 489 b 1449 206 1335 353 1451 301 b 1300 78 1446 140 1403 78 b 1021 268 1143 78 1061 190 b 960 326 996 310 985 326 b 928 265 933 326 926 303 b 956 63 933 193 944 129 b 1008 -14 965 3 982 -14 b 1082 13 1036 -14 1042 13 b 1285 -12 1119 13 1181 -12 z "},"T":{"ha":900,"x_min":0,"x_max":0,"o":"m 549 818 b 610 881 549 860 568 881 b 778 736 701 881 729 832 b 831 685 796 701 810 685 b 864 746 860 685 865 710 b 843 915 863 822 854 875 b 728 972 833 956 813 972 l 174 972 b 57 914 89 972 68 956 b 36 746 46 875 39 822 b 71 685 35 708 42 685 b 122 736 92 685 106 701 b 290 879 172 831 199 879 b 353 818 335 879 353 860 l 353 232 b 261 39 353 67 261 106 b 339 0 261 10 283 0 l 560 0 b 638 39 618 0 638 10 b 549 232 638 106 549 67 z "},"Ŧ":{"ha":900,"x_min":0,"x_max":0,"o":"m 864 746 b 843 915 863 822 854 875 b 728 972 833 956 813 972 l 174 972 b 57 914 89 972 68 956 b 36 746 46 875 39 822 b 71 685 35 708 42 685 b 122 736 92 685 106 701 b 290 879 172 831 199 879 b 353 818 335 879 353 860 l 353 529 l 292 529 b 253 492 265 529 253 515 b 292 440 253 458 257 440 l 353 440 l 353 232 b 261 39 353 67 261 106 b 339 0 261 10 283 0 l 560 0 b 638 39 618 0 638 10 b 549 232 638 106 549 67 l 549 440 l 628 440 b 667 492 661 440 667 456 b 628 529 667 515 654 529 l 549 529 l 549 818 b 610 881 549 860 568 881 b 778 736 701 881 729 832 b 831 685 796 701 810 685 b 864 746 860 685 865 710 z "},"Ť":{"ha":900,"x_min":0,"x_max":0,"o":"m 290 1242 b 267 1221 274 1242 268 1233 b 343 1133 268 1206 296 1179 b 468 1049 404 1072 415 1049 b 590 1131 522 1049 526 1067 b 669 1221 636 1176 669 1206 b 646 1242 669 1233 663 1242 b 468 1175 604 1243 517 1208 b 290 1242 421 1208 332 1243 z m 549 818 b 610 881 549 860 568 881 b 778 736 701 881 729 832 b 831 685 796 701 810 685 b 864 746 860 685 865 710 b 843 915 863 822 854 875 b 728 972 833 956 813 972 l 174 972 b 57 914 89 972 68 956 b 36 746 46 875 39 822 b 71 685 35 708 42 685 b 122 736 92 685 106 701 b 290 879 172 831 199 879 b 353 818 335 879 353 860 l 353 232 b 261 39 353 67 261 106 b 339 0 261 10 283 0 l 560 0 b 638 39 618 0 638 10 b 549 232 638 106 549 67 z "},"U":{"ha":1018,"x_min":0,"x_max":0,"o":"m 517 -14 b 906 435 779 -14 904 128 l 906 799 b 982 935 907 893 982 889 b 917 971 982 964 964 971 l 793 971 b 729 936 750 971 729 965 b 804 799 729 888 804 893 l 806 403 b 563 96 806 214 718 96 b 322 388 410 96 322 197 l 322 739 b 413 932 322 906 413 865 b 336 971 413 961 390 971 l 114 971 b 38 932 57 971 38 961 b 125 739 38 865 125 906 l 125 425 b 517 -14 125 132 258 -14 z "},"Ú":{"ha":1018,"x_min":0,"x_max":0,"o":"m 544 1051 b 765 1183 622 1044 760 1104 b 704 1261 769 1224 738 1257 b 586 1193 669 1265 633 1235 b 493 1079 550 1158 494 1103 b 544 1051 492 1061 519 1053 z m 517 -14 b 906 435 779 -14 904 128 l 906 799 b 982 935 907 893 982 889 b 917 971 982 964 964 971 l 793 971 b 729 936 750 971 729 965 b 804 799 729 888 804 893 l 806 403 b 563 96 806 214 718 96 b 322 388 410 96 322 197 l 322 739 b 413 932 322 906 413 865 b 336 971 413 961 390 971 l 114 971 b 38 932 57 971 38 961 b 125 739 38 865 125 906 l 125 425 b 517 -14 125 132 258 -14 z "},"Û":{"ha":1018,"x_min":0,"x_max":0,"o":"m 392 1042 b 569 1110 433 1040 522 1076 b 747 1042 618 1076 706 1040 b 771 1064 764 1043 771 1051 b 692 1154 771 1079 738 1108 b 569 1236 628 1217 624 1236 b 444 1151 517 1236 506 1211 b 368 1064 397 1104 369 1078 b 392 1042 369 1051 375 1043 z m 517 -14 b 906 435 779 -14 904 128 l 906 799 b 982 935 907 893 982 889 b 917 971 982 964 964 971 l 793 971 b 729 936 750 971 729 965 b 804 799 729 888 804 893 l 806 403 b 563 96 806 214 718 96 b 322 388 410 96 322 197 l 322 739 b 413 932 322 906 413 865 b 336 971 413 961 390 971 l 114 971 b 38 932 57 971 38 961 b 125 739 38 865 125 906 l 125 425 b 517 -14 125 132 258 -14 z "},"Ü":{"ha":1018,"x_min":0,"x_max":0,"o":"m 467 1064 b 572 1158 522 1064 572 1103 b 494 1235 572 1204 540 1235 b 396 1132 438 1235 396 1183 b 467 1064 396 1090 428 1064 z m 696 1064 b 800 1158 750 1064 800 1103 b 721 1235 800 1204 768 1235 b 622 1132 667 1235 622 1183 b 696 1064 622 1090 654 1064 z m 517 -14 b 906 435 779 -14 904 128 l 906 799 b 982 935 907 893 982 889 b 917 971 982 964 964 971 l 793 971 b 729 936 750 971 729 965 b 804 799 729 888 804 893 l 806 403 b 563 96 806 214 718 96 b 322 388 410 96 322 197 l 322 739 b 413 932 322 906 413 865 b 336 971 413 961 390 971 l 114 971 b 38 932 57 971 38 961 b 125 739 38 865 125 906 l 125 425 b 517 -14 125 132 258 -14 z "},"Ù":{"ha":1018,"x_min":0,"x_max":0,"o":"m 615 1051 b 668 1079 642 1053 668 1061 b 574 1193 667 1103 611 1158 b 456 1261 528 1235 492 1265 b 394 1183 422 1257 390 1224 b 615 1051 401 1104 539 1044 z m 517 -14 b 906 435 779 -14 904 128 l 906 799 b 982 935 907 893 982 889 b 917 971 982 964 964 971 l 793 971 b 729 936 750 971 729 965 b 804 799 729 888 804 893 l 806 403 b 563 96 806 214 718 96 b 322 388 410 96 322 197 l 322 739 b 413 932 322 906 413 865 b 336 971 413 961 390 971 l 114 971 b 38 932 57 971 38 961 b 125 739 38 865 125 906 l 125 425 b 517 -14 125 132 258 -14 z "},"Ű":{"ha":1018,"x_min":0,"x_max":0,"o":"m 382 1056 b 611 1193 463 1056 611 1124 b 540 1254 611 1221 581 1254 b 428 1188 508 1254 472 1225 b 331 1078 393 1158 331 1101 b 382 1056 331 1063 351 1056 z m 656 1053 b 889 1178 735 1049 886 1108 b 824 1243 890 1207 863 1240 b 707 1182 792 1244 753 1217 b 604 1078 671 1156 606 1101 b 656 1053 603 1063 625 1054 z m 517 -14 b 906 435 779 -14 904 128 l 906 799 b 982 935 907 893 982 889 b 917 971 982 964 964 971 l 793 971 b 729 936 750 971 729 965 b 804 799 729 888 804 893 l 806 403 b 563 96 806 214 718 96 b 322 388 410 96 322 197 l 322 739 b 413 932 322 906 413 865 b 336 971 413 961 390 971 l 114 971 b 38 932 57 971 38 961 b 125 739 38 865 125 906 l 125 425 b 517 -14 125 132 258 -14 z "},"Ū":{"ha":1018,"x_min":0,"x_max":0,"o":"m 711 1072 b 781 1121 771 1072 776 1079 b 725 1163 786 1154 779 1163 l 411 1163 b 346 1114 358 1163 353 1154 b 397 1072 342 1079 347 1072 z m 517 -14 b 906 435 779 -14 904 128 l 906 799 b 982 935 907 893 982 889 b 917 971 982 964 964 971 l 793 971 b 729 936 750 971 729 965 b 804 799 729 888 804 893 l 806 403 b 563 96 806 214 718 96 b 322 388 410 96 322 197 l 322 739 b 413 932 322 906 413 865 b 336 971 413 961 390 971 l 114 971 b 38 932 57 971 38 961 b 125 739 38 865 125 906 l 125 425 b 517 -14 125 132 258 -14 z "},"Ų":{"ha":1018,"x_min":0,"x_max":0,"o":"m 793 971 b 729 936 750 971 729 965 b 804 799 729 888 804 893 l 806 403 b 563 96 806 214 718 96 b 322 388 410 96 322 197 l 322 739 b 413 932 322 906 413 865 b 336 971 413 961 390 971 l 114 971 b 38 932 57 971 38 961 b 125 739 38 865 125 906 l 125 425 b 517 -14 125 132 258 -14 b 565 -12 533 -14 550 -14 b 485 -143 513 -50 485 -96 b 624 -261 485 -214 543 -261 b 744 -212 669 -261 717 -242 b 721 -176 765 -192 756 -160 b 669 -189 703 -185 685 -189 b 599 -119 622 -189 599 -158 b 657 3 599 -87 614 -46 b 906 435 824 49 904 189 l 906 799 b 982 935 907 893 982 889 b 917 971 982 964 964 971 z "},"Ů":{"ha":1018,"x_min":0,"x_max":0,"o":"m 565 1031 b 717 1174 649 1031 717 1086 b 571 1313 717 1258 653 1313 b 419 1169 486 1313 419 1256 b 565 1031 419 1086 482 1031 z m 571 1106 b 504 1172 535 1106 508 1133 b 565 1240 501 1213 525 1240 b 631 1176 601 1240 626 1214 b 571 1106 633 1138 611 1106 z m 517 -14 b 906 435 779 -14 904 128 l 906 799 b 982 935 907 893 982 889 b 917 971 982 964 964 971 l 793 971 b 729 936 750 971 729 965 b 804 799 729 888 804 893 l 806 403 b 563 96 806 214 718 96 b 322 388 410 96 322 197 l 322 739 b 413 932 322 906 413 865 b 336 971 413 961 390 971 l 114 971 b 38 932 57 971 38 961 b 125 739 38 865 125 906 l 125 425 b 517 -14 125 132 258 -14 z "},"V":{"ha":993,"x_min":0,"x_max":0,"o":"m 799 971 b 736 935 763 971 736 965 b 772 794 736 885 813 903 l 553 215 l 328 789 b 378 933 286 899 378 879 b 311 972 378 963 356 972 l 88 972 b 14 932 33 972 14 963 b 115 789 14 881 71 904 l 422 24 b 513 -3 433 -7 449 -11 b 586 44 568 4 576 17 l 878 794 b 996 936 919 899 996 885 b 924 971 996 964 967 971 z "},"W":{"ha":1476,"x_min":0,"x_max":0,"o":"m 1282 972 b 1219 936 1246 972 1219 965 b 1258 794 1219 886 1296 904 l 1068 224 l 888 792 b 931 936 856 894 931 885 b 867 972 931 964 906 972 l 644 972 b 579 935 601 972 579 965 b 678 792 579 885 643 900 l 694 738 l 514 218 l 324 792 b 365 936 290 894 365 885 b 301 972 365 964 340 972 l 79 972 b 14 935 36 972 14 965 b 115 792 14 885 78 899 l 386 19 b 475 -3 396 -7 418 -12 b 551 42 531 6 546 22 l 740 601 l 939 19 b 1032 -3 949 -7 971 -14 b 1108 43 1088 6 1101 24 l 1365 794 b 1479 936 1401 900 1479 885 b 1407 972 1479 965 1450 972 z "},"Ẃ":{"ha":1476,"x_min":0,"x_max":0,"o":"m 719 1051 b 940 1183 797 1044 935 1104 b 879 1261 944 1224 913 1257 b 761 1193 844 1265 808 1235 b 668 1079 725 1158 669 1103 b 719 1051 667 1061 694 1053 z m 1282 972 b 1219 936 1246 972 1219 965 b 1258 794 1219 886 1296 904 l 1068 224 l 888 792 b 931 936 856 894 931 885 b 867 972 931 964 906 972 l 644 972 b 579 935 601 972 579 965 b 678 792 579 885 643 900 l 694 738 l 514 218 l 324 792 b 365 936 290 894 365 885 b 301 972 365 964 340 972 l 79 972 b 14 935 36 972 14 965 b 115 792 14 885 78 899 l 386 19 b 475 -3 396 -7 418 -12 b 551 42 531 6 546 22 l 740 601 l 939 19 b 1032 -3 949 -7 971 -14 b 1108 43 1088 6 1101 24 l 1365 794 b 1479 936 1401 900 1479 885 b 1407 972 1479 965 1450 972 z "},"Ŵ":{"ha":1476,"x_min":0,"x_max":0,"o":"m 567 1042 b 744 1110 608 1040 697 1076 b 922 1042 793 1076 881 1040 b 946 1064 939 1043 946 1051 b 867 1154 946 1079 913 1108 b 744 1236 803 1217 799 1236 b 619 1151 692 1236 681 1211 b 543 1064 572 1104 544 1078 b 567 1042 544 1051 550 1043 z m 1282 972 b 1219 936 1246 972 1219 965 b 1258 794 1219 886 1296 904 l 1068 224 l 888 792 b 931 936 856 894 931 885 b 867 972 931 964 906 972 l 644 972 b 579 935 601 972 579 965 b 678 792 579 885 643 900 l 694 738 l 514 218 l 324 792 b 365 936 290 894 365 885 b 301 972 365 964 340 972 l 79 972 b 14 935 36 972 14 965 b 115 792 14 885 78 899 l 386 19 b 475 -3 396 -7 418 -12 b 551 42 531 6 546 22 l 740 601 l 939 19 b 1032 -3 949 -7 971 -14 b 1108 43 1088 6 1101 24 l 1365 794 b 1479 936 1401 900 1479 885 b 1407 972 1479 965 1450 972 z "},"Ẅ":{"ha":1476,"x_min":0,"x_max":0,"o":"m 642 1064 b 747 1158 697 1064 747 1103 b 669 1235 747 1204 715 1235 b 571 1132 613 1235 571 1183 b 642 1064 571 1090 603 1064 z m 871 1064 b 975 1158 925 1064 975 1103 b 896 1235 975 1204 943 1235 b 797 1132 842 1235 797 1183 b 871 1064 797 1090 829 1064 z m 1282 972 b 1219 936 1246 972 1219 965 b 1258 794 1219 886 1296 904 l 1068 224 l 888 792 b 931 936 856 894 931 885 b 867 972 931 964 906 972 l 644 972 b 579 935 601 972 579 965 b 678 792 579 885 643 900 l 694 738 l 514 218 l 324 792 b 365 936 290 894 365 885 b 301 972 365 964 340 972 l 79 972 b 14 935 36 972 14 965 b 115 792 14 885 78 899 l 386 19 b 475 -3 396 -7 418 -12 b 551 42 531 6 546 22 l 740 601 l 939 19 b 1032 -3 949 -7 971 -14 b 1108 43 1088 6 1101 24 l 1365 794 b 1479 936 1401 900 1479 885 b 1407 972 1479 965 1450 972 z "},"Ẁ":{"ha":1476,"x_min":0,"x_max":0,"o":"m 790 1051 b 843 1079 817 1053 843 1061 b 749 1193 842 1103 786 1158 b 631 1261 703 1235 667 1265 b 569 1183 597 1257 565 1224 b 790 1051 576 1104 714 1044 z m 1282 972 b 1219 936 1246 972 1219 965 b 1258 794 1219 886 1296 904 l 1068 224 l 888 792 b 931 936 856 894 931 885 b 867 972 931 964 906 972 l 644 972 b 579 935 601 972 579 965 b 678 792 579 885 643 900 l 694 738 l 514 218 l 324 792 b 365 936 290 894 365 885 b 301 972 365 964 340 972 l 79 972 b 14 935 36 972 14 965 b 115 792 14 885 78 899 l 386 19 b 475 -3 396 -7 418 -12 b 551 42 531 6 546 22 l 740 601 l 939 19 b 1032 -3 949 -7 971 -14 b 1108 43 1088 6 1101 24 l 1365 794 b 1479 936 1401 900 1479 885 b 1407 972 1479 965 1450 972 z "},"X":{"ha":1038,"x_min":0,"x_max":0,"o":"m 824 808 b 974 936 892 901 974 885 b 901 972 974 965 944 972 l 765 972 b 701 936 729 972 701 965 b 708 808 701 886 779 906 l 557 597 l 403 804 b 419 936 333 899 419 885 b 356 972 419 964 396 972 l 97 972 b 29 936 56 972 29 965 b 163 804 29 885 89 903 l 403 482 l 175 164 b 26 36 108 71 26 88 b 99 0 26 7 56 0 l 235 0 b 297 36 271 0 297 7 b 290 164 297 86 221 67 l 460 403 l 635 168 b 619 36 704 74 619 88 b 683 0 619 8 643 0 l 940 0 b 1008 36 983 0 1008 7 b 876 168 1008 88 949 69 l 615 519 z "},"Y":{"ha":972,"x_min":0,"x_max":0,"o":"m 756 971 b 693 935 721 971 693 965 b 708 801 693 885 769 904 l 550 538 l 378 801 b 399 936 315 900 399 885 b 335 972 399 964 375 972 l 76 972 b 10 936 35 972 10 965 b 139 803 10 885 69 904 l 392 431 l 392 232 b 300 39 392 67 300 106 b 378 0 300 10 322 0 l 599 0 b 675 39 656 0 675 10 b 588 232 675 106 588 67 l 588 431 l 822 803 b 964 936 883 901 964 885 b 892 971 964 964 936 971 z "},"Ý":{"ha":972,"x_min":0,"x_max":0,"o":"m 524 1051 b 744 1183 601 1044 739 1104 b 683 1261 749 1224 717 1257 b 565 1193 649 1265 613 1235 b 472 1079 529 1158 474 1103 b 524 1051 471 1061 499 1053 z m 756 971 b 693 935 721 971 693 965 b 708 801 693 885 769 904 l 550 538 l 378 801 b 399 936 315 900 399 885 b 335 972 399 964 375 972 l 76 972 b 10 936 35 972 10 965 b 139 803 10 885 69 904 l 392 431 l 392 232 b 300 39 392 67 300 106 b 378 0 300 10 322 0 l 599 0 b 675 39 656 0 675 10 b 588 232 675 106 588 67 l 588 431 l 822 803 b 964 936 883 901 964 885 b 892 971 964 964 936 971 z "},"Ŷ":{"ha":972,"x_min":0,"x_max":0,"o":"m 371 1042 b 549 1110 413 1040 501 1076 b 726 1042 597 1076 685 1040 b 750 1064 743 1043 750 1051 b 671 1154 750 1079 717 1108 b 549 1236 607 1217 603 1236 b 424 1151 496 1236 485 1211 b 347 1064 376 1104 349 1078 b 371 1042 349 1051 354 1043 z m 756 971 b 693 935 721 971 693 965 b 708 801 693 885 769 904 l 550 538 l 378 801 b 399 936 315 900 399 885 b 335 972 399 964 375 972 l 76 972 b 10 936 35 972 10 965 b 139 803 10 885 69 904 l 392 431 l 392 232 b 300 39 392 67 300 106 b 378 0 300 10 322 0 l 599 0 b 675 39 656 0 675 10 b 588 232 675 106 588 67 l 588 431 l 822 803 b 964 936 883 901 964 885 b 892 971 964 964 936 971 z "},"Ÿ":{"ha":972,"x_min":0,"x_max":0,"o":"m 446 1064 b 551 1158 501 1064 551 1103 b 474 1235 551 1204 519 1235 b 375 1132 417 1235 375 1183 b 446 1064 375 1090 407 1064 z m 675 1064 b 779 1158 729 1064 779 1103 b 700 1235 779 1204 747 1235 b 601 1132 646 1235 601 1183 b 675 1064 601 1090 633 1064 z m 756 971 b 693 935 721 971 693 965 b 708 801 693 885 769 904 l 550 538 l 378 801 b 399 936 315 900 399 885 b 335 972 399 964 375 972 l 76 972 b 10 936 35 972 10 965 b 139 803 10 885 69 904 l 392 431 l 392 232 b 300 39 392 67 300 106 b 378 0 300 10 322 0 l 599 0 b 675 39 656 0 675 10 b 588 232 675 106 588 67 l 588 431 l 822 803 b 964 936 883 901 964 885 b 892 971 964 964 936 971 z "},"Ỳ":{"ha":972,"x_min":0,"x_max":0,"o":"m 594 1051 b 647 1079 621 1053 647 1061 b 553 1193 646 1103 590 1158 b 435 1261 507 1235 471 1265 b 374 1183 401 1257 369 1224 b 594 1051 381 1104 518 1044 z m 756 971 b 693 935 721 971 693 965 b 708 801 693 885 769 904 l 550 538 l 378 801 b 399 936 315 900 399 885 b 335 972 399 964 375 972 l 76 972 b 10 936 35 972 10 965 b 139 803 10 885 69 904 l 392 431 l 392 232 b 300 39 392 67 300 106 b 378 0 300 10 322 0 l 599 0 b 675 39 656 0 675 10 b 588 232 675 106 588 67 l 588 431 l 822 803 b 964 936 883 901 964 885 b 892 971 964 964 936 971 z "},"Z":{"ha":889,"x_min":0,"x_max":0,"o":"m 833 261 b 767 219 807 268 789 256 b 563 89 713 133 654 89 l 313 88 l 829 913 b 797 972 850 947 839 972 l 218 972 b 103 924 138 972 118 964 b 67 781 89 886 76 839 b 86 713 60 743 63 719 b 153 753 113 704 131 717 b 357 885 207 839 265 885 l 585 885 l 67 61 b 97 0 44 26 57 0 l 701 0 b 817 49 782 0 803 8 b 853 192 831 86 843 133 b 833 261 860 229 857 253 z "},"Ź":{"ha":889,"x_min":0,"x_max":0,"o":"m 414 1051 b 635 1183 492 1044 629 1104 b 574 1261 639 1224 607 1257 b 456 1193 539 1265 503 1235 b 363 1079 419 1158 364 1103 b 414 1051 361 1061 389 1053 z m 833 261 b 767 219 807 268 789 256 b 563 89 713 133 654 89 l 313 88 l 829 913 b 797 972 850 947 839 972 l 218 972 b 103 924 138 972 118 964 b 67 781 89 886 76 839 b 86 713 60 743 63 719 b 153 753 113 704 131 717 b 357 885 207 839 265 885 l 585 885 l 67 61 b 97 0 44 26 57 0 l 701 0 b 817 49 782 0 803 8 b 853 192 831 86 843 133 b 833 261 860 229 857 253 z "},"Ž":{"ha":889,"x_min":0,"x_max":0,"o":"m 315 1133 b 440 1049 376 1072 388 1049 b 563 1131 494 1049 499 1067 b 642 1221 608 1176 642 1206 b 618 1242 642 1233 635 1242 b 440 1175 576 1243 489 1208 b 263 1242 393 1208 304 1243 b 239 1221 246 1242 240 1233 b 315 1133 240 1206 268 1179 z m 833 261 b 767 219 807 268 789 256 b 563 89 713 133 654 89 l 313 88 l 829 913 b 797 972 850 947 839 972 l 218 972 b 103 924 138 972 118 964 b 67 781 89 886 76 839 b 86 713 60 743 63 719 b 153 753 113 704 131 717 b 357 885 207 839 265 885 l 585 885 l 67 61 b 97 0 44 26 57 0 l 701 0 b 817 49 782 0 803 8 b 853 192 831 86 843 133 b 833 261 860 229 857 253 z "},"Ż":{"ha":889,"x_min":0,"x_max":0,"o":"m 413 1063 b 563 1192 485 1061 560 1124 b 475 1279 563 1239 525 1278 b 329 1147 404 1282 331 1211 b 413 1063 328 1101 360 1064 z m 833 261 b 767 219 807 268 789 256 b 563 89 713 133 654 89 l 313 88 l 829 913 b 797 972 850 947 839 972 l 218 972 b 103 924 138 972 118 964 b 67 781 89 886 76 839 b 86 713 60 743 63 719 b 153 753 113 704 131 717 b 357 885 207 839 265 885 l 585 885 l 67 61 b 97 0 44 26 57 0 l 701 0 b 817 49 782 0 803 8 b 853 192 831 86 843 133 b 833 261 860 229 857 253 z "},"Ģ":{"ha":1075,"x_min":0,"x_max":0,"o":"m 544 -14 b 953 194 774 -12 953 96 l 953 290 b 1006 453 953 422 1006 399 b 942 492 1004 482 983 492 l 692 489 b 615 450 633 489 614 479 b 756 289 615 385 756 424 l 756 185 b 590 89 756 119 661 89 b 256 557 381 89 256 288 b 531 894 256 740 353 894 b 806 717 679 893 742 806 b 879 656 835 675 850 653 b 914 718 911 658 919 681 b 879 911 901 803 890 863 b 822 985 867 971 847 985 b 747 963 789 985 782 963 b 554 986 714 963 661 986 b 56 467 268 986 56 754 b 544 -14 56 183 251 -15 z m 499 -379 b 636 -175 549 -379 636 -294 b 544 -68 636 -99 594 -68 b 463 -151 501 -68 463 -103 b 526 -275 463 -224 526 -232 b 478 -361 526 -318 478 -343 b 499 -379 478 -371 486 -379 z "},"Ķ":{"ha":1029,"x_min":0,"x_max":0,"o":"m 779 808 b 938 933 879 901 938 874 b 860 972 938 963 911 972 l 682 972 b 625 933 644 972 625 963 b 646 808 625 882 726 883 l 329 514 l 329 740 b 419 933 329 906 419 867 b 343 972 419 963 397 972 l 122 972 b 44 933 64 972 44 963 b 133 740 44 867 133 906 l 133 232 b 42 39 133 67 42 106 b 119 0 42 10 64 0 l 340 0 b 417 39 397 0 417 10 b 329 232 417 106 329 67 l 329 390 l 532 579 l 708 182 b 671 40 747 94 671 89 b 749 0 671 10 694 0 l 961 0 b 1032 39 1013 0 1032 10 b 914 192 1032 100 967 75 l 675 713 z m 508 -68 b 426 -151 465 -68 426 -103 b 490 -275 426 -224 490 -232 b 442 -361 490 -318 442 -343 b 463 -379 442 -371 450 -379 b 600 -175 513 -379 600 -294 b 508 -68 600 -99 558 -68 z "},"Ļ":{"ha":797,"x_min":0,"x_max":0,"o":"m 733 290 b 671 238 711 296 693 285 b 499 89 625 140 596 89 l 436 88 b 329 151 349 88 329 107 l 329 740 b 419 933 329 906 419 867 b 343 972 419 963 397 972 l 122 972 b 44 933 64 972 44 963 b 133 740 44 867 133 906 l 133 236 b 42 39 133 56 42 111 b 119 0 42 8 64 0 l 625 0 b 742 58 710 0 731 17 b 763 226 753 97 760 150 b 733 290 764 264 763 285 z m 408 -68 b 326 -151 365 -68 326 -103 b 390 -275 326 -224 390 -232 b 342 -361 390 -318 342 -343 b 363 -379 342 -371 350 -379 b 500 -175 413 -379 500 -294 b 408 -68 500 -99 458 -68 z "},"Ņ":{"ha":1061,"x_min":0,"x_max":0,"o":"m 836 971 b 771 936 792 971 771 965 b 847 799 771 888 847 893 l 847 365 l 293 939 b 226 972 272 960 256 972 l 115 972 b 38 933 60 972 38 964 b 129 736 38 861 129 917 l 129 174 b 54 38 129 79 54 83 b 119 1 54 10 72 1 l 242 1 b 306 36 286 1 306 7 b 231 174 306 85 231 79 l 228 725 l 806 133 b 849 43 835 101 849 76 b 899 0 849 19 864 0 b 949 58 933 0 949 15 l 949 799 b 1024 935 949 893 1024 889 b 958 971 1024 964 1006 971 z m 525 -68 b 443 -151 482 -68 443 -103 b 507 -275 443 -224 507 -232 b 458 -361 507 -318 458 -343 b 479 -379 458 -371 467 -379 b 617 -175 529 -379 617 -294 b 525 -68 617 -99 575 -68 z "},"Ŗ":{"ha":958,"x_min":0,"x_max":0,"o":"m 690 394 b 865 660 806 440 865 533 b 422 972 865 825 721 972 l 119 972 b 42 933 64 972 42 964 b 133 736 42 861 133 917 l 133 232 b 42 39 133 67 42 106 b 119 0 42 10 64 0 l 340 0 b 417 39 397 0 417 10 b 329 232 417 106 329 67 l 329 347 b 428 379 329 390 367 388 b 535 321 492 369 514 361 l 613 182 b 588 40 658 99 588 89 b 654 0 588 10 610 0 l 858 0 b 929 39 910 0 929 10 b 815 175 929 99 869 79 z m 467 457 b 329 522 407 463 329 476 l 329 853 b 415 889 329 882 340 890 b 664 640 567 889 664 778 b 467 457 664 533 601 443 z m 467 -68 b 385 -151 424 -68 385 -103 b 449 -275 385 -224 449 -232 b 400 -361 449 -318 400 -343 b 421 -379 400 -371 408 -379 b 558 -175 471 -379 558 -294 b 467 -68 558 -99 517 -68 z "},"Ţ":{"ha":900,"x_min":0,"x_max":0,"o":"m 864 746 b 843 915 863 822 854 875 b 728 972 833 956 813 972 l 174 972 b 57 914 89 972 68 956 b 36 746 46 875 39 822 b 71 685 35 708 42 685 b 122 736 92 685 106 701 b 290 879 172 831 199 879 b 353 818 335 879 353 860 l 353 232 b 261 39 353 67 261 106 b 339 0 261 10 283 0 l 435 0 l 385 -93 b 401 -119 378 -107 388 -117 b 493 -189 442 -129 493 -143 b 433 -242 493 -217 472 -242 b 372 -222 408 -242 389 -233 b 342 -250 344 -206 325 -231 b 460 -297 361 -275 400 -297 b 596 -182 536 -297 596 -250 b 467 -71 596 -114 536 -83 l 504 0 l 560 0 b 638 39 618 0 638 10 b 549 232 638 106 549 67 l 549 818 b 610 881 549 860 568 881 b 778 736 701 881 729 832 b 831 685 796 701 810 685 b 864 746 860 685 865 710 z "},"Ș":{"ha":856,"x_min":0,"x_max":0,"o":"m 429 -12 b 793 282 617 -12 796 96 b 500 572 792 438 660 492 b 276 778 356 646 276 689 b 414 897 276 847 325 897 b 643 742 522 897 597 810 b 708 683 669 701 686 683 b 743 744 738 683 746 707 b 715 911 738 806 726 863 b 663 985 703 971 688 985 b 592 965 635 985 626 965 b 435 985 560 965 503 985 b 88 708 229 985 88 860 b 363 413 88 544 211 489 b 593 206 479 353 596 301 b 444 78 590 140 547 78 b 165 268 288 78 206 190 b 104 326 140 310 129 326 b 72 265 78 326 71 303 b 100 63 78 193 89 129 b 153 -14 110 3 126 -14 b 226 13 181 -14 186 13 b 429 -12 264 13 325 -12 z m 351 -379 b 489 -175 401 -379 489 -294 b 397 -68 489 -99 447 -68 b 315 -151 354 -68 315 -103 b 379 -275 315 -224 379 -232 b 331 -361 379 -318 331 -343 b 351 -379 331 -371 339 -379 z "},"Ț":{"ha":900,"x_min":0,"x_max":0,"o":"m 549 818 b 610 881 549 860 568 881 b 778 736 701 881 729 832 b 831 685 796 701 810 685 b 864 746 860 685 865 710 b 843 915 863 822 854 875 b 728 972 833 956 813 972 l 174 972 b 57 914 89 972 68 956 b 36 746 46 875 39 822 b 71 685 35 708 42 685 b 122 736 92 685 106 701 b 290 879 172 831 199 879 b 353 818 335 879 353 860 l 353 232 b 261 39 353 67 261 106 b 339 0 261 10 283 0 l 560 0 b 638 39 618 0 638 10 b 549 232 638 106 549 67 z m 408 -379 b 546 -175 458 -379 546 -294 b 454 -68 546 -99 504 -68 b 372 -151 411 -68 372 -103 b 436 -275 372 -224 436 -232 b 388 -361 436 -318 388 -343 b 408 -379 388 -371 396 -379 z "},"a":{"ha":799,"x_min":0,"x_max":0,"o":"m 767 107 b 701 182 736 106 717 125 l 633 443 b 372 681 603 558 550 681 b 99 551 239 681 133 610 b 133 513 78 517 107 496 b 303 567 183 540 240 567 b 460 410 407 567 435 497 b 349 421 413 417 385 421 b 35 192 151 421 35 325 b 289 -12 35 76 135 -12 b 532 92 372 -12 467 19 b 650 -11 553 22 589 -11 b 793 83 717 -11 793 36 b 767 107 793 100 782 107 z m 364 85 b 214 222 274 85 215 143 b 371 349 214 299 272 349 b 479 303 415 349 469 335 b 508 196 492 254 504 219 b 364 85 519 139 442 85 z "},"á":{"ha":799,"x_min":0,"x_max":0,"o":"m 301 769 b 553 869 369 744 528 797 b 511 967 569 915 549 953 b 385 911 472 981 431 950 b 283 800 336 868 292 822 b 301 769 279 788 283 776 z m 767 107 b 701 182 736 106 717 125 l 633 443 b 372 681 603 558 550 681 b 99 551 239 681 133 610 b 133 513 78 517 107 496 b 303 567 183 540 240 567 b 460 410 407 567 435 497 b 349 421 413 417 385 421 b 35 192 151 421 35 325 b 289 -12 35 76 135 -12 b 532 92 372 -12 467 19 b 650 -11 553 22 589 -11 b 793 83 717 -11 793 36 b 767 107 793 100 782 107 z m 364 85 b 214 222 274 85 215 143 b 371 349 214 299 272 349 b 479 303 415 349 469 335 b 508 196 492 254 504 219 b 364 85 519 139 442 85 z "},"ă":{"ha":799,"x_min":0,"x_max":0,"o":"m 390 743 b 586 922 506 743 585 819 b 564 963 588 947 579 963 b 536 943 554 963 549 957 b 392 869 496 892 457 869 b 246 943 325 869 285 892 b 217 963 235 957 226 963 b 194 922 203 963 194 947 b 390 743 196 824 269 743 z m 767 107 b 701 182 736 106 717 125 l 633 443 b 372 681 603 558 550 681 b 99 551 239 681 133 610 b 133 513 78 517 107 496 b 303 567 183 540 240 567 b 460 410 407 567 435 497 b 349 421 413 417 385 421 b 35 192 151 421 35 325 b 289 -12 35 76 135 -12 b 532 92 372 -12 467 19 b 650 -11 553 22 589 -11 b 793 83 717 -11 793 36 b 767 107 793 100 782 107 z m 364 85 b 214 222 274 85 215 143 b 371 349 214 299 272 349 b 479 303 415 349 469 335 b 508 196 492 254 504 219 b 364 85 519 139 442 85 z "},"â":{"ha":799,"x_min":0,"x_max":0,"o":"m 247 746 b 407 847 289 744 357 799 b 567 746 456 799 525 744 b 589 767 583 746 589 754 b 519 882 589 786 553 836 b 406 965 471 950 468 965 b 290 876 354 965 339 943 b 224 767 256 832 225 786 b 247 746 224 754 231 746 z m 767 107 b 701 182 736 106 717 125 l 633 443 b 372 681 603 558 550 681 b 99 551 239 681 133 610 b 133 513 78 517 107 496 b 303 567 183 540 240 567 b 460 410 407 567 435 497 b 349 421 413 417 385 421 b 35 192 151 421 35 325 b 289 -12 35 76 135 -12 b 532 92 372 -12 467 19 b 650 -11 553 22 589 -11 b 793 83 717 -11 793 36 b 767 107 793 100 782 107 z m 364 85 b 214 222 274 85 215 143 b 371 349 214 299 272 349 b 479 303 415 349 469 335 b 508 196 492 254 504 219 b 364 85 519 139 442 85 z "},"ä":{"ha":799,"x_min":0,"x_max":0,"o":"m 275 769 b 381 864 331 769 381 810 b 303 940 381 910 349 940 b 204 838 246 940 204 889 b 275 769 204 796 236 769 z m 504 769 b 608 864 558 769 608 810 b 529 940 608 910 576 940 b 431 838 475 940 431 889 b 504 769 431 796 463 769 z m 767 107 b 701 182 736 106 717 125 l 633 443 b 372 681 603 558 550 681 b 99 551 239 681 133 610 b 133 513 78 517 107 496 b 303 567 183 540 240 567 b 460 410 407 567 435 497 b 349 421 413 417 385 421 b 35 192 151 421 35 325 b 289 -12 35 76 135 -12 b 532 92 372 -12 467 19 b 650 -11 553 22 589 -11 b 793 83 717 -11 793 36 b 767 107 793 100 782 107 z m 364 85 b 214 222 274 85 215 143 b 371 349 214 299 272 349 b 479 303 415 349 469 335 b 508 196 492 254 504 219 b 364 85 519 139 442 85 z "},"à":{"ha":799,"x_min":0,"x_max":0,"o":"m 517 769 b 535 800 535 776 539 788 b 435 911 526 822 482 868 b 308 967 388 950 346 981 b 265 869 269 953 249 915 b 517 769 290 797 449 744 z m 767 107 b 701 182 736 106 717 125 l 633 443 b 372 681 603 558 550 681 b 99 551 239 681 133 610 b 133 513 78 517 107 496 b 303 567 183 540 240 567 b 460 410 407 567 435 497 b 349 421 413 417 385 421 b 35 192 151 421 35 325 b 289 -12 35 76 135 -12 b 532 92 372 -12 467 19 b 650 -11 553 22 589 -11 b 793 83 717 -11 793 36 b 767 107 793 100 782 107 z m 364 85 b 214 222 274 85 215 143 b 371 349 214 299 272 349 b 479 303 415 349 469 335 b 508 196 492 254 504 219 b 364 85 519 139 442 85 z "},"ā":{"ha":799,"x_min":0,"x_max":0,"o":"m 536 767 b 606 815 596 767 601 774 b 550 857 611 849 604 857 l 236 857 b 171 808 183 857 178 849 b 222 767 167 774 172 767 z m 767 107 b 701 182 736 106 717 125 l 633 443 b 372 681 603 558 550 681 b 99 551 239 681 133 610 b 133 513 78 517 107 496 b 303 567 183 540 240 567 b 460 410 407 567 435 497 b 349 421 413 417 385 421 b 35 192 151 421 35 325 b 289 -12 35 76 135 -12 b 532 92 372 -12 467 19 b 650 -11 553 22 589 -11 b 793 83 717 -11 793 36 b 767 107 793 100 782 107 z m 364 85 b 214 222 274 85 215 143 b 371 349 214 299 272 349 b 479 303 415 349 469 335 b 508 196 492 254 504 219 b 364 85 519 139 442 85 z "},"ą":{"ha":799,"x_min":0,"x_max":0,"o":"m 754 -176 b 703 -189 736 -185 718 -189 b 632 -119 656 -189 632 -158 b 681 -8 632 -89 646 -53 b 793 83 739 3 793 43 b 767 107 793 100 782 107 b 701 182 736 106 717 125 l 633 443 b 372 681 603 558 550 681 b 99 551 239 681 133 610 b 133 513 78 517 107 496 b 303 567 183 540 240 567 b 460 410 407 567 435 497 b 349 421 413 417 385 421 b 35 192 151 421 35 325 b 289 -12 35 76 135 -12 b 532 92 372 -12 467 19 b 610 -6 547 39 572 7 b 518 -143 550 -44 518 -93 b 657 -261 518 -214 576 -261 b 778 -212 703 -261 750 -242 b 754 -176 799 -192 789 -160 z m 364 85 b 214 222 274 85 215 143 b 371 349 214 299 272 349 b 479 303 415 349 469 335 b 508 196 492 254 504 219 b 364 85 519 139 442 85 z "},"å":{"ha":799,"x_min":0,"x_max":0,"o":"m 392 725 b 543 868 475 725 543 781 b 397 1007 543 953 479 1007 b 246 864 313 1007 246 950 b 392 725 246 781 308 725 z m 392 935 b 457 871 428 935 453 908 b 397 800 460 832 438 800 b 331 867 361 800 335 828 b 392 935 328 907 351 935 z m 767 107 b 701 182 736 106 717 125 l 633 443 b 372 681 603 558 550 681 b 99 551 239 681 133 610 b 133 513 78 517 107 496 b 303 567 183 540 240 567 b 460 410 407 567 435 497 b 349 421 413 417 385 421 b 35 192 151 421 35 325 b 289 -12 35 76 135 -12 b 532 92 372 -12 467 19 b 650 -11 553 22 589 -11 b 793 83 717 -11 793 36 b 767 107 793 100 782 107 z m 364 85 b 214 222 274 85 215 143 b 371 349 214 299 272 349 b 479 303 415 349 469 335 b 508 196 492 254 504 219 b 364 85 519 139 442 85 z "},"ã":{"ha":799,"x_min":0,"x_max":0,"o":"m 218 760 b 267 800 218 790 239 800 b 501 742 346 800 431 742 b 610 839 576 742 610 792 b 558 886 610 901 558 921 b 510 844 558 854 539 844 b 275 903 464 844 356 903 b 167 806 200 903 167 854 b 218 760 167 744 218 724 z m 767 107 b 701 182 736 106 717 125 l 633 443 b 372 681 603 558 550 681 b 99 551 239 681 133 610 b 133 513 78 517 107 496 b 303 567 183 540 240 567 b 460 410 407 567 435 497 b 349 421 413 417 385 421 b 35 192 151 421 35 325 b 289 -12 35 76 135 -12 b 532 92 372 -12 467 19 b 650 -11 553 22 589 -11 b 793 83 717 -11 793 36 b 767 107 793 100 782 107 z m 364 85 b 214 222 274 85 215 143 b 371 349 214 299 272 349 b 479 303 415 349 469 335 b 508 196 492 254 504 219 b 364 85 519 139 442 85 z "},"æ":{"ha":1193,"x_min":0,"x_max":0,"o":"m 1110 213 b 907 121 1060 164 990 121 b 707 247 800 121 736 183 b 1106 407 853 300 964 343 b 1138 461 1131 419 1142 439 b 856 681 1117 581 1022 681 b 615 589 764 681 679 647 b 393 681 571 646 497 681 b 122 551 269 681 157 610 b 157 513 100 517 131 496 b 315 560 207 540 256 560 b 486 400 417 560 475 517 b 343 421 431 418 386 421 b 35 196 158 421 35 328 b 272 -12 35 64 147 -12 b 538 143 376 -12 481 33 b 826 -14 592 46 694 -14 b 1154 178 1011 -14 1126 100 b 1110 213 1168 218 1138 240 z m 794 589 b 949 471 861 601 929 551 b 917 414 958 435 940 425 b 682 326 842 382 763 354 b 671 414 675 350 671 383 b 794 589 671 503 714 579 z m 342 88 b 199 215 256 88 200 136 b 357 350 197 299 267 350 b 488 293 432 350 486 328 b 489 199 489 247 489 229 b 342 88 488 143 410 88 z "},"b":{"ha":832,"x_min":0,"x_max":0,"o":"m 494 681 b 286 579 400 679 331 638 l 286 754 l 288 944 b 256 986 288 974 278 986 b 75 925 233 986 133 953 b 32 882 42 910 32 900 b 97 754 32 840 97 850 l 99 179 b 88 40 99 125 94 79 b 122 -4 83 13 93 -4 b 249 43 164 -4 203 42 b 464 -14 299 44 329 -14 b 785 367 608 -14 785 114 b 494 681 785 560 654 682 z m 461 72 b 285 292 364 72 285 167 l 283 393 b 428 571 282 478 335 571 b 606 282 529 571 606 450 b 461 72 606 171 558 72 z "},"":{"ha":832,"x_min":0,"x_max":0,"o":"m 494 681 b 286 579 400 679 331 638 l 286 754 l 288 944 b 256 986 288 974 278 986 b 75 925 233 986 133 953 b 32 882 42 910 32 900 b 97 754 32 840 97 850 l 99 179 b 88 40 99 125 94 79 b 122 -4 83 13 93 -4 b 249 43 164 -4 203 42 b 464 -14 299 44 329 -14 b 785 367 608 -14 785 114 b 494 681 785 560 654 682 z m 461 72 b 285 292 364 72 285 167 l 283 393 b 428 571 282 478 335 571 b 606 282 529 571 606 450 b 461 72 606 171 558 72 z "},"c":{"ha":738,"x_min":0,"x_max":0,"o":"m 381 -14 b 692 168 565 -14 665 92 b 649 204 706 210 678 231 b 464 121 600 160 549 121 b 226 407 319 121 226 236 b 365 592 226 517 278 592 b 507 442 439 590 482 529 b 600 354 519 393 542 354 b 689 450 646 354 689 386 b 408 681 689 569 581 681 b 46 311 208 681 46 524 b 381 -14 46 139 168 -14 z "},"ć":{"ha":738,"x_min":0,"x_max":0,"o":"m 292 775 b 543 875 360 750 518 803 b 501 972 560 921 539 958 b 375 917 463 986 421 956 b 274 806 326 874 282 828 b 292 775 269 793 274 782 z m 381 -14 b 692 168 565 -14 665 92 b 649 204 706 210 678 231 b 464 121 600 160 549 121 b 226 407 319 121 226 236 b 365 592 226 517 278 592 b 507 442 439 590 482 529 b 600 354 519 393 542 354 b 689 450 646 354 689 386 b 408 681 689 569 581 681 b 46 311 208 681 46 524 b 381 -14 46 139 168 -14 z "},"č":{"ha":738,"x_min":0,"x_max":0,"o":"m 238 1015 b 214 994 221 1015 214 1007 b 281 885 215 975 246 929 b 396 796 329 818 344 796 b 510 879 458 796 461 811 b 579 994 543 925 579 975 b 557 1015 579 1007 574 1015 b 397 915 515 1017 446 963 b 238 1015 347 963 279 1017 z m 381 -14 b 692 168 565 -14 665 92 b 649 204 706 210 678 231 b 464 121 600 160 549 121 b 226 407 319 121 226 236 b 365 592 226 517 278 592 b 507 442 439 590 482 529 b 600 354 519 393 542 354 b 689 450 646 354 689 386 b 408 681 689 569 581 681 b 46 311 208 681 46 524 b 381 -14 46 139 168 -14 z "},"ç":{"ha":738,"x_min":0,"x_max":0,"o":"m 649 204 b 464 121 600 160 549 121 b 226 407 319 121 226 236 b 365 592 226 517 278 592 b 507 442 439 590 482 529 b 600 354 519 393 542 354 b 689 450 646 354 689 386 b 408 681 689 569 581 681 b 46 311 208 681 46 524 b 336 -11 46 151 151 8 l 292 -93 b 308 -119 285 -107 294 -117 b 400 -189 349 -129 400 -143 b 340 -242 400 -217 379 -242 b 279 -222 315 -242 296 -233 b 249 -250 251 -206 232 -231 b 367 -297 268 -275 307 -297 b 503 -182 443 -297 503 -250 b 374 -71 503 -114 443 -83 l 404 -14 b 692 168 574 -6 667 94 b 649 204 706 210 678 231 z "},"ċ":{"ha":738,"x_min":0,"x_max":0,"o":"m 357 763 b 507 892 429 761 504 824 b 419 979 507 939 469 978 b 274 847 349 982 275 911 b 357 763 272 801 304 764 z m 381 -14 b 692 168 565 -14 665 92 b 649 204 706 210 678 231 b 464 121 600 160 549 121 b 226 407 319 121 226 236 b 365 592 226 517 278 592 b 507 442 439 590 482 529 b 600 354 519 393 542 354 b 689 450 646 354 689 386 b 408 681 689 569 581 681 b 46 311 208 681 46 524 b 381 -14 46 139 168 -14 z "},"d":{"ha":835,"x_min":0,"x_max":0,"o":"m 735 944 b 703 986 735 974 725 986 b 522 925 681 986 581 953 b 479 882 489 910 479 900 b 544 753 479 840 544 849 l 544 644 b 397 681 506 667 454 681 b 46 296 235 681 46 536 b 324 -12 46 117 161 -10 b 549 99 432 -17 504 35 l 550 71 b 608 -11 554 13 569 -11 b 767 38 647 -11 726 17 b 813 89 799 56 813 69 b 731 210 813 129 731 107 l 733 754 z m 406 107 b 225 381 310 107 225 210 b 375 593 225 510 281 593 b 514 497 436 593 485 561 b 544 344 533 458 542 401 l 544 261 b 406 107 536 176 489 107 z "},"ď":{"ha":835,"x_min":0,"x_max":0,"o":"m 735 944 b 703 986 735 974 725 986 b 522 925 681 986 581 953 b 479 882 489 910 479 900 b 544 753 479 840 544 849 l 544 644 b 397 681 506 667 454 681 b 46 296 235 681 46 536 b 324 -12 46 117 161 -10 b 549 99 432 -17 504 35 l 550 71 b 608 -11 554 13 569 -11 b 767 38 647 -11 726 17 b 813 89 799 56 813 69 b 731 210 813 129 731 107 l 733 754 z m 944 981 b 875 904 908 981 882 957 b 856 685 872 883 861 744 b 879 654 853 665 863 654 b 1013 906 926 654 1013 836 b 944 981 1013 951 986 981 z m 406 107 b 225 381 310 107 225 210 b 375 593 225 510 281 593 b 514 497 436 593 485 561 b 544 344 533 458 542 401 l 544 261 b 406 107 536 176 489 107 z "},"đ":{"ha":835,"x_min":0,"x_max":0,"o":"m 783 710 b 818 750 807 710 818 724 b 783 788 818 775 807 788 l 733 788 l 735 944 b 703 986 735 974 725 986 b 522 925 681 986 581 953 b 479 882 489 910 479 900 b 540 788 479 846 528 847 l 472 788 b 438 750 449 788 438 775 b 472 710 438 724 449 710 l 544 710 l 544 644 b 397 681 506 667 454 681 b 46 296 235 681 46 536 b 324 -12 46 117 161 -10 b 549 99 432 -17 504 35 l 550 71 b 608 -11 554 13 569 -11 b 767 38 647 -11 726 17 b 813 89 799 56 813 69 b 731 210 813 129 731 107 l 733 710 z m 406 107 b 225 381 310 107 225 210 b 375 593 225 510 281 593 b 514 497 436 593 485 561 b 544 344 533 458 542 401 l 544 261 b 406 107 536 176 489 107 z "},"ð":{"ha":794,"x_min":0,"x_max":0,"o":"m 747 396 b 464 878 742 594 615 772 l 508 904 b 526 961 528 915 535 935 b 488 981 521 985 507 993 l 389 924 b 183 976 319 960 247 978 b 131 942 149 975 131 961 b 163 914 131 929 143 924 b 272 856 201 897 239 878 l 218 825 b 197 769 197 813 190 794 b 239 749 204 744 218 736 l 339 806 b 476 635 394 758 440 700 b 349 664 438 657 394 665 b 46 333 164 660 46 510 b 381 -15 46 117 186 -15 b 747 396 593 -15 754 143 z m 433 79 b 228 397 311 79 228 244 b 369 590 228 493 269 590 b 571 261 493 590 571 415 b 433 79 571 168 526 79 z "},"e":{"ha":743,"x_min":0,"x_max":0,"o":"m 660 213 b 457 121 610 164 542 121 b 257 247 350 121 286 183 b 656 407 401 300 514 343 b 688 461 682 419 692 439 b 406 681 668 581 572 681 b 46 313 211 681 46 526 b 376 -14 46 122 179 -14 b 704 178 561 -14 676 100 b 660 213 718 218 688 240 z m 344 589 b 499 471 411 601 479 551 b 467 414 508 435 490 425 b 232 326 392 382 313 354 b 221 414 225 350 221 383 b 344 589 221 503 264 579 z "},"é":{"ha":743,"x_min":0,"x_max":0,"o":"m 282 769 b 533 869 350 744 508 797 b 492 967 550 915 529 953 b 365 911 453 981 411 950 b 264 800 317 868 272 822 b 282 769 260 788 264 776 z m 660 213 b 457 121 610 164 542 121 b 257 247 350 121 286 183 b 656 407 401 300 514 343 b 688 461 682 419 692 439 b 406 681 668 581 572 681 b 46 313 211 681 46 526 b 376 -14 46 122 179 -14 b 704 178 561 -14 676 100 b 660 213 718 218 688 240 z m 344 589 b 499 471 411 601 479 551 b 467 414 508 435 490 425 b 232 326 392 382 313 354 b 221 414 225 350 221 383 b 344 589 221 503 264 579 z "},"ě":{"ha":743,"x_min":0,"x_max":0,"o":"m 386 790 b 500 874 449 790 451 806 b 569 989 533 919 569 969 b 547 1010 569 1001 564 1010 b 388 910 506 1011 436 957 b 228 1010 338 957 269 1011 b 204 989 211 1010 204 1001 b 271 879 206 969 236 924 b 386 790 319 813 335 790 z m 660 213 b 457 121 610 164 542 121 b 257 247 350 121 286 183 b 656 407 401 300 514 343 b 688 461 682 419 692 439 b 406 681 668 581 572 681 b 46 313 211 681 46 526 b 376 -14 46 122 179 -14 b 704 178 561 -14 676 100 b 660 213 718 218 688 240 z m 344 589 b 499 471 411 601 479 551 b 467 414 508 435 490 425 b 232 326 392 382 313 354 b 221 414 225 350 221 383 b 344 589 221 503 264 579 z "},"ê":{"ha":743,"x_min":0,"x_max":0,"o":"m 228 746 b 388 847 269 744 338 799 b 547 746 436 799 506 744 b 569 767 564 746 569 754 b 500 882 569 786 533 836 b 386 965 451 950 449 965 b 271 876 335 965 319 943 b 204 767 236 832 206 786 b 228 746 204 754 211 746 z m 660 213 b 457 121 610 164 542 121 b 257 247 350 121 286 183 b 656 407 401 300 514 343 b 688 461 682 419 692 439 b 406 681 668 581 572 681 b 46 313 211 681 46 526 b 376 -14 46 122 179 -14 b 704 178 561 -14 676 100 b 660 213 718 218 688 240 z m 344 589 b 499 471 411 601 479 551 b 467 414 508 435 490 425 b 232 326 392 382 313 354 b 221 414 225 350 221 383 b 344 589 221 503 264 579 z "},"ë":{"ha":743,"x_min":0,"x_max":0,"o":"m 256 769 b 361 864 311 769 361 810 b 283 940 361 910 329 940 b 185 838 226 940 185 889 b 256 769 185 796 217 769 z m 485 769 b 589 864 539 769 589 810 b 510 940 589 910 557 940 b 411 838 456 940 411 889 b 485 769 411 796 443 769 z m 660 213 b 457 121 610 164 542 121 b 257 247 350 121 286 183 b 656 407 401 300 514 343 b 688 461 682 419 692 439 b 406 681 668 581 572 681 b 46 313 211 681 46 526 b 376 -14 46 122 179 -14 b 704 178 561 -14 676 100 b 660 213 718 218 688 240 z m 344 589 b 499 471 411 601 479 551 b 467 414 508 435 490 425 b 232 326 392 382 313 354 b 221 414 225 350 221 383 b 344 589 221 503 264 579 z "},"ė":{"ha":743,"x_min":0,"x_max":0,"o":"m 347 757 b 497 886 419 756 494 818 b 410 974 497 933 460 972 b 264 842 339 976 265 906 b 347 757 263 796 294 758 z m 660 213 b 457 121 610 164 542 121 b 257 247 350 121 286 183 b 656 407 401 300 514 343 b 688 461 682 419 692 439 b 406 681 668 581 572 681 b 46 313 211 681 46 526 b 376 -14 46 122 179 -14 b 704 178 561 -14 676 100 b 660 213 718 218 688 240 z m 344 589 b 499 471 411 601 479 551 b 467 414 508 435 490 425 b 232 326 392 382 313 354 b 221 414 225 350 221 383 b 344 589 221 503 264 579 z "},"è":{"ha":743,"x_min":0,"x_max":0,"o":"m 497 769 b 515 800 515 776 519 788 b 415 911 507 822 463 868 b 289 967 368 950 326 981 b 246 869 250 953 229 915 b 497 769 271 797 429 744 z m 660 213 b 457 121 610 164 542 121 b 257 247 350 121 286 183 b 656 407 401 300 514 343 b 688 461 682 419 692 439 b 406 681 668 581 572 681 b 46 313 211 681 46 526 b 376 -14 46 122 179 -14 b 704 178 561 -14 676 100 b 660 213 718 218 688 240 z m 344 589 b 499 471 411 601 479 551 b 467 414 508 435 490 425 b 232 326 392 382 313 354 b 221 414 225 350 221 383 b 344 589 221 503 264 579 z "},"ē":{"ha":743,"x_min":0,"x_max":0,"o":"m 517 767 b 586 815 576 767 582 774 b 531 857 592 849 585 857 l 217 857 b 151 808 164 857 158 849 b 203 767 147 774 153 767 z m 660 213 b 457 121 610 164 542 121 b 257 247 350 121 286 183 b 656 407 401 300 514 343 b 688 461 682 419 692 439 b 406 681 668 581 572 681 b 46 313 211 681 46 526 b 376 -14 46 122 179 -14 b 704 178 561 -14 676 100 b 660 213 718 218 688 240 z m 344 589 b 499 471 411 601 479 551 b 467 414 508 435 490 425 b 232 326 392 382 313 354 b 221 414 225 350 221 383 b 344 589 221 503 264 579 z "},"ę":{"ha":743,"x_min":0,"x_max":0,"o":"m 704 178 b 660 213 718 218 688 240 b 457 121 610 164 542 121 b 257 247 350 121 286 183 b 656 407 401 300 514 343 b 688 461 682 419 692 439 b 406 681 668 581 572 681 b 46 313 211 681 46 526 b 376 -14 46 122 179 -14 b 463 -6 407 -14 436 -11 b 432 -89 443 -32 432 -60 b 571 -207 432 -160 490 -207 b 692 -158 617 -207 664 -187 b 668 -122 713 -137 703 -106 b 617 -135 650 -131 632 -135 b 546 -65 569 -135 546 -104 b 603 56 546 -33 561 7 b 704 178 656 93 690 140 z m 344 589 b 499 471 411 601 479 551 b 467 414 508 435 490 425 b 232 326 392 382 313 354 b 221 414 225 350 221 383 b 344 589 221 503 264 579 z "},"f":{"ha":531,"x_min":0,"x_max":0,"o":"m 340 894 b 414 813 381 894 400 858 b 482 754 424 782 442 754 b 554 833 514 754 554 779 b 385 986 554 919 488 986 b 138 667 244 986 138 882 l 111 667 b 51 625 82 667 57 661 b 99 585 46 590 71 586 l 138 583 l 138 192 b 69 36 138 64 69 89 b 132 0 69 8 93 0 l 358 0 b 419 35 396 0 419 7 b 324 192 419 96 324 49 l 324 575 l 439 571 b 499 618 467 569 492 576 b 456 667 507 660 481 667 l 324 667 b 269 789 286 667 269 738 b 340 894 269 863 301 894 z "},"g":{"ha":792,"x_min":0,"x_max":0,"o":"m 576 117 b 326 103 517 117 406 103 b 204 164 260 103 204 117 b 231 210 204 182 215 199 b 369 192 271 197 318 190 b 685 451 557 196 685 304 b 608 617 685 519 657 576 b 740 725 672 626 740 663 b 683 783 740 760 714 783 b 625 750 658 783 640 769 b 500 676 576 692 531 676 b 424 681 472 676 457 679 l 394 681 b 69 411 208 676 69 557 b 165 240 69 338 106 279 b 57 110 89 207 57 161 b 143 -12 57 53 93 13 b 56 -125 86 -35 56 -82 b 371 -293 56 -244 222 -293 b 775 -47 614 -293 775 -196 b 576 117 775 47 706 117 z m 364 606 b 503 406 457 606 501 499 b 393 265 503 321 458 265 b 250 468 299 265 250 363 b 364 606 250 549 297 606 z m 408 -211 b 210 -117 288 -211 210 -179 b 294 -53 210 -69 253 -51 b 517 -46 379 -54 442 -46 b 607 -108 586 -42 607 -75 b 408 -211 607 -171 542 -211 z "},"ğ":{"ha":792,"x_min":0,"x_max":0,"o":"m 401 743 b 597 922 517 743 596 819 b 575 963 599 947 590 963 b 547 943 565 963 560 957 b 403 869 507 892 468 869 b 257 943 336 869 296 892 b 228 963 246 957 238 963 b 206 922 214 963 206 947 b 401 743 207 824 281 743 z m 576 117 b 326 103 517 117 406 103 b 204 164 260 103 204 117 b 231 210 204 182 215 199 b 369 192 271 197 318 190 b 685 451 557 196 685 304 b 608 617 685 519 657 576 b 740 725 672 626 740 663 b 683 783 740 760 714 783 b 625 750 658 783 640 769 b 500 676 576 692 531 676 b 424 681 472 676 457 679 l 394 681 b 69 411 208 676 69 557 b 165 240 69 338 106 279 b 57 110 89 207 57 161 b 143 -12 57 53 93 13 b 56 -125 86 -35 56 -82 b 371 -293 56 -244 222 -293 b 775 -47 614 -293 775 -196 b 576 117 775 47 706 117 z m 364 606 b 503 406 457 606 501 499 b 393 265 503 321 458 265 b 250 468 299 265 250 363 b 364 606 250 549 297 606 z m 408 -211 b 210 -117 288 -211 210 -179 b 294 -53 210 -69 253 -51 b 517 -46 379 -54 442 -46 b 607 -108 586 -42 607 -75 b 408 -211 607 -171 542 -211 z "},"ġ":{"ha":792,"x_min":0,"x_max":0,"o":"m 379 757 b 529 886 451 756 526 818 b 442 974 529 933 492 972 b 296 842 371 976 297 906 b 379 757 294 796 326 758 z m 576 117 b 326 103 517 117 406 103 b 204 164 260 103 204 117 b 231 210 204 182 215 199 b 369 192 271 197 318 190 b 685 451 557 196 685 304 b 608 617 685 519 657 576 b 740 725 672 626 740 663 b 683 783 740 760 714 783 b 625 750 658 783 640 769 b 500 676 576 692 531 676 b 424 681 472 676 457 679 l 394 681 b 69 411 208 676 69 557 b 165 240 69 338 106 279 b 57 110 89 207 57 161 b 143 -12 57 53 93 13 b 56 -125 86 -35 56 -82 b 371 -293 56 -244 222 -293 b 775 -47 614 -293 775 -196 b 576 117 775 47 706 117 z m 364 606 b 503 406 457 606 501 499 b 393 265 503 321 458 265 b 250 468 299 265 250 363 b 364 606 250 549 297 606 z m 408 -211 b 210 -117 288 -211 210 -179 b 294 -53 210 -69 253 -51 b 517 -46 379 -54 442 -46 b 607 -108 586 -42 607 -75 b 408 -211 607 -171 542 -211 z "},"h":{"ha":894,"x_min":0,"x_max":0,"o":"m 768 394 b 514 681 732 578 672 681 b 307 582 436 681 360 647 l 307 754 l 308 944 b 275 986 308 974 299 986 b 96 925 253 986 153 953 b 51 882 63 910 51 900 b 118 754 51 840 118 850 l 119 193 b 50 36 119 64 50 96 b 114 0 50 8 75 0 l 313 0 b 374 35 351 0 374 7 b 307 193 374 96 307 64 l 307 371 b 447 560 307 493 374 560 b 582 388 539 561 565 475 l 625 168 b 571 36 643 78 571 82 b 633 0 571 8 594 0 l 828 0 b 889 35 865 0 889 7 b 815 157 889 83 833 72 z "},"ħ":{"ha":894,"x_min":0,"x_max":0,"o":"m 768 394 b 514 681 732 578 672 681 b 307 582 436 681 360 647 l 307 707 l 386 707 b 421 747 410 707 421 721 b 386 785 421 772 410 785 l 307 785 l 308 944 b 275 986 308 974 299 986 b 96 925 253 986 153 953 b 51 882 63 910 51 900 b 115 785 51 846 103 849 l 75 785 b 40 747 51 785 40 772 b 75 707 40 721 51 707 l 118 707 l 119 193 b 50 36 119 64 50 96 b 114 0 50 8 75 0 l 313 0 b 374 35 351 0 374 7 b 307 193 374 96 307 64 l 307 371 b 447 560 307 493 374 560 b 582 388 539 561 565 475 l 625 168 b 571 36 643 78 571 82 b 633 0 571 8 594 0 l 828 0 b 889 35 865 0 889 7 b 815 157 889 83 833 72 z "},"i":{"ha":418,"x_min":0,"x_max":0,"o":"m 165 757 b 315 886 238 756 313 818 b 228 974 315 933 278 972 b 82 842 157 976 83 906 b 165 757 81 796 113 758 z m 118 193 b 50 36 118 64 50 96 b 114 0 50 8 74 0 l 313 0 b 374 35 350 0 374 7 b 306 193 374 96 306 64 l 306 447 l 307 638 b 275 679 307 667 297 681 b 94 619 253 679 153 646 b 51 575 61 604 51 594 b 118 447 51 533 118 543 z "},"ı":{"ha":418,"x_min":0,"x_max":0,"o":"m 118 193 b 50 36 118 64 50 96 b 114 0 50 8 74 0 l 313 0 b 374 35 350 0 374 7 b 306 193 374 96 306 64 l 306 447 l 307 638 b 275 679 307 667 297 681 b 94 619 253 679 153 646 b 51 575 61 604 51 594 b 118 447 51 533 118 543 z "},"í":{"ha":418,"x_min":0,"x_max":0,"o":"m 99 769 b 350 869 167 744 325 797 b 308 967 367 915 346 953 b 182 911 269 981 228 950 b 81 800 133 868 89 822 b 99 769 76 788 81 776 z m 118 193 b 50 36 118 64 50 96 b 114 0 50 8 74 0 l 313 0 b 374 35 350 0 374 7 b 306 193 374 96 306 64 l 306 447 l 307 638 b 275 679 307 667 297 681 b 94 619 253 679 153 646 b 51 575 61 604 51 594 b 118 447 51 533 118 543 z "},"î":{"ha":418,"x_min":0,"x_max":0,"o":"m 44 746 b 204 847 86 744 154 799 b 364 746 253 799 322 744 b 386 767 381 746 386 754 b 317 882 386 786 350 836 b 203 965 268 950 265 965 b 88 876 151 965 136 943 b 21 767 53 832 22 786 b 44 746 21 754 28 746 z m 118 193 b 50 36 118 64 50 96 b 114 0 50 8 74 0 l 313 0 b 374 35 350 0 374 7 b 306 193 374 96 306 64 l 306 447 l 307 638 b 275 679 307 667 297 681 b 94 619 253 679 153 646 b 51 575 61 604 51 594 b 118 447 51 533 118 543 z "},"ï":{"ha":418,"x_min":0,"x_max":0,"o":"m 72 769 b 178 864 128 769 178 810 b 100 940 178 910 146 940 b 1 838 43 940 1 889 b 72 769 1 796 33 769 z m 301 769 b 406 864 356 769 406 810 b 326 940 406 910 374 940 b 228 838 272 940 228 889 b 301 769 228 796 260 769 z m 118 193 b 50 36 118 64 50 96 b 114 0 50 8 74 0 l 313 0 b 374 35 350 0 374 7 b 306 193 374 96 306 64 l 306 447 l 307 638 b 275 679 307 667 297 681 b 94 619 253 679 153 646 b 51 575 61 604 51 594 b 118 447 51 533 118 543 z "},"ì":{"ha":418,"x_min":0,"x_max":0,"o":"m 314 769 b 332 800 332 776 336 788 b 232 911 324 822 279 868 b 106 967 185 950 143 981 b 63 869 67 953 46 915 b 314 769 88 797 246 744 z m 118 193 b 50 36 118 64 50 96 b 114 0 50 8 74 0 l 313 0 b 374 35 350 0 374 7 b 306 193 374 96 306 64 l 306 447 l 307 638 b 275 679 307 667 297 681 b 94 619 253 679 153 646 b 51 575 61 604 51 594 b 118 447 51 533 118 543 z "},"ī":{"ha":418,"x_min":0,"x_max":0,"o":"m 333 767 b 403 815 393 767 399 774 b 347 857 408 849 401 857 l 33 857 b -32 808 -19 857 -25 849 b 19 767 -36 774 -31 767 z m 118 193 b 50 36 118 64 50 96 b 114 0 50 8 74 0 l 313 0 b 374 35 350 0 374 7 b 306 193 374 96 306 64 l 306 447 l 307 638 b 275 679 307 667 297 681 b 94 619 253 679 153 646 b 51 575 61 604 51 594 b 118 447 51 533 118 543 z "},"į":{"ha":418,"x_min":0,"x_max":0,"o":"m 165 757 b 315 886 238 756 313 818 b 228 974 315 933 278 972 b 82 842 157 976 83 906 b 165 757 81 796 113 758 z m 336 -190 b 285 -203 318 -199 300 -203 b 214 -133 238 -203 214 -172 b 282 0 214 -99 232 -54 l 313 0 b 374 35 350 0 374 7 b 306 193 374 96 306 64 l 306 447 l 307 638 b 275 679 307 667 297 681 b 94 619 253 679 153 646 b 51 575 61 604 51 594 b 118 447 51 533 118 543 l 118 193 b 50 36 118 64 50 96 b 114 0 50 8 74 0 l 222 0 b 100 -157 143 -43 100 -99 b 239 -275 100 -228 158 -275 b 360 -226 285 -275 332 -256 b 336 -190 381 -206 371 -174 z "},"j":{"ha":399,"x_min":0,"x_max":0,"o":"m 186 757 b 336 886 258 756 333 818 b 249 974 336 933 299 972 b 103 842 178 976 104 906 b 186 757 101 796 133 758 z m 125 -4 b -4 -210 125 -147 82 -210 b 88 -290 -65 -210 -47 -290 b 313 -50 204 -290 313 -232 l 313 -4 l 314 451 l 315 642 b 282 683 315 669 306 683 b 103 622 260 682 160 650 b 58 579 69 607 58 597 b 125 450 58 536 125 546 z "},"ȷ":{"ha":399,"x_min":0,"x_max":0,"o":"m 125 -4 b -4 -210 125 -147 82 -210 b 88 -290 -65 -210 -47 -290 b 313 -50 204 -290 313 -232 l 313 -4 l 314 451 l 315 642 b 282 683 315 669 306 683 b 103 622 260 682 160 650 b 58 579 69 607 58 597 b 125 450 58 536 125 546 z "},"k":{"ha":861,"x_min":0,"x_max":0,"o":"m 624 532 b 763 636 696 608 763 594 b 710 667 763 657 743 667 l 543 667 b 488 636 506 667 488 658 b 517 538 488 594 571 594 l 307 314 l 307 754 l 308 944 b 275 986 308 974 299 986 b 96 925 253 986 153 953 b 51 882 63 910 51 900 b 118 754 51 840 118 850 l 119 193 b 50 36 119 64 50 96 b 114 0 50 8 75 0 l 313 0 b 374 35 351 0 374 7 b 307 192 374 96 307 64 l 454 350 l 554 131 b 514 32 582 69 514 75 b 576 0 514 8 535 0 l 769 0 b 833 31 813 0 833 7 b 739 144 833 76 767 78 l 585 490 z "},"l":{"ha":422,"x_min":0,"x_max":0,"o":"m 119 193 b 50 36 119 64 50 96 b 114 0 50 8 75 0 l 313 0 b 374 35 351 0 374 7 b 307 193 374 96 307 64 l 307 754 l 308 944 b 275 986 308 974 299 986 b 96 925 253 986 153 953 b 51 882 63 910 51 900 b 118 754 51 840 118 850 z "},"ĺ":{"ha":422,"x_min":0,"x_max":0,"o":"m 118 1075 b 369 1175 186 1050 344 1103 b 328 1272 386 1221 365 1258 b 201 1217 289 1286 247 1256 b 100 1106 153 1174 108 1128 b 118 1075 96 1093 100 1082 z m 119 193 b 50 36 119 64 50 96 b 114 0 50 8 75 0 l 313 0 b 374 35 351 0 374 7 b 307 193 374 96 307 64 l 307 754 l 308 944 b 275 986 308 974 299 986 b 96 925 253 986 153 953 b 51 882 63 910 51 900 b 118 754 51 840 118 850 z "},"ľ":{"ha":422,"x_min":0,"x_max":0,"o":"m 119 193 b 50 36 119 64 50 96 b 114 0 50 8 75 0 l 313 0 b 374 35 351 0 374 7 b 307 193 374 96 307 64 l 307 754 l 308 944 b 275 986 308 974 299 986 b 96 925 253 986 153 953 b 51 882 63 910 51 900 b 118 754 51 840 118 850 z m 436 654 b 569 906 483 654 569 836 b 501 981 569 951 543 981 b 432 904 465 981 439 957 b 413 685 429 883 418 744 b 436 654 410 665 419 654 z "},"ł":{"ha":422,"x_min":0,"x_max":0,"o":"m 417 590 b 364 611 401 618 385 622 l 307 578 l 307 754 l 308 944 b 275 986 308 974 299 986 b 96 925 253 986 153 953 b 51 882 63 910 51 900 b 118 754 51 840 118 850 l 119 469 l 19 411 b 11 357 -3 399 -6 383 b 61 338 25 331 42 326 l 119 371 l 119 193 b 50 36 119 64 50 96 b 114 0 50 8 75 0 l 313 0 b 374 35 351 0 374 7 b 307 193 374 96 307 64 l 307 479 l 407 538 b 417 590 432 551 431 568 z "},"m":{"ha":1339,"x_min":0,"x_max":0,"o":"m 1213 394 b 964 681 1175 578 1125 681 b 735 547 871 681 788 635 b 517 681 700 632 629 681 b 286 547 426 681 340 636 l 286 638 b 253 679 286 665 276 679 b 93 628 231 678 144 653 b 49 581 60 613 49 603 b 75 542 49 561 61 551 b 118 457 103 521 118 496 l 118 193 b 49 36 118 64 49 96 b 113 0 49 8 74 0 l 311 0 b 372 35 350 0 372 7 b 306 193 372 96 306 64 l 306 371 b 454 564 306 493 379 563 b 572 375 554 565 572 478 l 572 193 b 504 36 572 64 504 96 b 568 0 504 8 528 0 l 767 0 b 828 35 804 0 828 7 b 760 193 828 96 760 64 l 760 371 b 899 560 760 497 829 560 b 1026 388 994 561 1010 475 l 1069 168 b 1014 36 1088 78 1014 82 b 1078 0 1014 8 1039 0 l 1272 0 b 1332 35 1310 0 1332 7 b 1260 157 1332 83 1276 72 z "},"n":{"ha":893,"x_min":0,"x_max":0,"o":"m 767 394 b 513 681 731 578 671 681 b 286 554 424 681 339 638 l 286 638 b 253 679 286 665 276 679 b 93 628 231 678 144 653 b 49 581 60 613 49 603 b 75 542 49 561 61 551 b 118 457 103 521 118 496 l 118 193 b 49 36 118 64 49 96 b 113 0 49 8 74 0 l 311 0 b 372 35 350 0 372 7 b 306 193 372 96 306 64 l 306 371 b 446 560 306 493 372 560 b 581 388 538 561 564 475 l 624 168 b 569 36 642 78 569 82 b 632 0 569 8 593 0 l 826 0 b 888 35 864 0 888 7 b 814 157 888 83 832 72 z "},"ń":{"ha":893,"x_min":0,"x_max":0,"o":"m 342 769 b 593 869 410 744 568 797 b 551 967 610 915 589 953 b 425 911 513 981 471 950 b 324 800 376 868 332 822 b 342 769 319 788 324 776 z m 767 394 b 513 681 731 578 671 681 b 286 554 424 681 339 638 l 286 638 b 253 679 286 665 276 679 b 93 628 231 678 144 653 b 49 581 60 613 49 603 b 75 542 49 561 61 551 b 118 457 103 521 118 496 l 118 193 b 49 36 118 64 49 96 b 113 0 49 8 74 0 l 311 0 b 372 35 350 0 372 7 b 306 193 372 96 306 64 l 306 371 b 446 560 306 493 372 560 b 581 388 538 561 564 475 l 624 168 b 569 36 642 78 569 82 b 632 0 569 8 593 0 l 826 0 b 888 35 864 0 888 7 b 814 157 888 83 832 72 z "},"ň":{"ha":893,"x_min":0,"x_max":0,"o":"m 446 790 b 560 874 508 790 511 806 b 629 989 593 919 629 969 b 607 1010 629 1001 624 1010 b 447 910 565 1011 496 957 b 288 1010 397 957 329 1011 b 264 989 271 1010 264 1001 b 331 879 265 969 296 924 b 446 790 379 813 394 790 z m 767 394 b 513 681 731 578 671 681 b 286 554 424 681 339 638 l 286 638 b 253 679 286 665 276 679 b 93 628 231 678 144 653 b 49 581 60 613 49 603 b 75 542 49 561 61 551 b 118 457 103 521 118 496 l 118 193 b 49 36 118 64 49 96 b 113 0 49 8 74 0 l 311 0 b 372 35 350 0 372 7 b 306 193 372 96 306 64 l 306 371 b 446 560 306 493 372 560 b 581 388 538 561 564 475 l 624 168 b 569 36 642 78 569 82 b 632 0 569 8 593 0 l 826 0 b 888 35 864 0 888 7 b 814 157 888 83 832 72 z "},"ñ":{"ha":893,"x_min":0,"x_max":0,"o":"m 258 760 b 307 800 258 790 279 800 b 542 742 386 800 471 742 b 650 839 617 742 650 792 b 599 886 650 901 599 921 b 550 844 599 854 579 844 b 315 903 504 844 396 903 b 207 806 240 903 207 854 b 258 760 207 744 258 724 z m 767 394 b 513 681 731 578 671 681 b 286 554 424 681 339 638 l 286 638 b 253 679 286 665 276 679 b 93 628 231 678 144 653 b 49 581 60 613 49 603 b 75 542 49 561 61 551 b 118 457 103 521 118 496 l 118 193 b 49 36 118 64 49 96 b 113 0 49 8 74 0 l 311 0 b 372 35 350 0 372 7 b 306 193 372 96 306 64 l 306 371 b 446 560 306 493 372 560 b 581 388 538 561 564 475 l 624 168 b 569 36 642 78 569 82 b 632 0 569 8 593 0 l 826 0 b 888 35 864 0 888 7 b 814 157 888 83 832 72 z "},"o":{"ha":800,"x_min":0,"x_max":0,"o":"m 372 -14 b 753 354 593 -14 753 144 b 429 681 753 539 621 681 b 46 307 208 681 46 515 b 372 -14 46 110 188 -14 z m 432 78 b 229 396 313 78 229 233 b 367 589 229 494 267 589 b 568 257 486 589 568 418 b 432 78 568 161 526 78 z "},"ó":{"ha":800,"x_min":0,"x_max":0,"o":"m 311 769 b 563 869 379 744 538 797 b 521 967 579 915 558 953 b 394 911 482 981 440 950 b 293 800 346 868 301 822 b 311 769 289 788 293 776 z m 372 -14 b 753 354 593 -14 753 144 b 429 681 753 539 621 681 b 46 307 208 681 46 515 b 372 -14 46 110 188 -14 z m 432 78 b 229 396 313 78 229 233 b 367 589 229 494 267 589 b 568 257 486 589 568 418 b 432 78 568 161 526 78 z "},"ô":{"ha":800,"x_min":0,"x_max":0,"o":"m 257 746 b 417 847 299 744 367 799 b 576 746 465 799 535 744 b 599 767 593 746 599 754 b 529 882 599 786 563 836 b 415 965 481 950 478 965 b 300 876 364 965 349 943 b 233 767 265 832 235 786 b 257 746 233 754 240 746 z m 372 -14 b 753 354 593 -14 753 144 b 429 681 753 539 621 681 b 46 307 208 681 46 515 b 372 -14 46 110 188 -14 z m 432 78 b 229 396 313 78 229 233 b 367 589 229 494 267 589 b 568 257 486 589 568 418 b 432 78 568 161 526 78 z "},"ö":{"ha":800,"x_min":0,"x_max":0,"o":"m 285 769 b 390 864 340 769 390 810 b 313 940 390 910 358 940 b 214 838 256 940 214 889 b 285 769 214 796 246 769 z m 514 769 b 618 864 568 769 618 810 b 539 940 618 910 586 940 b 440 838 485 940 440 889 b 514 769 440 796 472 769 z m 372 -14 b 753 354 593 -14 753 144 b 429 681 753 539 621 681 b 46 307 208 681 46 515 b 372 -14 46 110 188 -14 z m 432 78 b 229 396 313 78 229 233 b 367 589 229 494 267 589 b 568 257 486 589 568 418 b 432 78 568 161 526 78 z "},"ò":{"ha":800,"x_min":0,"x_max":0,"o":"m 526 769 b 544 800 544 776 549 788 b 444 911 536 822 492 868 b 318 967 397 950 356 981 b 275 869 279 953 258 915 b 526 769 300 797 458 744 z m 372 -14 b 753 354 593 -14 753 144 b 429 681 753 539 621 681 b 46 307 208 681 46 515 b 372 -14 46 110 188 -14 z m 432 78 b 229 396 313 78 229 233 b 367 589 229 494 267 589 b 568 257 486 589 568 418 b 432 78 568 161 526 78 z "},"ő":{"ha":800,"x_min":0,"x_max":0,"o":"m 272 747 b 451 906 338 747 451 839 b 385 972 451 949 421 972 b 299 889 351 972 325 936 b 249 767 272 838 249 786 b 272 747 249 754 257 747 z m 489 746 b 671 899 554 746 671 833 b 608 965 671 942 642 965 b 519 886 574 965 549 931 b 463 765 489 836 463 783 b 489 746 461 754 471 746 z m 372 -14 b 753 354 593 -14 753 144 b 429 681 753 539 621 681 b 46 307 208 681 46 515 b 372 -14 46 110 188 -14 z m 432 78 b 229 396 313 78 229 233 b 367 589 229 494 267 589 b 568 257 486 589 568 418 b 432 78 568 161 526 78 z "},"ō":{"ha":800,"x_min":0,"x_max":0,"o":"m 546 767 b 615 815 606 767 611 774 b 560 857 621 849 614 857 l 246 857 b 181 808 193 857 188 849 b 232 767 176 774 182 767 z m 372 -14 b 753 354 593 -14 753 144 b 429 681 753 539 621 681 b 46 307 208 681 46 515 b 372 -14 46 110 188 -14 z m 432 78 b 229 396 313 78 229 233 b 367 589 229 494 267 589 b 568 257 486 589 568 418 b 432 78 568 161 526 78 z "},"ø":{"ha":800,"x_min":0,"x_max":0,"o":"m 706 774 b 713 796 710 782 713 789 b 676 825 713 815 694 825 b 632 799 660 825 643 819 l 551 660 b 429 681 514 674 474 681 b 46 307 208 681 46 515 b 190 33 46 182 103 88 l 107 -111 b 99 -135 103 -119 99 -128 b 135 -164 99 -153 115 -164 b 182 -133 151 -164 169 -157 l 261 3 b 372 -14 294 -8 333 -14 b 753 354 593 -14 753 144 b 619 624 753 468 703 565 z m 229 396 b 367 589 229 494 267 589 b 478 532 410 589 447 567 l 279 188 b 229 396 247 244 229 319 z m 432 78 b 329 121 393 78 358 94 l 525 460 b 568 257 553 400 568 328 b 432 78 568 161 526 78 z "},"õ":{"ha":800,"x_min":0,"x_max":0,"o":"m 511 742 b 619 839 586 742 619 792 b 568 886 619 901 568 921 b 519 844 568 854 549 844 b 285 903 474 844 365 903 b 176 806 210 903 176 854 b 228 760 176 744 228 724 b 276 800 228 790 249 800 b 511 742 356 800 440 742 z m 372 -14 b 753 354 593 -14 753 144 b 429 681 753 539 621 681 b 46 307 208 681 46 515 b 372 -14 46 110 188 -14 z m 432 78 b 229 396 313 78 229 233 b 367 589 229 494 267 589 b 568 257 486 589 568 418 b 432 78 568 161 526 78 z "},"œ":{"ha":1258,"x_min":0,"x_max":0,"o":"m 1175 213 b 972 121 1125 164 1057 121 b 772 247 865 121 801 183 b 1172 407 918 300 1031 343 b 1203 461 1197 419 1207 439 b 921 681 1183 581 1088 681 b 651 558 815 681 718 635 b 396 682 599 631 513 682 b 46 329 196 682 46 519 b 389 -15 46 124 193 -15 b 635 99 489 -15 575 28 b 893 -14 692 29 782 -14 b 1219 178 1078 -14 1192 100 b 1175 213 1233 218 1204 240 z m 431 74 b 233 410 310 74 233 239 b 376 600 233 528 290 603 b 564 260 494 594 564 421 b 431 74 564 171 533 74 z m 861 589 b 1015 471 928 601 994 551 b 983 414 1025 435 1006 425 b 749 326 908 382 829 354 b 736 414 740 350 736 383 b 861 589 736 503 779 579 z "},"p":{"ha":839,"x_min":0,"x_max":0,"o":"m 511 681 b 278 558 396 681 322 624 l 278 639 b 244 681 278 668 268 681 b 85 631 224 681 138 654 b 40 583 51 615 40 606 b 67 543 40 564 54 554 b 110 460 94 524 110 499 l 110 -85 b 42 -243 110 -214 42 -182 b 106 -278 42 -269 65 -278 l 304 -278 b 365 -243 342 -278 365 -271 b 297 -85 365 -182 297 -214 l 297 43 b 486 -14 346 13 413 -14 b 793 357 632 -14 793 111 b 511 681 793 558 668 681 z m 474 72 b 299 288 389 72 300 151 l 297 378 l 297 382 b 442 567 297 482 354 567 b 611 279 543 567 611 444 b 474 72 611 179 572 74 z "},"þ":{"ha":842,"x_min":0,"x_max":0,"o":"m 511 681 b 297 585 413 681 343 639 l 297 756 l 299 946 b 265 988 299 975 289 988 b 86 926 243 988 144 954 b 43 883 53 911 43 901 b 108 756 43 842 108 851 l 110 -85 b 40 -242 110 -214 40 -182 b 104 -276 40 -269 65 -276 l 304 -276 b 364 -243 342 -276 364 -271 b 297 -85 364 -182 297 -214 l 297 43 b 486 -14 346 13 413 -14 b 793 357 632 -14 793 111 b 511 681 793 558 668 681 z m 474 72 b 299 288 389 72 300 151 l 297 378 l 297 385 b 442 567 299 483 356 567 b 611 279 543 567 611 444 b 474 72 611 179 572 74 z "},"q":{"ha":825,"x_min":0,"x_max":0,"o":"m 728 638 b 692 681 728 664 721 681 b 589 643 656 681 636 643 b 393 681 547 643 500 681 b 46 292 226 681 46 532 b 336 -14 46 113 161 -14 b 542 94 428 -12 496 32 l 542 -86 b 447 -243 542 -229 447 -182 b 507 -278 447 -271 469 -278 l 733 -278 b 797 -243 772 -278 797 -269 b 728 -86 797 -190 728 -214 z m 410 104 b 225 381 310 104 225 218 b 372 593 225 510 278 593 b 515 497 433 593 485 561 b 542 310 536 453 542 381 b 410 104 542 200 500 104 z "},"r":{"ha":644,"x_min":0,"x_max":0,"o":"m 478 681 b 286 556 411 681 338 640 l 286 638 b 253 679 286 665 276 679 b 93 628 231 678 144 653 b 49 581 60 613 49 603 b 75 542 49 561 61 551 b 118 457 103 521 118 496 l 118 193 b 49 36 118 64 49 96 b 113 0 49 8 74 0 l 311 0 b 372 35 350 0 372 7 b 306 193 372 96 306 64 l 306 381 b 401 540 306 482 351 540 b 533 468 468 540 465 468 b 601 561 572 469 601 506 b 478 681 601 629 557 681 z "},"ŕ":{"ha":644,"x_min":0,"x_max":0,"o":"m 275 774 b 526 874 343 749 501 801 b 485 971 543 919 522 957 b 358 915 446 985 404 954 b 257 804 310 872 265 826 b 275 774 253 792 257 781 z m 478 681 b 286 556 411 681 338 640 l 286 638 b 253 679 286 665 276 679 b 93 628 231 678 144 653 b 49 581 60 613 49 603 b 75 542 49 561 61 551 b 118 457 103 521 118 496 l 118 193 b 49 36 118 64 49 96 b 113 0 49 8 74 0 l 311 0 b 372 35 350 0 372 7 b 306 193 372 96 306 64 l 306 381 b 401 540 306 482 351 540 b 533 468 468 540 465 468 b 601 561 572 469 601 506 b 478 681 601 629 557 681 z "},"ř":{"ha":644,"x_min":0,"x_max":0,"o":"m 379 794 b 493 878 442 794 444 810 b 563 993 526 924 563 974 b 540 1014 563 1006 557 1014 b 381 914 499 1015 429 961 b 221 1014 331 961 263 1015 b 197 993 204 1014 197 1006 b 264 883 199 974 229 928 b 379 794 313 817 328 794 z m 478 681 b 286 556 411 681 338 640 l 286 638 b 253 679 286 665 276 679 b 93 628 231 678 144 653 b 49 581 60 613 49 603 b 75 542 49 561 61 551 b 118 457 103 521 118 496 l 118 193 b 49 36 118 64 49 96 b 113 0 49 8 74 0 l 311 0 b 372 35 350 0 372 7 b 306 193 372 96 306 64 l 306 381 b 401 540 306 482 351 540 b 533 468 468 540 465 468 b 601 561 572 469 601 506 b 478 681 601 629 557 681 z "},"s":{"ha":707,"x_min":0,"x_max":0,"o":"m 157 -14 b 211 14 183 -14 190 14 b 399 -14 240 14 289 -14 b 660 189 544 -14 660 68 b 418 410 660 289 565 344 b 246 536 304 458 246 488 b 331 600 246 569 274 600 b 517 521 392 600 463 560 b 611 478 561 489 585 464 b 621 543 629 486 635 506 b 582 626 608 572 600 592 b 528 681 560 665 550 681 b 469 661 503 681 499 661 b 304 681 429 663 382 681 b 72 486 196 681 72 619 b 281 271 72 371 174 317 b 474 132 401 219 474 182 b 393 65 474 92 440 65 b 143 206 311 65 233 117 b 71 239 113 233 90 249 b 53 185 54 231 46 215 b 104 42 65 138 81 99 b 157 -14 122 -3 132 -14 z "},"":{"ha":707,"x_min":0,"x_max":0,"o":"m 157 -14 b 211 14 183 -14 190 14 b 399 -14 240 14 289 -14 b 660 189 544 -14 660 68 b 418 410 660 289 565 344 b 246 536 304 458 246 488 b 331 600 246 569 274 600 b 517 521 392 600 463 560 b 611 478 561 489 585 464 b 621 543 629 486 635 506 b 582 626 608 572 600 592 b 528 681 560 665 550 681 b 469 661 503 681 499 661 b 304 681 429 663 382 681 b 72 486 196 681 72 619 b 281 271 72 371 174 317 b 474 132 401 219 474 182 b 393 65 474 92 440 65 b 143 206 311 65 233 117 b 71 239 113 233 90 249 b 53 185 54 231 46 215 b 104 42 65 138 81 99 b 157 -14 122 -3 132 -14 z "},"ś":{"ha":707,"x_min":0,"x_max":0,"o":"m 243 769 b 494 869 311 744 469 797 b 453 967 511 915 490 953 b 326 911 414 981 372 950 b 225 800 278 868 233 822 b 243 769 221 788 225 776 z m 157 -14 b 211 14 183 -14 190 14 b 399 -14 240 14 289 -14 b 660 189 544 -14 660 68 b 418 410 660 289 565 344 b 246 536 304 458 246 488 b 331 600 246 569 274 600 b 517 521 392 600 463 560 b 611 478 561 489 585 464 b 621 543 629 486 635 506 b 582 626 608 572 600 592 b 528 681 560 665 550 681 b 469 661 503 681 499 661 b 304 681 429 663 382 681 b 72 486 196 681 72 619 b 281 271 72 371 174 317 b 474 132 401 219 474 182 b 393 65 474 92 440 65 b 143 206 311 65 233 117 b 71 239 113 233 90 249 b 53 185 54 231 46 215 b 104 42 65 138 81 99 b 157 -14 122 -3 132 -14 z "},"š":{"ha":707,"x_min":0,"x_max":0,"o":"m 189 1010 b 165 989 172 1010 165 1001 b 232 879 167 969 197 924 b 347 790 281 813 296 790 b 461 874 410 790 413 806 b 531 989 494 919 531 969 b 508 1010 531 1001 525 1010 b 349 910 467 1011 397 957 b 189 1010 299 957 231 1011 z m 157 -14 b 211 14 183 -14 190 14 b 399 -14 240 14 289 -14 b 660 189 544 -14 660 68 b 418 410 660 289 565 344 b 246 536 304 458 246 488 b 331 600 246 569 274 600 b 517 521 392 600 463 560 b 611 478 561 489 585 464 b 621 543 629 486 635 506 b 582 626 608 572 600 592 b 528 681 560 665 550 681 b 469 661 503 681 499 661 b 304 681 429 663 382 681 b 72 486 196 681 72 619 b 281 271 72 371 174 317 b 474 132 401 219 474 182 b 393 65 474 92 440 65 b 143 206 311 65 233 117 b 71 239 113 233 90 249 b 53 185 54 231 46 215 b 104 42 65 138 81 99 b 157 -14 122 -3 132 -14 z "},"ş":{"ha":707,"x_min":0,"x_max":0,"o":"m 399 -14 b 660 189 544 -14 660 68 b 418 410 660 289 565 344 b 246 536 304 458 246 488 b 331 600 246 569 274 600 b 517 521 392 600 463 560 b 611 478 561 489 585 464 b 621 543 629 486 635 506 b 582 626 608 572 600 592 b 528 681 560 665 550 681 b 469 661 503 681 499 661 b 304 681 429 663 382 681 b 72 486 196 681 72 619 b 281 271 72 371 174 317 b 474 132 401 219 474 182 b 393 65 474 92 440 65 b 143 206 311 65 233 117 b 71 239 113 233 90 249 b 53 185 54 231 46 215 b 104 42 65 138 81 99 b 157 -14 122 -3 132 -14 b 211 14 183 -14 190 14 b 306 -6 231 14 257 1 l 258 -93 b 275 -119 251 -107 261 -117 b 367 -189 315 -129 367 -143 b 307 -242 367 -217 346 -242 b 246 -222 282 -242 263 -233 b 215 -250 218 -206 199 -231 b 333 -297 235 -275 274 -297 b 469 -182 410 -297 469 -250 b 340 -71 469 -114 410 -83 l 371 -14 z "},"ß":{"ha":899,"x_min":0,"x_max":0,"o":"m 603 -15 b 865 215 763 -15 865 85 b 676 449 865 331 769 396 b 507 581 551 521 507 543 b 626 822 507 644 626 708 b 422 988 626 921 549 988 b 118 663 235 988 118 851 l 118 168 b 50 31 118 79 50 76 b 114 0 50 7 71 0 l 290 0 b 344 32 325 0 344 8 b 304 165 344 75 304 78 l 306 667 b 396 903 306 781 301 903 b 474 800 456 903 474 847 b 404 485 474 699 404 574 b 567 293 404 382 479 346 b 708 140 658 239 708 199 b 633 68 708 99 681 68 b 440 192 542 68 475 144 b 399 229 425 211 415 229 b 368 168 378 229 368 203 b 403 54 368 128 379 82 b 603 -15 446 4 544 -15 z "},"t":{"ha":538,"x_min":0,"x_max":0,"o":"m 469 157 b 369 117 440 135 406 117 b 289 278 307 117 288 154 b 290 575 290 404 290 499 l 410 571 b 469 618 438 569 461 576 b 429 667 478 660 456 667 l 292 667 b 299 785 293 710 294 747 b 268 824 300 806 288 824 b 217 804 260 824 249 822 b 42 663 160 769 93 715 b 21 615 26 649 21 632 b 69 579 21 592 32 579 l 107 579 b 103 278 104 507 103 401 l 103 206 b 300 -14 103 64 175 -14 b 510 128 417 -14 489 65 b 469 157 519 157 496 176 z "},"ŧ":{"ha":538,"x_min":0,"x_max":0,"o":"m 469 157 b 369 117 440 135 406 117 b 289 278 307 117 288 154 b 290 382 289 315 289 350 l 369 382 b 404 422 393 382 404 396 b 369 460 404 447 393 460 l 290 460 l 290 575 l 410 571 b 469 618 438 569 461 576 b 429 667 478 660 456 667 l 292 667 b 299 785 293 710 294 747 b 268 824 300 806 288 824 b 217 804 260 824 249 822 b 42 663 160 769 93 715 b 21 615 26 649 21 632 b 69 579 21 592 32 579 l 107 579 b 104 460 106 546 104 506 l 58 460 b 24 422 35 460 24 447 b 58 382 24 396 35 382 l 103 382 l 103 206 b 300 -14 103 64 175 -14 b 510 128 417 -14 489 65 b 469 157 519 157 496 176 z "},"ť":{"ha":538,"x_min":0,"x_max":0,"o":"m 415 740 b 549 992 463 740 549 922 b 481 1067 549 1038 522 1067 b 411 990 444 1067 418 1043 b 392 771 408 969 397 831 b 415 740 389 751 399 740 z m 469 157 b 369 117 440 135 406 117 b 289 278 307 117 288 154 b 290 575 290 404 290 499 l 410 571 b 469 618 438 569 461 576 b 429 667 478 660 456 667 l 292 667 b 299 785 293 710 294 747 b 268 824 300 806 288 824 b 217 804 260 824 249 822 b 42 663 160 769 93 715 b 21 615 26 649 21 632 b 69 579 21 592 32 579 l 107 579 b 103 278 104 507 103 401 l 103 206 b 300 -14 103 64 175 -14 b 510 128 417 -14 489 65 b 469 157 519 157 496 176 z "},"u":{"ha":838,"x_min":0,"x_max":0,"o":"m 754 639 b 722 681 754 668 744 681 b 542 619 700 681 600 647 b 499 576 508 604 499 594 b 565 449 499 535 565 544 l 565 303 b 415 106 565 185 489 107 b 303 276 332 104 303 171 l 303 449 l 304 639 b 272 681 304 668 294 681 b 92 619 250 681 150 647 b 49 576 58 604 49 594 b 115 449 49 535 115 544 l 115 267 b 350 -12 115 89 200 -12 b 571 106 425 -12 514 29 l 572 68 b 631 -12 575 10 592 -12 b 789 36 669 -12 747 14 b 833 88 819 53 833 68 b 753 207 833 128 753 106 l 753 449 z "},"ú":{"ha":838,"x_min":0,"x_max":0,"o":"m 392 769 b 643 869 460 744 618 797 b 601 967 660 915 639 953 b 475 911 563 981 521 950 b 374 800 426 868 382 822 b 392 769 369 788 374 776 z m 754 639 b 722 681 754 668 744 681 b 542 619 700 681 600 647 b 499 576 508 604 499 594 b 565 449 499 535 565 544 l 565 303 b 415 106 565 185 489 107 b 303 276 332 104 303 171 l 303 449 l 304 639 b 272 681 304 668 294 681 b 92 619 250 681 150 647 b 49 576 58 604 49 594 b 115 449 49 535 115 544 l 115 267 b 350 -12 115 89 200 -12 b 571 106 425 -12 514 29 l 572 68 b 631 -12 575 10 592 -12 b 789 36 669 -12 747 14 b 833 88 819 53 833 68 b 753 207 833 128 753 106 l 753 449 z "},"û":{"ha":838,"x_min":0,"x_max":0,"o":"m 338 746 b 497 847 379 744 447 799 b 657 746 546 799 615 744 b 679 767 674 746 679 754 b 610 882 679 786 643 836 b 496 965 561 950 558 965 b 381 876 444 965 429 943 b 314 767 346 832 315 786 b 338 746 314 754 321 746 z m 754 639 b 722 681 754 668 744 681 b 542 619 700 681 600 647 b 499 576 508 604 499 594 b 565 449 499 535 565 544 l 565 303 b 415 106 565 185 489 107 b 303 276 332 104 303 171 l 303 449 l 304 639 b 272 681 304 668 294 681 b 92 619 250 681 150 647 b 49 576 58 604 49 594 b 115 449 49 535 115 544 l 115 267 b 350 -12 115 89 200 -12 b 571 106 425 -12 514 29 l 572 68 b 631 -12 575 10 592 -12 b 789 36 669 -12 747 14 b 833 88 819 53 833 68 b 753 207 833 128 753 106 l 753 449 z "},"ü":{"ha":838,"x_min":0,"x_max":0,"o":"m 365 769 b 471 864 421 769 471 810 b 393 940 471 910 439 940 b 294 838 336 940 294 889 b 365 769 294 796 326 769 z m 594 769 b 699 864 649 769 699 810 b 619 940 699 910 667 940 b 521 838 565 940 521 889 b 594 769 521 796 553 769 z m 754 639 b 722 681 754 668 744 681 b 542 619 700 681 600 647 b 499 576 508 604 499 594 b 565 449 499 535 565 544 l 565 303 b 415 106 565 185 489 107 b 303 276 332 104 303 171 l 303 449 l 304 639 b 272 681 304 668 294 681 b 92 619 250 681 150 647 b 49 576 58 604 49 594 b 115 449 49 535 115 544 l 115 267 b 350 -12 115 89 200 -12 b 571 106 425 -12 514 29 l 572 68 b 631 -12 575 10 592 -12 b 789 36 669 -12 747 14 b 833 88 819 53 833 68 b 753 207 833 128 753 106 l 753 449 z "},"ù":{"ha":838,"x_min":0,"x_max":0,"o":"m 607 769 b 625 800 625 776 629 788 b 525 911 617 822 572 868 b 399 967 478 950 436 981 b 356 869 360 953 339 915 b 607 769 381 797 539 744 z m 754 639 b 722 681 754 668 744 681 b 542 619 700 681 600 647 b 499 576 508 604 499 594 b 565 449 499 535 565 544 l 565 303 b 415 106 565 185 489 107 b 303 276 332 104 303 171 l 303 449 l 304 639 b 272 681 304 668 294 681 b 92 619 250 681 150 647 b 49 576 58 604 49 594 b 115 449 49 535 115 544 l 115 267 b 350 -12 115 89 200 -12 b 571 106 425 -12 514 29 l 572 68 b 631 -12 575 10 592 -12 b 789 36 669 -12 747 14 b 833 88 819 53 833 68 b 753 207 833 128 753 106 l 753 449 z "},"ű":{"ha":838,"x_min":0,"x_max":0,"o":"m 353 747 b 532 906 418 747 532 839 b 465 972 532 949 501 972 b 379 889 432 972 406 936 b 329 767 353 838 329 786 b 353 747 329 754 338 747 z m 569 746 b 751 899 635 746 751 833 b 689 965 751 942 722 965 b 600 886 654 965 629 931 b 543 765 569 836 543 783 b 569 746 542 754 551 746 z m 754 639 b 722 681 754 668 744 681 b 542 619 700 681 600 647 b 499 576 508 604 499 594 b 565 449 499 535 565 544 l 565 303 b 415 106 565 185 489 107 b 303 276 332 104 303 171 l 303 449 l 304 639 b 272 681 304 668 294 681 b 92 619 250 681 150 647 b 49 576 58 604 49 594 b 115 449 49 535 115 544 l 115 267 b 350 -12 115 89 200 -12 b 571 106 425 -12 514 29 l 572 68 b 631 -12 575 10 592 -12 b 789 36 669 -12 747 14 b 833 88 819 53 833 68 b 753 207 833 128 753 106 l 753 449 z "},"ū":{"ha":838,"x_min":0,"x_max":0,"o":"m 626 767 b 696 815 686 767 692 774 b 640 857 701 849 694 857 l 326 857 b 261 808 274 857 268 849 b 313 767 257 774 263 767 z m 754 639 b 722 681 754 668 744 681 b 542 619 700 681 600 647 b 499 576 508 604 499 594 b 565 449 499 535 565 544 l 565 303 b 415 106 565 185 489 107 b 303 276 332 104 303 171 l 303 449 l 304 639 b 272 681 304 668 294 681 b 92 619 250 681 150 647 b 49 576 58 604 49 594 b 115 449 49 535 115 544 l 115 267 b 350 -12 115 89 200 -12 b 571 106 425 -12 514 29 l 572 68 b 631 -12 575 10 592 -12 b 789 36 669 -12 747 14 b 833 88 819 53 833 68 b 753 207 833 128 753 106 l 753 449 z "},"ģ":{"ha":792,"x_min":0,"x_max":0,"o":"m 408 747 b 490 831 451 747 490 782 b 426 954 490 903 426 911 b 475 1040 426 997 475 1022 b 454 1058 475 1050 467 1058 b 317 854 404 1058 317 974 b 408 747 317 778 358 747 z m 576 117 b 326 103 517 117 406 103 b 204 164 260 103 204 117 b 231 210 204 182 215 199 b 369 192 271 197 318 190 b 685 451 557 196 685 304 b 608 617 685 519 657 576 b 740 725 672 626 740 663 b 683 783 740 760 714 783 b 625 750 658 783 640 769 b 500 676 576 692 531 676 b 424 681 472 676 457 679 l 394 681 b 69 411 208 676 69 557 b 165 240 69 338 106 279 b 57 110 89 207 57 161 b 143 -12 57 53 93 13 b 56 -125 86 -35 56 -82 b 371 -293 56 -244 222 -293 b 775 -47 614 -293 775 -196 b 576 117 775 47 706 117 z m 364 606 b 503 406 457 606 501 499 b 393 265 503 321 458 265 b 250 468 299 265 250 363 b 364 606 250 549 297 606 z m 408 -211 b 210 -117 288 -211 210 -179 b 294 -53 210 -69 253 -51 b 517 -46 379 -54 442 -46 b 607 -108 586 -42 607 -75 b 408 -211 607 -171 542 -211 z "},"ķ":{"ha":861,"x_min":0,"x_max":0,"o":"m 624 532 b 763 636 696 608 763 594 b 710 667 763 657 743 667 l 543 667 b 488 636 506 667 488 658 b 517 538 488 594 571 594 l 307 314 l 307 754 l 308 944 b 275 986 308 974 299 986 b 96 925 253 986 153 953 b 51 882 63 910 51 900 b 118 754 51 840 118 850 l 119 193 b 50 36 119 64 50 96 b 114 0 50 8 75 0 l 313 0 b 374 35 351 0 374 7 b 307 192 374 96 307 64 l 454 350 l 554 131 b 514 32 582 69 514 75 b 576 0 514 8 535 0 l 769 0 b 833 31 813 0 833 7 b 739 144 833 76 767 78 l 585 490 z m 450 -68 b 368 -151 407 -68 368 -103 b 432 -275 368 -224 432 -232 b 383 -361 432 -318 383 -343 b 404 -379 383 -371 392 -379 b 542 -175 454 -379 542 -294 b 450 -68 542 -99 500 -68 z "},"ļ":{"ha":422,"x_min":0,"x_max":0,"o":"m 119 193 b 50 36 119 64 50 96 b 114 0 50 8 75 0 l 313 0 b 374 35 351 0 374 7 b 307 193 374 96 307 64 l 307 754 l 308 944 b 275 986 308 974 299 986 b 96 925 253 986 153 953 b 51 882 63 910 51 900 b 118 754 51 840 118 850 z m 158 -379 b 296 -175 208 -379 296 -294 b 204 -68 296 -99 254 -68 b 122 -151 161 -68 122 -103 b 186 -275 122 -224 186 -232 b 138 -361 186 -318 138 -343 b 158 -379 138 -371 146 -379 z "},"ņ":{"ha":893,"x_min":0,"x_max":0,"o":"m 767 394 b 513 681 731 578 671 681 b 286 554 424 681 339 638 l 286 638 b 253 679 286 665 276 679 b 93 628 231 678 144 653 b 49 581 60 613 49 603 b 75 542 49 561 61 551 b 118 457 103 521 118 496 l 118 193 b 49 36 118 64 49 96 b 113 0 49 8 74 0 l 311 0 b 372 35 350 0 372 7 b 306 193 372 96 306 64 l 306 371 b 446 560 306 493 372 560 b 581 388 538 561 564 475 l 624 168 b 569 36 642 78 569 82 b 632 0 569 8 593 0 l 826 0 b 888 35 864 0 888 7 b 814 157 888 83 832 72 z m 428 -68 b 346 -151 385 -68 346 -103 b 410 -275 346 -224 410 -232 b 361 -361 410 -318 361 -343 b 382 -379 361 -371 369 -379 b 519 -175 432 -379 519 -294 b 428 -68 519 -99 478 -68 z "},"ŗ":{"ha":644,"x_min":0,"x_max":0,"o":"m 478 681 b 286 556 411 681 338 640 l 286 638 b 253 679 286 665 276 679 b 93 628 231 678 144 653 b 49 581 60 613 49 603 b 75 542 49 561 61 551 b 118 457 103 521 118 496 l 118 193 b 49 36 118 64 49 96 b 113 0 49 8 74 0 l 311 0 b 372 35 350 0 372 7 b 306 193 372 96 306 64 l 306 381 b 401 540 306 482 351 540 b 533 468 468 540 465 468 b 601 561 572 469 601 506 b 478 681 601 629 557 681 z m 193 -68 b 111 -151 150 -68 111 -103 b 175 -275 111 -224 175 -232 b 126 -361 175 -318 126 -343 b 147 -379 126 -371 135 -379 b 285 -175 197 -379 285 -294 b 193 -68 285 -99 243 -68 z "},"ţ":{"ha":538,"x_min":0,"x_max":0,"o":"m 469 157 b 369 117 440 135 406 117 b 289 278 307 117 288 154 b 290 575 290 404 290 499 l 410 571 b 469 618 438 569 461 576 b 429 667 478 660 456 667 l 292 667 b 299 785 293 710 294 747 b 268 824 300 806 288 824 b 217 804 260 824 249 822 b 42 663 160 769 93 715 b 21 615 26 649 21 632 b 69 579 21 592 32 579 l 107 579 b 103 278 104 507 103 401 l 103 206 b 222 -1 103 96 146 25 l 174 -93 b 190 -119 167 -107 176 -117 b 282 -189 231 -129 282 -143 b 222 -242 282 -217 261 -242 b 161 -222 197 -242 178 -233 b 131 -250 133 -206 114 -231 b 249 -297 150 -275 189 -297 b 385 -182 325 -297 385 -250 b 256 -71 385 -114 325 -83 l 286 -14 l 300 -14 b 510 128 417 -14 489 65 b 469 157 519 157 496 176 z "},"ș":{"ha":707,"x_min":0,"x_max":0,"o":"m 157 -14 b 211 14 183 -14 190 14 b 399 -14 240 14 289 -14 b 660 189 544 -14 660 68 b 418 410 660 289 565 344 b 246 536 304 458 246 488 b 331 600 246 569 274 600 b 517 521 392 600 463 560 b 611 478 561 489 585 464 b 621 543 629 486 635 506 b 582 626 608 572 600 592 b 528 681 560 665 550 681 b 469 661 503 681 499 661 b 304 681 429 663 382 681 b 72 486 196 681 72 619 b 281 271 72 371 174 317 b 474 132 401 219 474 182 b 393 65 474 92 440 65 b 143 206 311 65 233 117 b 71 239 113 233 90 249 b 53 185 54 231 46 215 b 104 42 65 138 81 99 b 157 -14 122 -3 132 -14 z m 282 -379 b 419 -175 332 -379 419 -294 b 328 -68 419 -99 378 -68 b 246 -151 285 -68 246 -103 b 310 -275 246 -224 310 -232 b 261 -361 310 -318 261 -343 b 282 -379 261 -371 269 -379 z "},"ț":{"ha":538,"x_min":0,"x_max":0,"o":"m 469 157 b 369 117 440 135 406 117 b 289 278 307 117 288 154 b 290 575 290 404 290 499 l 410 571 b 469 618 438 569 461 576 b 429 667 478 660 456 667 l 292 667 b 299 785 293 710 294 747 b 268 824 300 806 288 824 b 217 804 260 824 249 822 b 42 663 160 769 93 715 b 21 615 26 649 21 632 b 69 579 21 592 32 579 l 107 579 b 103 278 104 507 103 401 l 103 206 b 300 -14 103 64 175 -14 b 510 128 417 -14 489 65 b 469 157 519 157 496 176 z m 243 -68 b 161 -151 200 -68 161 -103 b 225 -275 161 -224 225 -232 b 176 -361 225 -318 176 -343 b 197 -379 176 -371 185 -379 b 335 -175 247 -379 335 -294 b 243 -68 335 -99 293 -68 z "},"ų":{"ha":838,"x_min":0,"x_max":0,"o":"m 839 -151 b 788 -164 821 -160 803 -164 b 717 -94 740 -164 717 -133 b 776 31 717 -61 733 -21 b 789 36 781 32 785 35 b 833 88 819 53 833 68 b 753 207 833 128 753 106 l 753 449 l 754 639 b 722 681 754 668 744 681 b 542 619 700 681 600 647 b 499 576 508 604 499 594 b 565 449 499 535 565 544 l 565 303 b 415 106 565 185 489 107 b 303 276 332 104 303 171 l 303 449 l 304 639 b 272 681 304 668 294 681 b 92 619 250 681 150 647 b 49 576 58 604 49 594 b 115 449 49 535 115 544 l 115 267 b 350 -12 115 89 200 -12 b 571 106 425 -12 514 29 l 572 68 b 631 -12 575 10 592 -12 b 656 -10 638 -12 646 -11 b 603 -118 621 -43 603 -81 b 742 -236 603 -189 661 -236 b 863 -187 788 -236 835 -217 b 839 -151 883 -167 874 -135 z "},"ů":{"ha":838,"x_min":0,"x_max":0,"o":"m 481 725 b 632 868 564 725 632 781 b 486 1007 632 953 568 1007 b 335 864 401 1007 335 950 b 481 725 335 781 397 725 z m 481 935 b 546 871 517 935 542 908 b 486 800 549 832 526 800 b 419 867 450 800 424 828 b 481 935 417 907 440 935 z m 754 639 b 722 681 754 668 744 681 b 542 619 700 681 600 647 b 499 576 508 604 499 594 b 565 449 499 535 565 544 l 565 303 b 415 106 565 185 489 107 b 303 276 332 104 303 171 l 303 449 l 304 639 b 272 681 304 668 294 681 b 92 619 250 681 150 647 b 49 576 58 604 49 594 b 115 449 49 535 115 544 l 115 267 b 350 -12 115 89 200 -12 b 571 106 425 -12 514 29 l 572 68 b 631 -12 575 10 592 -12 b 789 36 669 -12 747 14 b 833 88 819 53 833 68 b 753 207 833 128 753 106 l 753 449 z "},"v":{"ha":769,"x_min":0,"x_max":0,"o":"m 596 667 b 535 632 557 667 535 660 b 567 485 535 579 608 599 l 443 156 l 315 485 b 350 632 271 599 350 579 b 288 667 350 658 326 667 l 76 667 b 15 632 39 667 15 660 b 117 486 15 579 72 599 l 297 28 b 404 -1 310 -7 329 -19 b 494 61 474 14 482 28 l 654 485 b 756 632 697 599 756 579 b 692 667 756 658 732 667 z "},"w":{"ha":1199,"x_min":0,"x_max":0,"o":"m 1022 668 b 963 633 985 668 963 661 b 990 488 963 581 1038 600 l 872 213 l 707 646 b 635 668 699 669 682 679 b 583 628 599 660 590 646 l 428 214 l 318 486 b 353 632 272 600 353 581 b 289 668 353 660 328 668 l 76 668 b 15 633 39 668 15 661 b 117 486 15 581 72 600 l 304 19 b 385 -1 314 -4 332 -14 b 451 42 424 8 444 24 l 593 419 l 742 19 b 817 -1 750 -4 768 -10 b 888 42 869 8 879 24 l 1079 488 b 1183 632 1128 600 1183 581 b 1121 668 1183 660 1160 668 z "},"":{"ha":1199,"x_min":0,"x_max":0,"o":"m 1022 668 b 963 633 985 668 963 661 b 990 488 963 581 1038 600 l 872 213 l 707 646 b 635 668 699 669 682 679 b 583 628 599 660 590 646 l 428 214 l 318 486 b 353 632 272 600 353 581 b 289 668 353 660 328 668 l 76 668 b 15 633 39 668 15 661 b 117 486 15 581 72 600 l 304 19 b 385 -1 314 -4 332 -14 b 451 42 424 8 444 24 l 593 419 l 742 19 b 817 -1 750 -4 768 -10 b 888 42 869 8 879 24 l 1079 488 b 1183 632 1128 600 1183 581 b 1121 668 1183 660 1160 668 z "},"ẃ":{"ha":1199,"x_min":0,"x_max":0,"o":"m 586 769 b 838 869 654 744 813 797 b 796 967 854 915 833 953 b 669 911 757 981 715 950 b 568 800 621 868 576 822 b 586 769 564 788 568 776 z m 1022 668 b 963 633 985 668 963 661 b 990 488 963 581 1038 600 l 872 213 l 707 646 b 635 668 699 669 682 679 b 583 628 599 660 590 646 l 428 214 l 318 486 b 353 632 272 600 353 581 b 289 668 353 660 328 668 l 76 668 b 15 633 39 668 15 661 b 117 486 15 581 72 600 l 304 19 b 385 -1 314 -4 332 -14 b 451 42 424 8 444 24 l 593 419 l 742 19 b 817 -1 750 -4 768 -10 b 888 42 869 8 879 24 l 1079 488 b 1183 632 1128 600 1183 581 b 1121 668 1183 660 1160 668 z "},"ŵ":{"ha":1199,"x_min":0,"x_max":0,"o":"m 532 746 b 692 847 574 744 642 799 b 851 746 740 799 810 744 b 874 767 868 746 874 754 b 804 882 874 786 838 836 b 690 965 756 950 753 965 b 575 876 639 965 624 943 b 508 767 540 832 510 786 b 532 746 508 754 515 746 z m 1022 668 b 963 633 985 668 963 661 b 990 488 963 581 1038 600 l 872 213 l 707 646 b 635 668 699 669 682 679 b 583 628 599 660 590 646 l 428 214 l 318 486 b 353 632 272 600 353 581 b 289 668 353 660 328 668 l 76 668 b 15 633 39 668 15 661 b 117 486 15 581 72 600 l 304 19 b 385 -1 314 -4 332 -14 b 451 42 424 8 444 24 l 593 419 l 742 19 b 817 -1 750 -4 768 -10 b 888 42 869 8 879 24 l 1079 488 b 1183 632 1128 600 1183 581 b 1121 668 1183 660 1160 668 z "},"ẅ":{"ha":1199,"x_min":0,"x_max":0,"o":"m 560 769 b 665 864 615 769 665 810 b 588 940 665 910 633 940 b 489 838 531 940 489 889 b 560 769 489 796 521 769 z m 789 769 b 893 864 843 769 893 810 b 814 940 893 910 861 940 b 715 838 760 940 715 889 b 789 769 715 796 747 769 z m 1022 668 b 963 633 985 668 963 661 b 990 488 963 581 1038 600 l 872 213 l 707 646 b 635 668 699 669 682 679 b 583 628 599 660 590 646 l 428 214 l 318 486 b 353 632 272 600 353 581 b 289 668 353 660 328 668 l 76 668 b 15 633 39 668 15 661 b 117 486 15 581 72 600 l 304 19 b 385 -1 314 -4 332 -14 b 451 42 424 8 444 24 l 593 419 l 742 19 b 817 -1 750 -4 768 -10 b 888 42 869 8 879 24 l 1079 488 b 1183 632 1128 600 1183 581 b 1121 668 1183 660 1160 668 z "},"ẁ":{"ha":1199,"x_min":0,"x_max":0,"o":"m 801 769 b 819 800 819 776 824 788 b 719 911 811 822 767 868 b 593 967 672 950 631 981 b 550 869 554 953 533 915 b 801 769 575 797 733 744 z m 1022 668 b 963 633 985 668 963 661 b 990 488 963 581 1038 600 l 872 213 l 707 646 b 635 668 699 669 682 679 b 583 628 599 660 590 646 l 428 214 l 318 486 b 353 632 272 600 353 581 b 289 668 353 660 328 668 l 76 668 b 15 633 39 668 15 661 b 117 486 15 581 72 600 l 304 19 b 385 -1 314 -4 332 -14 b 451 42 424 8 444 24 l 593 419 l 742 19 b 817 -1 750 -4 768 -10 b 888 42 869 8 879 24 l 1079 488 b 1183 632 1128 600 1183 581 b 1121 668 1183 660 1160 668 z "},"x":{"ha":807,"x_min":0,"x_max":0,"o":"m 621 500 b 753 632 696 594 753 579 b 689 667 753 658 728 667 l 571 667 b 510 632 533 667 510 660 b 515 500 510 579 592 594 l 457 428 l 404 497 b 414 632 332 594 414 579 b 351 667 414 658 390 667 l 101 667 b 42 632 64 667 42 660 b 171 497 42 579 99 594 l 300 325 l 174 168 b 42 36 97 72 42 88 b 106 0 42 8 65 0 l 224 0 b 283 35 261 0 283 7 b 278 168 283 88 203 72 l 349 260 l 415 169 b 406 36 488 72 406 88 b 469 0 406 8 429 0 l 718 0 b 778 35 756 0 778 7 b 649 169 778 88 721 72 l 507 358 z "},"y":{"ha":797,"x_min":0,"x_max":0,"o":"m 624 667 b 563 632 586 667 563 660 b 593 485 563 579 638 599 l 468 154 l 339 485 b 374 632 294 599 374 579 b 311 667 374 658 350 667 l 100 667 b 39 632 63 667 39 660 b 140 486 39 579 96 599 l 324 24 b 344 -68 336 -7 344 -37 b 267 -192 344 -135 311 -192 b 117 -67 192 -192 197 -67 b 29 -164 61 -68 29 -115 b 196 -292 29 -244 110 -292 b 506 32 368 -292 429 -167 l 682 485 b 783 632 725 599 783 579 b 719 667 783 658 760 667 z "},"":{"ha":797,"x_min":0,"x_max":0,"o":"m 624 667 b 563 632 586 667 563 660 b 593 485 563 579 638 599 l 468 154 l 339 485 b 374 632 294 599 374 579 b 311 667 374 658 350 667 l 100 667 b 39 632 63 667 39 660 b 140 486 39 579 96 599 l 324 24 b 344 -68 336 -7 344 -37 b 267 -192 344 -135 311 -192 b 117 -67 192 -192 197 -67 b 29 -164 61 -68 29 -115 b 196 -292 29 -244 110 -292 b 506 32 368 -292 429 -167 l 682 485 b 783 632 725 599 783 579 b 719 667 783 658 760 667 z "},"ý":{"ha":797,"x_min":0,"x_max":0,"o":"m 329 769 b 581 869 397 744 556 797 b 539 967 597 915 576 953 b 413 911 500 981 458 950 b 311 800 364 868 319 822 b 329 769 307 788 311 776 z m 624 667 b 563 632 586 667 563 660 b 593 485 563 579 638 599 l 468 154 l 339 485 b 374 632 294 599 374 579 b 311 667 374 658 350 667 l 100 667 b 39 632 63 667 39 660 b 140 486 39 579 96 599 l 324 24 b 344 -68 336 -7 344 -37 b 267 -192 344 -135 311 -192 b 117 -67 192 -192 197 -67 b 29 -164 61 -68 29 -115 b 196 -292 29 -244 110 -292 b 506 32 368 -292 429 -167 l 682 485 b 783 632 725 599 783 579 b 719 667 783 658 760 667 z "},"ŷ":{"ha":797,"x_min":0,"x_max":0,"o":"m 275 746 b 435 847 317 744 385 799 b 594 746 483 799 553 744 b 617 767 611 746 617 754 b 547 882 617 786 581 836 b 433 965 499 950 496 965 b 318 876 382 965 367 943 b 251 767 283 832 253 786 b 275 746 251 754 258 746 z m 624 667 b 563 632 586 667 563 660 b 593 485 563 579 638 599 l 468 154 l 339 485 b 374 632 294 599 374 579 b 311 667 374 658 350 667 l 100 667 b 39 632 63 667 39 660 b 140 486 39 579 96 599 l 324 24 b 344 -68 336 -7 344 -37 b 267 -192 344 -135 311 -192 b 117 -67 192 -192 197 -67 b 29 -164 61 -68 29 -115 b 196 -292 29 -244 110 -292 b 506 32 368 -292 429 -167 l 682 485 b 783 632 725 599 783 579 b 719 667 783 658 760 667 z "},"ÿ":{"ha":797,"x_min":0,"x_max":0,"o":"m 303 769 b 408 864 358 769 408 810 b 331 940 408 910 376 940 b 232 838 274 940 232 889 b 303 769 232 796 264 769 z m 532 769 b 636 864 586 769 636 810 b 557 940 636 910 604 940 b 458 838 503 940 458 889 b 532 769 458 796 490 769 z m 624 667 b 563 632 586 667 563 660 b 593 485 563 579 638 599 l 468 154 l 339 485 b 374 632 294 599 374 579 b 311 667 374 658 350 667 l 100 667 b 39 632 63 667 39 660 b 140 486 39 579 96 599 l 324 24 b 344 -68 336 -7 344 -37 b 267 -192 344 -135 311 -192 b 117 -67 192 -192 197 -67 b 29 -164 61 -68 29 -115 b 196 -292 29 -244 110 -292 b 506 32 368 -292 429 -167 l 682 485 b 783 632 725 599 783 579 b 719 667 783 658 760 667 z "},"ỳ":{"ha":797,"x_min":0,"x_max":0,"o":"m 544 769 b 563 800 563 776 567 788 b 463 911 554 822 510 868 b 336 967 415 950 374 981 b 293 869 297 953 276 915 b 544 769 318 797 476 744 z m 624 667 b 563 632 586 667 563 660 b 593 485 563 579 638 599 l 468 154 l 339 485 b 374 632 294 599 374 579 b 311 667 374 658 350 667 l 100 667 b 39 632 63 667 39 660 b 140 486 39 579 96 599 l 324 24 b 344 -68 336 -7 344 -37 b 267 -192 344 -135 311 -192 b 117 -67 192 -192 197 -67 b 29 -164 61 -68 29 -115 b 196 -292 29 -244 110 -292 b 506 32 368 -292 429 -167 l 682 485 b 783 632 725 599 783 579 b 719 667 783 658 760 667 z "},"z":{"ha":725,"x_min":0,"x_max":0,"o":"m 668 236 b 614 204 647 242 629 226 b 417 86 569 140 510 86 l 286 86 l 671 610 b 640 667 694 642 679 667 l 154 667 b 78 611 111 667 94 651 b 38 508 63 576 49 543 b 50 450 32 482 31 458 b 107 472 69 442 89 453 b 318 581 156 526 225 581 l 426 581 l 42 57 b 72 0 18 25 33 0 l 581 0 b 654 65 624 0 642 24 b 681 179 665 101 675 136 b 668 236 685 207 688 229 z "},"ź":{"ha":725,"x_min":0,"x_max":0,"o":"m 303 769 b 554 869 371 744 529 797 b 513 967 571 915 550 953 b 386 911 474 981 432 950 b 285 800 338 868 293 822 b 303 769 281 788 285 776 z m 668 236 b 614 204 647 242 629 226 b 417 86 569 140 510 86 l 286 86 l 671 610 b 640 667 694 642 679 667 l 154 667 b 78 611 111 667 94 651 b 38 508 63 576 49 543 b 50 450 32 482 31 458 b 107 472 69 442 89 453 b 318 581 156 526 225 581 l 426 581 l 42 57 b 72 0 18 25 33 0 l 581 0 b 654 65 624 0 642 24 b 681 179 665 101 675 136 b 668 236 685 207 688 229 z "},"ž":{"ha":725,"x_min":0,"x_max":0,"o":"m 407 790 b 521 874 469 790 472 806 b 590 989 554 919 590 969 b 568 1010 590 1001 585 1010 b 408 910 526 1011 457 957 b 249 1010 358 957 290 1011 b 225 989 232 1010 225 1001 b 292 879 226 969 257 924 b 407 790 340 813 356 790 z m 668 236 b 614 204 647 242 629 226 b 417 86 569 140 510 86 l 286 86 l 671 610 b 640 667 694 642 679 667 l 154 667 b 78 611 111 667 94 651 b 38 508 63 576 49 543 b 50 450 32 482 31 458 b 107 472 69 442 89 453 b 318 581 156 526 225 581 l 426 581 l 42 57 b 72 0 18 25 33 0 l 581 0 b 654 65 624 0 642 24 b 681 179 665 101 675 136 b 668 236 685 207 688 229 z "},"ż":{"ha":725,"x_min":0,"x_max":0,"o":"m 369 757 b 519 886 442 756 517 818 b 432 974 519 933 482 972 b 286 842 361 976 288 906 b 369 757 285 796 317 758 z m 668 236 b 614 204 647 242 629 226 b 417 86 569 140 510 86 l 286 86 l 671 610 b 640 667 694 642 679 667 l 154 667 b 78 611 111 667 94 651 b 38 508 63 576 49 543 b 50 450 32 482 31 458 b 107 472 69 442 89 453 b 318 581 156 526 225 581 l 426 581 l 42 57 b 72 0 18 25 33 0 l 581 0 b 654 65 624 0 642 24 b 681 179 665 101 675 136 b 668 236 685 207 688 229 z "},"ª":{"ha":529,"x_min":0,"x_max":0,"o":"m 499 628 b 457 675 478 626 467 639 l 415 838 b 251 986 396 910 363 986 b 81 906 168 986 103 942 b 103 881 67 885 86 871 b 208 915 133 899 169 915 b 306 818 272 915 290 872 b 236 824 276 822 260 824 b 40 681 114 824 40 764 b 200 554 40 608 103 554 b 351 619 251 554 310 574 b 425 554 364 575 386 554 b 514 614 467 554 514 583 b 499 628 514 624 508 628 z m 246 614 b 153 700 190 614 154 650 b 250 779 151 747 189 779 b 318 750 279 779 313 771 b 336 683 326 721 333 699 b 246 614 343 649 294 614 z "},"º":{"ha":535,"x_min":0,"x_max":0,"o":"m 250 553 b 488 782 388 553 488 651 b 285 986 488 897 406 986 b 46 753 147 986 46 883 b 250 553 46 631 135 553 z m 286 610 b 161 808 213 610 161 707 b 246 929 161 871 185 929 b 372 722 321 929 372 822 b 286 610 372 663 346 610 z "},"А":{"ha":994,"x_min":0,"x_max":0,"o":"m 251 238 b 447 276 267 276 267 276 b 642 233 625 276 625 276 l 663 183 b 613 39 704 74 613 93 b 679 0 613 10 635 0 l 903 0 b 976 40 957 0 976 10 b 874 183 976 92 919 68 l 575 938 b 524 972 565 961 549 972 l 367 972 b 322 935 338 972 322 960 b 369 800 322 882 404 888 l 119 178 b 3 36 78 74 3 88 b 75 1 3 8 31 1 l 199 1 b 263 38 235 1 263 7 b 226 178 263 88 183 69 z m 449 364 b 318 406 301 364 301 364 l 447 733 l 576 401 b 449 364 590 364 590 364 z "},"Б":{"ha":903,"x_min":0,"x_max":0,"o":"m 407 657 b 357 656 389 657 372 657 b 329 683 339 654 329 665 l 329 825 b 453 885 329 865 349 885 l 524 885 b 726 753 615 885 674 840 b 793 713 750 717 767 704 b 814 781 818 719 821 743 b 778 924 804 839 790 886 b 663 972 763 965 742 972 l 119 972 b 42 933 64 972 42 964 b 133 736 42 861 133 917 l 133 236 b 42 39 133 56 42 111 b 119 0 42 8 64 0 l 436 0 b 864 310 715 0 864 106 b 407 657 864 513 690 657 z m 428 85 b 329 129 354 85 329 97 l 329 538 b 375 575 329 567 339 576 b 663 289 528 574 663 463 b 428 85 663 153 571 85 z "},"В":{"ha":903,"x_min":0,"x_max":0,"o":"m 625 582 b 758 761 714 613 760 678 b 403 972 757 915 611 972 l 119 972 b 42 933 64 972 42 964 b 133 736 42 861 133 917 l 133 236 b 42 39 133 56 42 111 b 119 0 42 8 64 0 l 444 0 b 868 317 715 0 868 124 b 625 582 868 449 782 549 z m 329 840 b 388 885 329 876 353 885 b 565 735 496 885 565 818 b 401 617 565 656 513 617 b 329 647 369 617 329 614 z m 442 88 b 329 185 346 88 329 117 l 329 479 b 388 525 329 513 338 525 b 656 281 560 525 656 417 b 442 88 656 147 585 88 z "},"Г":{"ha":797,"x_min":0,"x_max":0,"o":"m 817 781 b 779 924 806 839 793 886 b 664 972 765 965 744 972 l 119 972 b 42 933 64 972 42 964 b 133 736 42 861 133 917 l 133 232 b 42 39 133 67 42 106 b 119 0 42 10 64 0 l 340 0 b 417 39 397 0 417 10 b 329 232 417 106 329 67 l 329 825 b 453 885 329 865 349 885 l 526 885 b 729 753 617 885 675 840 b 796 713 753 717 769 704 b 817 781 821 719 824 743 z "},"Ґ":{"ha":806,"x_min":0,"x_max":0,"o":"m 796 1144 b 729 1104 769 1153 753 1140 b 526 972 675 1018 617 972 l 119 972 b 42 933 64 972 42 964 b 133 736 42 861 133 917 l 133 232 b 42 39 133 67 42 106 b 119 0 42 10 64 0 l 340 0 b 417 39 397 0 417 10 b 329 232 417 106 329 67 l 329 825 b 453 885 329 865 349 885 l 664 885 b 779 933 744 885 765 893 b 817 1076 793 971 806 1018 b 796 1144 824 1114 821 1138 z "},"Д":{"ha":1076,"x_min":0,"x_max":0,"o":"m 1056 -133 b 1035 31 1053 -62 1046 -10 b 931 89 1024 71 1004 89 b 885 149 890 89 885 94 l 885 736 b 975 933 885 917 975 861 b 899 972 975 964 953 972 l 311 972 b 232 931 247 972 232 961 b 324 794 232 872 324 888 b 199 132 324 621 296 353 b 132 88 182 92 175 88 b 33 29 65 88 44 71 b 13 -133 22 -10 15 -62 b 47 -196 11 -171 18 -196 b 108 -144 76 -196 92 -179 b 276 0 156 -54 194 0 l 793 0 b 960 -144 874 0 914 -53 b 1021 -194 978 -178 992 -194 b 1056 -133 1050 -194 1057 -171 z m 297 88 b 428 822 385 349 403 507 b 565 885 431 876 488 885 b 689 825 667 885 689 865 l 689 89 z "},"Е":{"ha":865,"x_min":0,"x_max":0,"o":"m 788 290 b 725 238 765 296 747 285 b 553 89 679 140 650 89 l 461 88 b 329 153 349 88 329 107 l 329 456 b 422 524 329 517 363 524 l 436 524 b 643 390 568 524 576 375 b 665 458 669 396 676 408 l 632 617 b 590 658 626 642 617 658 b 436 611 543 658 551 611 l 422 611 b 329 679 363 611 329 619 l 329 821 b 453 885 329 865 349 885 l 518 885 b 722 753 610 885 668 840 b 788 713 744 717 761 704 b 808 781 813 719 815 743 b 772 924 799 839 785 886 b 657 972 757 965 738 972 l 119 972 b 42 933 64 972 42 964 b 133 736 42 861 133 917 l 133 236 b 42 39 133 56 42 111 b 119 0 42 8 64 0 l 679 0 b 796 58 764 0 785 17 b 817 226 807 97 814 150 b 788 290 818 264 817 285 z "},"Ё":{"ha":865,"x_min":0,"x_max":0,"o":"m 333 1064 b 439 1158 389 1064 439 1103 b 361 1235 439 1204 407 1235 b 263 1132 304 1235 263 1183 b 333 1064 263 1090 294 1064 z m 563 1064 b 667 1158 617 1064 667 1103 b 588 1235 667 1204 635 1235 b 489 1132 533 1235 489 1183 b 563 1064 489 1090 521 1064 z m 788 290 b 725 238 765 296 747 285 b 553 89 679 140 650 89 l 461 88 b 329 153 349 88 329 107 l 329 456 b 422 524 329 517 363 524 l 436 524 b 643 390 568 524 576 375 b 665 458 669 396 676 408 l 632 617 b 590 658 626 642 617 658 b 436 611 543 658 551 611 l 422 611 b 329 679 363 611 329 619 l 329 821 b 453 885 329 865 349 885 l 518 885 b 722 753 610 885 668 840 b 788 713 744 717 761 704 b 808 781 813 719 815 743 b 772 924 799 839 785 886 b 657 972 757 965 738 972 l 119 972 b 42 933 64 972 42 964 b 133 736 42 861 133 917 l 133 236 b 42 39 133 56 42 111 b 119 0 42 8 64 0 l 679 0 b 796 58 764 0 785 17 b 817 226 807 97 814 150 b 788 290 818 264 817 285 z "},"Ж":{"ha":1497,"x_min":0,"x_max":0,"o":"m 1247 808 b 1406 933 1349 901 1406 874 b 1328 972 1406 963 1381 972 l 1140 972 b 1082 933 1101 972 1082 963 b 1104 808 1082 882 1185 883 l 849 575 l 849 740 b 931 933 849 906 931 867 b 854 972 931 963 908 972 l 650 972 b 572 933 592 972 572 963 b 653 740 572 867 653 906 l 653 582 l 406 808 b 426 933 324 883 426 882 b 368 972 426 963 407 972 l 181 972 b 103 933 129 972 103 963 b 263 808 103 874 160 901 l 365 714 l 126 193 b 8 40 74 78 8 101 b 79 1 8 11 28 1 l 292 1 b 369 42 346 1 369 11 b 332 183 369 90 293 96 l 510 581 l 653 449 l 653 232 b 569 39 653 67 569 106 b 647 0 569 10 592 0 l 851 0 b 928 39 908 0 928 10 b 849 232 928 106 849 67 l 849 443 l 999 581 l 1176 183 b 1140 42 1215 96 1140 90 b 1217 1 1140 11 1163 1 l 1429 1 b 1500 40 1481 1 1500 11 b 1382 193 1500 101 1436 78 l 1144 714 z "},"З":{"ha":849,"x_min":0,"x_max":0,"o":"m 521 538 b 724 768 638 569 725 661 b 431 985 721 910 597 985 b 260 965 346 985 293 965 b 189 985 225 965 217 985 b 133 913 164 985 147 972 b 111 747 124 863 114 803 b 140 686 110 710 114 686 b 204 744 165 686 178 703 b 401 897 247 813 301 897 b 518 776 469 897 518 849 b 308 576 518 675 460 592 b 308 489 249 572 254 490 b 571 258 499 485 571 390 b 399 75 571 149 503 75 b 167 242 299 75 217 140 b 113 297 149 279 133 294 b 81 251 89 300 79 279 b 103 113 85 172 94 144 b 222 4 121 44 158 21 b 363 -12 268 -7 306 -12 b 776 276 601 -14 776 82 b 521 538 776 406 675 506 z "},"И":{"ha":1121,"x_min":0,"x_max":0,"o":"m 340 0 b 417 39 397 0 417 10 b 332 183 417 96 349 82 b 349 232 329 204 335 218 l 792 668 l 792 222 b 788 171 792 204 790 188 b 700 39 775 82 700 97 b 778 0 700 10 722 0 l 999 0 b 1076 39 1057 0 1076 10 b 992 171 1076 101 1006 75 b 988 222 989 188 988 204 l 988 750 b 992 801 988 768 989 785 b 1079 933 1004 892 1079 875 b 1001 972 1079 963 1057 972 l 781 972 b 703 933 722 972 703 963 b 786 811 703 881 772 892 b 771 765 792 793 785 778 l 329 329 l 329 750 b 333 801 329 768 331 785 b 419 933 346 892 419 875 b 343 972 419 963 397 972 l 122 972 b 44 933 64 972 44 963 b 129 801 44 871 115 897 b 133 750 132 785 133 768 l 133 222 b 129 171 133 204 132 188 b 42 39 115 82 42 97 b 119 0 42 10 64 0 z "},"Й":{"ha":1121,"x_min":0,"x_max":0,"o":"m 551 1043 b 786 1196 669 1043 786 1099 b 726 1253 786 1228 760 1253 b 551 1111 644 1253 642 1111 b 374 1253 458 1111 456 1253 b 315 1196 343 1253 315 1231 b 551 1043 315 1101 418 1043 z m 340 0 b 417 39 397 0 417 10 b 332 183 417 96 349 82 b 349 232 329 204 335 218 l 792 668 l 792 222 b 788 171 792 204 790 188 b 700 39 775 82 700 97 b 778 0 700 10 722 0 l 999 0 b 1076 39 1057 0 1076 10 b 992 171 1076 101 1006 75 b 988 222 989 188 988 204 l 988 750 b 992 801 988 768 989 785 b 1079 933 1004 892 1079 875 b 1001 972 1079 963 1057 972 l 781 972 b 703 933 722 972 703 963 b 786 811 703 881 772 892 b 771 765 792 793 785 778 l 329 329 l 329 750 b 333 801 329 768 331 785 b 419 933 346 892 419 875 b 343 972 419 963 397 972 l 122 972 b 44 933 64 972 44 963 b 129 801 44 871 115 897 b 133 750 132 785 133 768 l 133 222 b 129 171 133 204 132 188 b 42 39 115 82 42 97 b 119 0 42 10 64 0 z "},"К":{"ha":1029,"x_min":0,"x_max":0,"o":"m 779 808 b 938 933 879 901 938 874 b 860 972 938 963 911 972 l 682 972 b 625 933 644 972 625 963 b 646 808 625 882 726 883 l 329 514 l 329 740 b 419 933 329 906 419 867 b 343 972 419 963 397 972 l 122 972 b 44 933 64 972 44 963 b 133 740 44 867 133 906 l 133 232 b 42 39 133 67 42 106 b 119 0 42 10 64 0 l 340 0 b 417 39 397 0 417 10 b 329 232 417 106 329 67 l 329 390 l 532 579 l 708 182 b 671 40 747 94 671 89 b 749 0 671 10 694 0 l 961 0 b 1032 39 1013 0 1032 10 b 914 192 1032 100 967 75 l 675 713 z "},"Л":{"ha":1042,"x_min":0,"x_max":0,"o":"m 156 -14 b 317 61 224 -14 276 7 b 451 822 421 201 435 553 b 590 885 454 876 508 885 b 715 825 692 885 715 865 l 715 233 b 625 39 715 67 625 107 b 701 0 625 11 647 0 l 922 0 b 1000 39 981 0 1000 11 b 911 233 1000 107 911 67 l 911 807 b 985 940 911 894 985 897 b 911 972 985 963 964 972 l 339 972 b 267 940 286 972 267 963 b 351 794 267 896 351 893 b 210 121 351 521 297 121 b 93 204 158 121 165 204 b 14 110 53 204 14 169 b 156 -14 14 18 99 -14 z "},"М":{"ha":1253,"x_min":0,"x_max":0,"o":"m 1097 790 b 1175 933 1093 893 1175 876 b 1108 972 1175 963 1156 972 l 956 972 b 903 936 931 972 914 961 l 619 325 l 358 938 b 306 972 349 961 331 972 l 144 972 b 78 933 97 972 78 963 b 156 790 78 878 160 889 l 129 174 b 46 38 125 79 46 83 b 111 1 46 10 64 1 l 235 1 b 299 36 278 1 299 7 b 229 174 299 85 225 79 l 247 721 l 517 81 b 571 57 524 61 540 51 b 621 97 599 64 610 74 l 914 729 l 925 204 b 846 40 926 83 846 108 b 922 0 846 10 868 0 l 1136 0 b 1210 40 1190 0 1210 10 b 1117 204 1210 113 1122 79 z "},"Н":{"ha":1111,"x_min":0,"x_max":0,"o":"m 978 740 b 1069 933 978 906 1069 867 b 992 972 1069 963 1047 972 l 771 972 b 694 933 714 972 694 963 b 782 740 694 867 782 906 l 782 619 b 560 560 782 560 782 560 b 329 619 329 560 329 560 l 329 740 b 419 933 329 906 419 867 b 343 972 419 963 397 972 l 122 972 b 44 933 64 972 44 963 b 133 740 44 867 133 906 l 133 232 b 42 39 133 67 42 106 b 119 0 42 10 64 0 l 340 0 b 417 39 397 0 417 10 b 329 232 417 106 329 67 l 329 411 b 558 471 329 471 329 471 b 782 411 782 471 782 471 l 782 232 b 692 39 782 67 692 106 b 768 0 692 10 714 0 l 989 0 b 1067 39 1047 0 1067 10 b 978 232 1067 106 978 67 z "},"О":{"ha":1089,"x_min":0,"x_max":0,"o":"m 514 -14 b 1031 514 815 -14 1031 214 b 572 986 1031 782 851 986 b 56 449 275 986 56 746 b 514 -14 56 178 250 -14 z m 586 96 b 247 575 376 96 247 335 b 507 888 247 738 333 888 b 839 408 713 888 839 643 b 586 96 839 238 763 96 z "},"П":{"ha":1061,"x_min":0,"x_max":0,"o":"m 928 736 b 1019 933 928 917 1019 861 b 942 972 1019 964 997 972 l 119 972 b 42 933 64 972 42 964 b 133 736 42 861 133 917 l 133 233 b 42 39 133 67 42 107 b 119 0 42 11 64 0 l 340 0 b 417 39 397 0 417 11 b 329 233 417 107 329 67 l 329 821 b 535 883 329 865 349 883 b 732 821 707 883 732 865 l 732 233 b 640 39 732 67 640 107 b 718 0 640 11 663 0 l 939 0 b 1017 39 997 0 1017 11 b 928 233 1017 107 928 67 z "},"Р":{"ha":907,"x_min":0,"x_max":0,"o":"m 119 972 b 42 933 64 972 42 964 b 133 736 42 861 133 917 l 133 232 b 42 39 133 67 42 106 b 119 0 42 10 64 0 l 340 0 b 417 39 397 0 417 10 b 329 232 417 106 329 67 l 329 268 b 357 296 329 293 335 296 l 457 296 b 882 610 735 296 882 401 b 417 972 882 824 713 972 z m 447 381 b 329 425 351 381 329 393 l 329 853 b 414 890 329 882 336 890 b 682 588 558 890 682 778 b 447 381 682 449 592 381 z "},"С":{"ha":971,"x_min":0,"x_max":0,"o":"m 536 -14 b 924 192 726 -14 872 86 b 875 239 947 236 908 275 b 603 110 801 160 718 110 b 256 554 385 110 256 314 b 540 893 256 744 363 893 b 807 719 663 893 743 813 b 876 658 835 678 847 656 b 908 721 907 661 914 683 b 865 911 896 804 881 863 b 808 985 849 971 833 985 b 732 963 776 985 767 963 b 563 986 699 963 649 986 b 56 467 275 986 56 754 b 536 -14 56 172 253 -14 z "},"Т":{"ha":900,"x_min":0,"x_max":0,"o":"m 549 818 b 610 881 549 860 568 881 b 778 736 701 881 729 832 b 831 685 796 701 810 685 b 864 746 860 685 865 710 b 843 915 863 822 854 875 b 728 972 833 956 813 972 l 174 972 b 57 914 89 972 68 956 b 36 746 46 875 39 822 b 71 685 35 708 42 685 b 122 736 92 685 106 701 b 290 879 172 831 199 879 b 353 818 335 879 353 860 l 353 232 b 261 39 353 67 261 106 b 339 0 261 10 283 0 l 560 0 b 638 39 618 0 638 10 b 549 232 638 106 549 67 z "},"У":{"ha":936,"x_min":0,"x_max":0,"o":"m 725 972 b 663 935 690 972 663 965 b 694 797 663 885 742 903 l 543 454 l 346 815 b 381 940 304 893 381 897 b 314 972 381 964 360 972 l 79 972 b 21 942 42 972 21 965 b 122 815 21 897 79 893 l 432 256 b 433 236 435 250 436 243 b 335 122 400 161 369 122 b 222 193 283 122 294 193 b 144 106 182 193 144 154 b 288 -14 144 18 229 -14 b 567 276 394 -14 465 53 l 801 797 b 922 936 847 899 922 885 b 850 972 922 964 894 972 z "},"Ф":{"ha":1168,"x_min":0,"x_max":0,"o":"m 693 0 b 769 39 750 0 769 10 b 682 165 769 94 683 69 b 696 181 682 176 685 182 b 779 178 731 178 754 178 b 1121 490 969 178 1121 306 b 793 792 1121 668 985 792 b 693 788 763 792 735 790 b 681 803 682 786 679 792 b 772 933 690 900 772 875 b 696 972 772 963 750 972 l 475 972 b 397 933 417 972 397 963 b 488 801 397 874 478 901 b 474 786 489 790 485 785 b 374 792 433 790 403 792 b 47 490 192 792 47 671 b 389 178 47 308 193 178 b 472 182 410 178 438 179 b 485 165 482 183 485 178 b 394 39 483 72 394 94 b 472 0 394 10 417 0 z m 439 257 b 238 482 319 257 238 350 b 439 714 238 617 303 714 b 486 710 454 714 471 713 l 486 263 b 439 257 472 258 451 257 z m 732 257 b 682 261 717 257 700 257 l 682 710 b 729 714 696 713 714 714 b 929 482 865 714 929 617 b 732 257 929 350 851 257 z "},"Х":{"ha":1038,"x_min":0,"x_max":0,"o":"m 824 808 b 974 936 892 901 974 885 b 901 972 974 965 944 972 l 765 972 b 701 936 729 972 701 965 b 708 808 701 886 779 906 l 557 597 l 403 804 b 419 936 333 899 419 885 b 356 972 419 964 396 972 l 97 972 b 29 936 56 972 29 965 b 163 804 29 885 89 903 l 403 482 l 175 164 b 26 36 108 71 26 88 b 99 0 26 7 56 0 l 235 0 b 297 36 271 0 297 7 b 290 164 297 86 221 67 l 460 403 l 635 168 b 619 36 704 74 619 88 b 683 0 619 8 643 0 l 940 0 b 1008 36 983 0 1008 7 b 876 168 1008 88 949 69 l 615 519 z "},"Ч":{"ha":1033,"x_min":0,"x_max":0,"o":"m 900 740 b 992 933 900 906 992 867 b 914 972 992 963 969 972 l 693 972 b 617 933 636 972 617 963 b 704 740 617 867 704 906 l 704 456 b 482 431 628 443 539 431 b 301 706 317 431 300 551 l 301 738 b 393 931 304 903 393 864 b 317 969 393 960 371 969 l 96 969 b 18 931 38 969 18 960 b 107 738 18 864 107 903 l 106 676 b 435 342 106 504 156 342 b 704 369 492 342 596 351 l 704 232 b 614 39 704 67 614 106 b 690 0 614 10 636 0 l 911 0 b 989 39 969 0 989 10 b 900 232 989 106 900 67 z "},"Ц":{"ha":1122,"x_min":0,"x_max":0,"o":"m 1100 -133 b 1081 31 1099 -62 1092 -10 b 983 89 1069 71 1049 89 b 928 149 947 89 928 110 l 928 740 b 1019 933 928 906 1019 865 b 942 972 1019 963 997 972 l 721 972 b 643 933 663 972 643 963 b 732 740 643 865 732 906 l 732 151 b 531 89 732 107 713 89 b 329 151 354 89 329 107 l 329 740 b 419 933 329 906 419 865 b 343 972 419 963 397 972 l 122 972 b 44 933 64 972 44 963 b 133 740 44 865 133 906 l 133 236 b 42 39 133 56 42 111 b 119 0 42 8 64 0 l 838 0 b 1006 -144 919 0 958 -53 b 1067 -194 1022 -178 1038 -194 b 1100 -133 1096 -194 1101 -171 z "},"Ш":{"ha":1493,"x_min":0,"x_max":0,"o":"m 1360 740 b 1451 933 1360 906 1451 865 b 1374 972 1451 963 1429 972 l 1153 972 b 1076 933 1096 972 1076 963 b 1164 740 1076 865 1164 906 l 1164 151 b 1004 89 1164 107 1144 89 b 844 151 869 89 844 107 l 844 740 b 926 933 844 906 926 865 b 850 972 926 963 904 972 l 646 972 b 569 933 589 972 569 963 b 649 740 569 865 649 906 l 649 151 b 489 89 649 107 629 89 b 329 151 354 89 329 107 l 329 740 b 419 933 329 906 419 865 b 343 972 419 963 397 972 l 122 972 b 44 933 64 972 44 963 b 133 740 44 865 133 906 l 133 236 b 42 39 133 56 42 111 b 119 0 42 8 64 0 l 1374 0 b 1451 39 1429 0 1451 8 b 1360 236 1451 111 1360 56 z "},"Щ":{"ha":1554,"x_min":0,"x_max":0,"o":"m 1533 -133 b 1513 31 1531 -62 1524 -10 b 1415 89 1501 71 1481 89 b 1360 149 1379 89 1360 110 l 1360 740 b 1451 933 1360 906 1451 865 b 1374 972 1451 963 1429 972 l 1153 972 b 1076 933 1096 972 1076 963 b 1164 740 1076 865 1164 906 l 1164 151 b 1004 89 1164 107 1144 89 b 844 151 869 89 844 107 l 844 740 b 926 933 844 906 926 865 b 850 972 926 963 904 972 l 646 972 b 569 933 589 972 569 963 b 649 740 569 865 649 906 l 649 151 b 489 89 649 107 629 89 b 329 151 354 89 329 107 l 329 740 b 419 933 329 906 419 865 b 343 972 419 963 397 972 l 122 972 b 44 933 64 972 44 963 b 133 740 44 865 133 906 l 133 236 b 42 39 133 56 42 111 b 119 0 42 8 64 0 l 1269 0 b 1436 -144 1350 0 1390 -53 b 1499 -194 1454 -178 1468 -194 b 1533 -133 1528 -194 1535 -171 z "},"Ь":{"ha":926,"x_min":0,"x_max":0,"o":"m 407 657 b 357 656 389 657 372 657 b 329 683 339 654 329 665 l 329 740 b 419 933 329 906 419 865 b 343 972 419 963 397 972 l 122 972 b 44 933 64 972 44 963 b 133 740 44 865 133 906 l 133 236 b 42 39 133 56 42 111 b 119 0 42 8 64 0 l 436 0 b 864 310 715 0 864 106 b 407 657 864 513 690 657 z m 428 83 b 329 129 354 83 329 96 l 329 538 b 375 575 329 567 339 576 b 663 289 528 574 663 463 b 428 83 663 153 571 83 z "},"Ы":{"ha":1318,"x_min":0,"x_max":0,"o":"m 407 657 b 357 656 389 657 372 657 b 329 683 339 654 329 665 l 329 740 b 419 933 329 906 419 865 b 343 972 419 963 397 972 l 122 972 b 44 933 64 972 44 963 b 133 740 44 865 133 906 l 133 236 b 42 39 133 56 42 111 b 119 0 42 8 64 0 l 436 0 b 864 310 715 0 864 106 b 407 657 864 513 690 657 z m 1186 740 b 1276 933 1186 906 1276 867 b 1200 972 1276 963 1254 972 l 978 972 b 901 933 921 972 901 963 b 989 740 901 867 989 906 l 989 232 b 899 39 989 67 899 106 b 975 0 899 10 921 0 l 1197 0 b 1274 39 1254 0 1274 10 b 1186 232 1274 106 1186 67 z m 428 83 b 329 129 354 83 329 96 l 329 538 b 375 575 329 567 339 576 b 663 289 528 574 663 463 b 428 83 663 153 571 83 z "},"Ъ":{"ha":1239,"x_min":0,"x_max":0,"o":"m 571 657 b 521 656 553 657 536 657 b 493 683 503 654 493 665 l 493 736 b 583 933 493 917 583 861 b 507 972 583 964 561 972 l 147 972 b 25 914 53 972 35 953 b 3 732 14 875 6 810 b 35 671 1 694 7 671 b 85 721 56 671 68 686 b 233 885 131 819 164 885 b 297 810 267 885 297 874 l 297 236 b 206 40 297 57 206 113 b 283 1 206 10 228 1 l 297 1 l 297 0 l 600 0 b 1028 310 879 0 1028 106 b 571 657 1028 513 854 657 z m 592 85 b 493 129 518 85 493 97 l 493 538 b 539 575 493 567 503 576 b 826 289 692 574 826 463 b 592 85 826 153 736 85 z "},"Є":{"ha":951,"x_min":0,"x_max":0,"o":"m 860 233 b 599 135 785 174 708 135 b 263 464 418 135 292 271 b 428 410 321 429 376 410 b 615 485 510 410 547 485 b 761 432 675 485 725 432 b 799 465 789 432 799 450 b 581 606 799 518 665 606 b 367 525 501 606 451 525 b 256 558 338 525 304 532 b 536 894 257 747 357 894 b 801 718 674 894 744 806 b 867 657 829 675 842 657 b 896 718 894 657 899 681 b 865 911 889 803 876 863 b 808 985 853 971 833 985 b 739 963 781 985 774 963 b 561 986 706 963 651 986 b 56 467 278 986 56 754 b 522 -14 56 172 253 -14 b 901 178 721 -14 851 76 b 860 233 926 228 899 263 z "},"Э":{"ha":958,"x_min":0,"x_max":0,"o":"m 406 986 b 208 963 301 986 242 963 b 138 985 174 963 165 985 b 81 911 113 985 93 971 b 57 718 69 863 58 803 b 86 657 56 681 58 657 b 149 718 111 657 122 675 b 408 900 201 806 272 900 b 686 557 560 900 667 775 b 581 525 640 532 608 525 b 367 606 494 525 446 606 b 149 465 282 606 149 518 b 186 432 149 450 158 432 b 331 485 222 432 271 485 b 518 410 400 485 436 410 b 690 467 572 410 631 431 b 421 78 688 294 614 78 b 153 239 292 78 207 154 b 89 304 124 285 110 301 b 54 258 64 307 53 286 b 76 119 58 179 68 151 b 196 11 94 51 133 28 b 381 -12 242 0 308 -11 b 900 526 694 -14 900 219 b 406 986 900 796 715 986 z "},"І":{"ha":461,"x_min":0,"x_max":0,"o":"m 133 232 b 42 39 133 67 42 106 b 119 0 42 10 64 0 l 340 0 b 417 39 397 0 417 10 b 329 232 417 106 329 67 l 329 740 b 419 933 329 906 419 867 b 343 972 419 963 397 972 l 122 972 b 44 933 64 972 44 963 b 133 740 44 867 133 906 z "},"Ї":{"ha":461,"x_min":0,"x_max":0,"o":"m 135 1064 b 240 1158 190 1064 240 1103 b 163 1235 240 1204 208 1235 b 64 1132 106 1235 64 1183 b 135 1064 64 1090 96 1064 z m 364 1064 b 468 1158 418 1064 468 1103 b 389 1235 468 1204 436 1235 b 290 1132 335 1235 290 1183 b 364 1064 290 1090 322 1064 z m 133 232 b 42 39 133 67 42 106 b 119 0 42 10 64 0 l 340 0 b 417 39 397 0 417 10 b 329 232 417 106 329 67 l 329 740 b 419 933 329 906 419 867 b 343 972 419 963 397 972 l 122 972 b 44 933 64 972 44 963 b 133 740 44 867 133 906 z "},"Ю":{"ha":1531,"x_min":0,"x_max":0,"o":"m 1014 986 b 503 535 744 986 540 790 l 329 535 l 329 740 b 419 933 329 906 419 867 b 343 972 419 963 397 972 l 122 972 b 44 933 64 972 44 963 b 133 740 44 867 133 906 l 133 232 b 42 39 133 67 42 106 b 119 0 42 10 64 0 l 340 0 b 417 39 397 0 417 10 b 329 232 417 106 329 67 l 329 446 l 496 446 b 956 -14 497 176 693 -14 b 1471 514 1257 -14 1471 214 b 1014 986 1471 782 1292 986 z m 1026 96 b 689 575 817 96 689 335 b 949 888 689 738 774 888 b 1281 408 1153 888 1281 643 b 1026 96 1281 238 1204 96 z "},"Я":{"ha":953,"x_min":0,"x_max":0,"o":"m 819 736 b 911 933 819 917 911 861 b 833 972 911 964 889 972 l 561 972 b 106 622 267 972 106 828 b 264 367 106 513 158 421 l 161 175 b 46 39 108 78 46 99 b 117 0 46 10 65 0 l 322 0 b 389 40 367 0 389 10 b 363 182 389 89 319 97 l 435 319 b 515 315 460 317 488 315 l 596 315 b 624 288 617 315 624 313 l 624 233 b 535 39 624 67 535 107 b 613 0 535 11 554 0 l 833 0 b 911 39 889 0 911 11 b 819 233 911 107 819 67 z m 624 444 b 525 400 624 411 597 400 b 306 656 397 400 306 507 b 533 888 306 806 392 888 b 588 882 551 888 569 886 b 624 846 614 879 624 875 z "},"а":{"ha":799,"x_min":0,"x_max":0,"o":"m 767 107 b 701 182 736 106 717 125 l 633 443 b 372 681 603 558 550 681 b 99 551 239 681 133 610 b 133 513 78 517 107 496 b 303 567 183 540 240 567 b 460 410 407 567 435 497 b 349 421 413 417 385 421 b 35 192 151 421 35 325 b 289 -12 35 76 135 -12 b 532 92 372 -12 467 19 b 650 -11 553 22 589 -11 b 793 83 717 -11 793 36 b 767 107 793 100 782 107 z m 364 85 b 214 222 274 85 215 143 b 371 349 214 299 272 349 b 479 303 415 349 469 335 b 508 196 492 254 504 219 b 364 85 519 139 442 85 z "},"б":{"ha":799,"x_min":0,"x_max":0,"o":"m 458 683 b 189 494 342 683 235 622 b 338 778 194 640 233 749 b 613 829 432 811 526 786 b 729 989 683 864 729 922 b 686 1026 729 1025 706 1033 b 628 996 667 1022 658 1013 b 485 965 593 974 550 971 b 265 917 407 960 329 951 b 43 428 113 838 43 654 b 414 -14 44 114 217 -14 b 751 357 600 -14 751 146 b 458 683 751 538 643 683 z m 431 75 b 247 357 308 75 247 218 b 394 574 247 476 301 574 b 565 299 506 574 563 443 b 431 75 568 181 525 75 z "},"в":{"ha":754,"x_min":0,"x_max":0,"o":"m 544 372 b 660 514 611 394 661 446 b 372 667 658 624 544 667 l 114 667 b 46 629 71 667 46 658 b 110 526 46 585 99 596 b 114 479 113 510 114 496 l 114 188 b 110 142 114 171 113 157 b 46 38 99 71 46 82 b 114 0 46 8 71 0 l 390 0 b 713 193 589 0 713 58 b 544 372 713 269 664 344 z m 306 544 b 364 586 306 582 311 586 b 485 485 429 586 485 551 b 356 396 485 422 444 396 b 306 425 328 396 306 396 z m 375 79 b 306 146 313 79 306 86 l 306 301 b 325 324 306 317 311 324 l 354 324 b 524 188 463 324 524 267 b 375 79 524 107 478 79 z "},"г":{"ha":650,"x_min":0,"x_max":0,"o":"m 625 500 b 599 618 621 538 613 578 b 479 667 585 654 571 667 l 114 667 b 46 629 71 667 46 658 b 110 526 46 585 99 596 b 114 479 113 510 114 496 l 114 193 b 46 36 114 64 46 96 b 110 0 46 8 69 0 l 308 0 b 369 35 346 0 369 7 b 301 193 369 96 301 64 l 301 531 b 367 582 301 576 317 582 l 368 582 b 543 482 461 582 490 558 b 600 436 565 450 578 432 b 625 500 626 440 629 463 z "},"ґ":{"ha":650,"x_min":0,"x_max":0,"o":"m 600 813 b 543 767 578 818 565 799 b 368 667 490 692 461 667 l 114 667 b 46 629 71 667 46 658 b 110 526 46 585 99 596 b 114 479 113 510 114 496 l 114 193 b 46 36 114 64 46 96 b 110 0 46 8 69 0 l 308 0 b 369 35 346 0 369 7 b 301 193 369 96 301 64 l 301 517 b 365 582 301 561 311 582 l 479 582 b 599 632 571 582 585 596 b 625 749 613 672 621 713 b 600 813 629 788 626 808 z "},"д":{"ha":800,"x_min":0,"x_max":0,"o":"m 38 -169 b 92 -119 57 -169 75 -154 b 251 0 129 -39 142 0 l 544 0 b 706 -119 656 0 667 -39 b 758 -169 721 -154 739 -169 b 793 -106 785 -169 794 -146 b 776 24 790 -53 788 -17 b 699 81 769 58 754 75 b 674 106 682 82 674 90 l 674 501 b 746 635 674 589 746 590 b 674 667 746 657 726 667 l 200 667 b 128 635 147 667 128 657 b 211 489 128 588 211 588 b 133 100 211 400 190 224 b 104 81 128 88 118 82 b 19 24 44 76 28 60 b 4 -106 8 -17 6 -53 b 38 -169 3 -146 13 -169 z m 229 82 b 301 540 260 190 285 318 b 400 585 304 581 315 585 b 486 540 478 585 486 581 l 486 82 z "},"е":{"ha":743,"x_min":0,"x_max":0,"o":"m 660 213 b 457 121 610 164 542 121 b 257 247 350 121 286 183 b 656 407 401 300 514 343 b 688 461 682 419 692 439 b 406 681 668 581 572 681 b 46 313 211 681 46 526 b 376 -14 46 122 179 -14 b 704 178 561 -14 676 100 b 660 213 718 218 688 240 z m 344 589 b 499 471 411 601 479 551 b 467 414 508 435 490 425 b 232 326 392 382 313 354 b 221 414 225 350 221 383 b 344 589 221 503 264 579 z "},"ё":{"ha":743,"x_min":0,"x_max":0,"o":"m 257 769 b 363 864 313 769 363 810 b 285 940 363 910 331 940 b 186 838 228 940 186 889 b 257 769 186 796 218 769 z m 486 769 b 590 864 540 769 590 810 b 511 940 590 910 558 940 b 413 838 457 940 413 889 b 486 769 413 796 444 769 z m 660 213 b 457 121 610 164 542 121 b 257 247 350 121 286 183 b 656 407 401 300 514 343 b 688 461 682 419 692 439 b 406 681 668 581 572 681 b 46 313 211 681 46 526 b 376 -14 46 122 179 -14 b 704 178 561 -14 676 100 b 660 213 718 218 688 240 z m 344 589 b 499 471 411 601 479 551 b 467 414 508 435 490 425 b 232 326 392 382 313 354 b 221 414 225 350 221 383 b 344 589 221 503 264 579 z "},"ж":{"ha":1272,"x_min":0,"x_max":0,"o":"m 1036 532 b 1174 636 1107 608 1174 594 b 1121 667 1174 657 1154 667 l 954 667 b 900 636 917 667 900 658 b 929 538 900 594 982 594 l 731 326 l 731 474 b 799 632 731 603 799 571 b 735 667 799 658 775 667 l 536 667 b 475 632 499 667 475 660 b 543 474 475 571 543 603 l 543 331 l 349 538 b 378 636 294 594 378 594 b 324 667 378 658 360 667 l 156 667 b 103 636 124 667 103 657 b 242 532 103 594 171 608 l 281 490 l 128 144 b 32 31 99 78 32 76 b 96 0 32 7 53 0 l 289 0 b 351 32 332 0 351 8 b 313 131 351 75 283 69 l 411 350 l 543 210 l 543 193 b 474 36 543 64 474 96 b 538 0 474 8 499 0 l 736 0 b 797 35 775 0 797 7 b 731 193 797 96 731 64 l 731 204 l 865 350 l 965 131 b 925 32 993 69 925 75 b 989 0 925 8 946 0 l 1182 0 b 1244 31 1224 0 1244 7 b 1150 144 1244 76 1178 78 l 997 490 z "},"з":{"ha":629,"x_min":0,"x_max":0,"o":"m 415 369 b 544 529 490 390 546 451 b 331 681 543 636 438 681 b 179 664 246 681 217 664 b 121 681 150 664 143 681 b 74 624 101 681 86 669 b 53 515 63 582 56 551 b 78 465 51 483 56 465 b 133 511 97 465 110 479 b 278 596 168 560 213 596 b 368 517 339 596 368 558 b 208 390 368 458 328 404 b 207 321 161 383 160 326 b 390 194 335 314 390 268 b 261 86 390 113 331 86 b 83 153 192 86 129 114 b 40 117 54 178 19 156 b 311 -12 81 40 190 -12 b 576 197 461 -12 576 64 b 415 369 576 268 535 347 z "},"и":{"ha":882,"x_min":0,"x_max":0,"o":"m 308 0 b 369 35 346 0 369 7 b 306 147 369 86 322 63 b 319 183 303 168 304 171 l 582 390 l 582 188 b 578 142 582 171 581 157 b 514 36 567 71 514 82 b 578 0 514 8 538 0 l 776 0 b 838 35 814 0 838 7 b 774 142 838 83 788 71 b 769 188 771 157 769 171 l 769 479 b 774 526 769 496 771 510 b 838 632 785 596 838 585 b 774 667 838 658 814 667 l 575 667 b 514 632 538 667 514 660 b 578 518 514 581 563 603 b 564 481 581 497 581 494 l 301 272 l 301 479 b 306 526 301 496 303 510 b 369 632 317 596 369 585 b 306 667 369 658 346 667 l 107 667 b 46 632 69 667 46 660 b 110 526 46 583 96 596 b 114 479 113 510 114 496 l 114 188 b 110 142 114 171 113 157 b 46 36 99 71 46 82 b 110 0 46 8 69 0 z "},"й":{"ha":882,"x_min":0,"x_max":0,"o":"m 446 738 b 681 890 564 738 681 793 b 621 947 681 922 654 947 b 446 806 539 947 536 806 b 268 947 353 806 350 947 b 210 890 238 947 210 925 b 446 738 210 796 313 738 z m 308 0 b 369 35 346 0 369 7 b 306 147 369 86 322 63 b 319 183 303 168 304 171 l 582 390 l 582 188 b 578 142 582 171 581 157 b 514 36 567 71 514 82 b 578 0 514 8 538 0 l 776 0 b 838 35 814 0 838 7 b 774 142 838 83 788 71 b 769 188 771 157 769 171 l 769 479 b 774 526 769 496 771 510 b 838 632 785 596 838 585 b 774 667 838 658 814 667 l 575 667 b 514 632 538 667 514 660 b 578 518 514 581 563 603 b 564 481 581 497 581 494 l 301 272 l 301 479 b 306 526 301 496 303 510 b 369 632 317 596 369 585 b 306 667 369 658 346 667 l 107 667 b 46 632 69 667 46 660 b 110 526 46 583 96 596 b 114 479 113 510 114 496 l 114 188 b 110 142 114 171 113 157 b 46 36 99 71 46 82 b 110 0 46 8 69 0 z "},"к":{"ha":856,"x_min":0,"x_max":0,"o":"m 629 532 b 768 636 700 608 768 594 b 715 667 768 657 747 667 l 547 667 b 493 636 511 667 493 658 b 522 538 493 594 576 594 l 301 303 l 301 474 b 371 632 301 603 371 571 b 307 667 371 658 346 667 l 107 667 b 47 632 69 667 47 660 b 114 474 47 571 114 603 l 114 193 b 46 36 114 64 46 96 b 110 0 46 8 69 0 l 308 0 b 369 35 346 0 369 7 b 301 182 369 94 306 65 l 453 343 l 549 131 b 508 32 576 69 508 75 b 572 0 508 8 529 0 l 765 0 b 828 31 807 0 828 7 b 733 144 828 76 761 78 l 583 483 z "},"л":{"ha":818,"x_min":0,"x_max":0,"o":"m 115 -14 b 265 97 179 -14 236 14 b 333 536 308 185 321 351 b 429 579 336 575 346 579 b 513 535 506 579 513 575 l 513 193 b 444 36 513 64 444 96 b 508 0 444 8 468 0 l 707 0 b 768 35 744 0 768 7 b 700 193 768 96 700 64 l 700 515 b 774 635 700 589 774 592 b 700 667 774 657 753 667 l 229 667 b 163 635 182 667 163 657 b 247 501 163 590 247 590 b 160 103 247 374 224 103 b 65 168 119 103 128 168 b -3 86 29 168 -3 135 b 115 -14 -3 7 72 -14 z "},"м":{"ha":978,"x_min":0,"x_max":0,"o":"m 872 510 b 938 639 871 596 938 597 b 879 668 938 660 918 668 l 726 668 b 688 642 708 668 696 661 l 496 250 l 310 642 b 269 668 300 660 289 668 l 113 668 b 54 639 74 668 54 660 b 122 510 54 597 125 596 l 107 161 b 33 32 104 64 33 76 b 96 1 33 10 54 1 l 193 1 b 251 32 231 1 251 8 b 190 161 251 76 186 64 l 200 447 l 382 68 b 458 50 394 43 426 40 b 514 94 483 57 503 71 l 689 457 l 690 193 b 622 36 692 64 622 96 b 686 0 622 8 647 0 l 885 0 b 946 35 924 0 946 7 b 878 193 946 96 881 64 z "},"н":{"ha":874,"x_min":0,"x_max":0,"o":"m 760 474 b 829 632 760 603 829 571 b 765 667 829 658 804 667 l 565 667 b 506 632 528 667 506 660 b 572 474 506 571 572 603 l 572 418 b 439 372 572 372 572 372 b 301 418 301 372 301 372 l 301 474 b 371 632 301 603 371 571 b 307 667 371 658 346 667 l 107 667 b 47 632 69 667 47 660 b 114 474 47 571 114 603 l 114 193 b 46 36 114 64 46 96 b 110 0 46 8 69 0 l 308 0 b 369 35 346 0 369 7 b 301 193 369 96 301 64 l 301 246 b 438 292 301 292 301 292 b 572 246 572 292 572 292 l 572 193 b 504 36 572 64 504 96 b 568 0 504 8 528 0 l 767 0 b 828 35 804 0 828 7 b 760 193 828 96 760 64 z "},"о":{"ha":800,"x_min":0,"x_max":0,"o":"m 372 -14 b 753 354 593 -14 753 144 b 429 681 753 539 621 681 b 46 307 208 681 46 515 b 372 -14 46 110 188 -14 z m 432 78 b 229 396 313 78 229 233 b 367 589 229 494 267 589 b 568 257 486 589 568 418 b 432 78 568 161 526 78 z "},"п":{"ha":871,"x_min":0,"x_max":0,"o":"m 757 479 b 761 526 757 496 758 510 b 826 629 774 596 826 585 b 757 667 826 658 801 667 l 114 667 b 46 629 71 667 46 658 b 110 526 46 585 99 596 b 114 479 113 510 114 496 l 114 193 b 46 36 114 64 46 96 b 110 0 46 8 69 0 l 308 0 b 369 35 346 0 369 7 b 301 193 369 96 301 64 l 301 533 b 446 585 301 579 317 585 b 569 533 557 585 569 579 l 569 193 b 501 36 569 64 501 96 b 565 0 501 8 525 0 l 764 0 b 825 35 801 0 825 7 b 757 193 825 96 757 64 z "},"р":{"ha":839,"x_min":0,"x_max":0,"o":"m 511 681 b 278 558 396 681 322 624 l 278 639 b 244 681 278 668 268 681 b 85 631 224 681 138 654 b 40 583 51 615 40 606 b 67 543 40 564 54 554 b 110 460 94 524 110 499 l 110 -85 b 42 -243 110 -214 42 -182 b 106 -278 42 -269 65 -278 l 304 -278 b 365 -243 342 -278 365 -271 b 297 -85 365 -182 297 -214 l 297 43 b 486 -14 346 13 413 -14 b 793 357 632 -14 793 111 b 511 681 793 558 668 681 z m 474 72 b 299 288 389 72 300 151 l 297 378 l 297 382 b 442 567 297 482 354 567 b 611 279 543 567 611 444 b 474 72 611 179 572 74 z "},"с":{"ha":738,"x_min":0,"x_max":0,"o":"m 381 -14 b 692 168 565 -14 665 92 b 649 204 706 210 678 231 b 464 121 600 160 549 121 b 226 407 319 121 226 236 b 365 592 226 517 278 592 b 507 442 439 590 482 529 b 600 354 519 393 542 354 b 689 450 646 354 689 386 b 408 681 689 569 581 681 b 46 311 208 681 46 524 b 381 -14 46 139 168 -14 z "},"т":{"ha":717,"x_min":0,"x_max":0,"o":"m 458 0 b 519 35 496 0 519 7 b 456 142 519 83 469 71 b 451 188 453 157 451 171 l 451 557 b 500 583 451 575 461 585 b 614 481 556 583 576 558 b 667 431 632 443 647 431 b 696 485 693 431 696 454 b 679 610 694 533 690 568 b 558 667 669 650 650 667 l 160 667 b 39 608 67 667 49 650 b 22 485 28 568 24 532 b 50 431 21 454 25 431 b 103 479 69 431 86 443 b 217 583 139 557 161 583 b 264 557 254 583 264 575 l 264 188 b 260 142 264 171 263 157 b 196 36 249 71 196 82 b 260 0 196 8 219 0 z "},"у":{"ha":797,"x_min":0,"x_max":0,"o":"m 624 667 b 563 632 586 667 563 660 b 593 485 563 579 638 599 l 468 154 l 339 485 b 374 632 294 599 374 579 b 311 667 374 658 350 667 l 100 667 b 39 632 63 667 39 660 b 140 486 39 579 96 599 l 324 24 b 344 -68 336 -7 344 -37 b 267 -192 344 -135 311 -192 b 117 -67 192 -192 197 -67 b 29 -164 61 -68 29 -115 b 196 -292 29 -244 110 -292 b 506 32 368 -292 429 -167 l 682 485 b 783 632 725 599 783 579 b 719 667 783 658 760 667 z "},"ф":{"ha":1149,"x_min":0,"x_max":0,"o":"m 846 681 b 669 606 782 681 714 654 l 669 767 l 671 957 b 639 999 671 986 661 1000 b 458 939 617 999 517 965 b 415 894 425 924 415 914 b 481 767 415 853 481 863 l 481 613 b 325 681 440 656 381 681 b 46 314 154 681 46 521 b 322 -14 46 74 196 -14 b 482 53 393 -14 443 14 l 482 -85 b 414 -242 482 -214 414 -182 b 476 -276 414 -269 438 -276 l 676 -276 b 736 -243 714 -276 736 -271 b 669 -85 736 -182 669 -214 l 669 53 b 828 -14 707 14 757 -14 b 1103 351 972 -14 1100 107 b 846 681 1104 563 996 681 z m 481 201 b 383 93 481 142 446 93 b 240 342 297 93 240 179 b 365 575 240 461 272 575 b 481 429 425 575 481 524 z m 913 315 b 788 92 910 179 876 92 b 669 201 721 92 669 140 l 669 429 b 776 572 669 522 718 572 b 913 315 872 572 915 463 z "},"х":{"ha":807,"x_min":0,"x_max":0,"o":"m 621 500 b 753 632 696 594 753 579 b 689 667 753 658 728 667 l 571 667 b 510 632 533 667 510 660 b 515 500 510 579 592 594 l 457 428 l 404 497 b 414 632 332 594 414 579 b 351 667 414 658 390 667 l 101 667 b 42 632 64 667 42 660 b 171 497 42 579 99 594 l 300 325 l 174 168 b 42 36 97 72 42 88 b 106 0 42 8 65 0 l 224 0 b 283 35 261 0 283 7 b 278 168 283 88 203 72 l 349 260 l 415 169 b 406 36 488 72 406 88 b 469 0 406 8 429 0 l 718 0 b 778 35 756 0 778 7 b 649 169 778 88 721 72 l 507 358 z "},"ч":{"ha":815,"x_min":0,"x_max":0,"o":"m 701 474 b 771 632 701 603 771 571 b 707 667 771 658 746 667 l 507 667 b 447 632 469 667 447 660 b 514 474 447 571 514 603 l 514 325 b 392 306 475 311 440 306 b 282 458 286 306 279 389 l 282 472 b 351 629 286 600 351 569 b 288 664 351 657 328 664 l 89 664 b 28 631 51 664 28 658 b 96 472 28 569 96 601 l 96 421 b 322 222 96 279 192 222 b 514 246 396 222 460 232 l 514 193 b 446 36 514 64 446 96 b 510 0 446 8 469 0 l 708 0 b 769 35 746 0 769 7 b 701 193 769 96 701 64 z "},"ц":{"ha":890,"x_min":0,"x_max":0,"o":"m 844 -169 b 878 -106 871 -169 879 -146 b 863 24 876 -53 874 -17 b 793 79 856 56 842 74 b 757 115 761 83 757 88 l 757 474 b 826 632 757 603 826 571 b 763 667 826 658 801 667 l 563 667 b 503 632 525 667 503 660 b 569 474 503 571 569 603 l 569 124 b 426 83 569 93 556 83 b 301 124 317 83 301 94 l 301 474 b 371 632 301 603 371 571 b 307 667 371 658 346 667 l 107 667 b 47 632 69 667 47 660 b 114 474 47 571 114 603 l 114 188 b 46 38 114 78 46 90 b 114 0 46 8 71 0 l 631 0 b 792 -119 740 0 753 -39 b 844 -169 807 -154 825 -169 z "},"ш":{"ha":1233,"x_min":0,"x_max":0,"o":"m 1125 142 b 1121 188 1122 157 1121 171 l 1121 474 b 1189 632 1121 603 1189 571 b 1126 667 1189 658 1165 667 l 926 667 b 865 632 889 667 865 660 b 933 474 865 571 933 603 l 933 139 b 817 83 933 97 919 83 b 711 139 726 83 711 96 l 711 474 b 771 632 711 603 771 571 b 708 667 771 658 747 667 l 525 667 b 465 632 488 667 465 660 b 524 474 465 571 524 603 l 524 139 b 407 83 524 97 510 83 b 301 139 317 83 301 96 l 301 474 b 371 632 301 603 371 571 b 307 667 371 658 346 667 l 107 667 b 47 632 69 667 47 660 b 114 474 47 571 114 603 l 114 188 b 110 142 114 171 113 157 b 46 38 99 71 46 82 b 114 0 46 8 71 0 l 1121 0 b 1189 38 1164 0 1189 8 b 1125 142 1189 82 1136 71 z "},"щ":{"ha":1293,"x_min":0,"x_max":0,"o":"m 1247 -169 b 1282 -106 1274 -169 1283 -146 b 1267 24 1281 -53 1276 -17 b 1160 82 1256 67 1235 79 b 1121 118 1124 82 1121 85 l 1121 474 b 1189 632 1121 603 1189 571 b 1126 667 1189 658 1165 667 l 926 667 b 865 632 889 667 865 660 b 933 474 865 571 933 603 l 933 119 b 817 83 933 92 919 83 b 711 119 726 83 711 90 l 711 474 b 771 632 711 603 771 571 b 708 667 771 658 747 667 l 525 667 b 465 632 488 667 465 660 b 524 474 465 571 524 603 l 524 119 b 407 83 524 92 510 83 b 301 119 315 83 301 90 l 301 474 b 371 632 301 603 371 571 b 307 667 371 658 346 667 l 107 667 b 47 632 69 667 47 660 b 114 474 47 571 114 603 l 114 188 b 46 38 114 69 46 90 b 114 0 46 8 71 0 l 1035 0 b 1194 -119 1144 0 1156 -39 b 1247 -169 1211 -154 1229 -169 z "},"ь":{"ha":738,"x_min":0,"x_max":0,"o":"m 425 422 b 329 415 389 422 358 421 b 301 442 311 414 301 422 l 301 474 b 371 632 301 603 371 571 b 307 667 371 658 346 667 l 107 667 b 47 632 69 667 47 660 b 114 474 47 571 114 603 l 114 188 b 110 142 114 171 113 157 b 46 38 99 71 46 82 b 114 0 46 8 71 0 l 390 0 b 713 215 589 0 713 58 b 425 422 713 326 635 422 z m 376 79 b 306 146 318 79 306 100 l 306 313 b 338 339 306 332 318 339 l 361 339 b 525 192 460 339 525 283 b 376 79 525 107 478 79 z "},"ы":{"ha":1078,"x_min":0,"x_max":0,"o":"m 425 422 b 329 415 389 422 358 421 b 301 442 311 414 301 422 l 301 474 b 371 632 301 603 371 571 b 307 667 371 658 346 667 l 107 667 b 47 632 69 667 47 660 b 114 474 47 571 114 603 l 114 188 b 110 142 114 171 113 157 b 46 38 99 71 46 82 b 114 0 46 8 71 0 l 390 0 b 713 215 589 0 713 58 b 425 422 713 326 635 422 z m 965 474 b 1033 632 965 603 1033 571 b 969 667 1033 658 1010 667 l 771 667 b 710 632 733 667 710 660 b 778 474 710 571 778 603 l 778 193 b 708 36 778 64 708 96 b 772 0 708 8 733 0 l 971 0 b 1032 35 1010 0 1032 7 b 965 193 1032 96 965 64 z m 376 79 b 306 146 318 79 306 100 l 306 313 b 338 339 306 332 318 339 l 361 339 b 525 192 460 339 525 283 b 376 79 525 107 478 79 z "},"ъ":{"ha":786,"x_min":0,"x_max":0,"o":"m 457 422 b 361 415 421 422 389 421 b 333 442 343 414 333 422 l 333 479 b 338 526 333 496 335 510 b 401 629 349 596 401 585 b 333 667 401 658 376 667 l 53 667 b -68 608 -40 667 -58 650 b -86 490 -79 568 -85 532 b -58 436 -87 460 -83 436 b -6 482 -35 436 -22 449 b 101 582 35 560 51 582 b 147 522 133 582 147 563 l 147 188 b 143 142 147 171 146 157 b 78 38 131 71 78 82 b 147 0 78 8 103 0 l 422 0 b 744 217 621 0 744 57 b 457 422 744 325 667 422 z m 407 79 b 338 146 350 79 338 100 l 338 313 b 368 339 338 332 349 339 l 392 339 b 557 192 493 339 557 283 b 407 79 557 107 510 79 z "},"є":{"ha":726,"x_min":0,"x_max":0,"o":"m 638 196 b 464 124 589 151 536 124 b 236 317 342 124 260 200 b 292 331 254 325 275 331 b 442 278 353 331 382 278 b 582 375 494 278 582 325 b 556 401 582 390 572 401 b 471 375 535 401 510 375 b 335 424 424 375 394 424 b 228 382 306 424 272 410 l 228 396 b 385 600 228 522 292 600 b 603 499 488 600 528 499 b 663 557 638 499 663 524 b 421 681 663 638 531 681 b 46 307 197 681 46 514 b 383 -14 46 139 163 -14 b 682 160 550 -14 654 83 b 638 196 696 200 667 221 z "},"э":{"ha":726,"x_min":0,"x_max":0,"o":"m 347 681 b 189 661 253 681 218 661 b 128 681 160 661 151 681 b 83 622 108 681 94 669 b 69 515 75 582 71 551 b 93 464 68 483 71 464 b 147 511 113 464 124 478 b 299 594 179 558 228 594 b 492 374 417 594 475 481 b 440 361 474 365 456 361 b 290 415 379 361 349 415 b 150 317 236 415 150 368 b 175 290 150 303 160 290 b 261 318 196 290 221 318 b 397 269 308 318 338 269 b 496 306 424 269 456 282 b 301 72 494 143 414 72 b 103 150 238 72 164 97 b 60 113 72 175 40 153 b 313 -14 96 36 200 -14 b 679 354 539 -14 679 151 b 347 681 679 528 564 681 z "},"і":{"ha":418,"x_min":0,"x_max":0,"o":"m 165 757 b 315 886 238 756 313 818 b 228 974 315 933 278 972 b 82 842 157 976 83 906 b 165 757 81 796 113 758 z m 118 193 b 50 36 118 64 50 96 b 114 0 50 8 74 0 l 313 0 b 374 35 350 0 374 7 b 306 193 374 96 306 64 l 306 447 l 307 638 b 275 679 307 667 297 681 b 94 619 253 679 153 646 b 51 575 61 604 51 594 b 118 447 51 533 118 543 z "},"ї":{"ha":418,"x_min":0,"x_max":0,"o":"m 72 769 b 178 864 128 769 178 810 b 100 940 178 910 146 940 b 1 838 43 940 1 889 b 72 769 1 796 33 769 z m 301 769 b 406 864 356 769 406 810 b 326 940 406 910 374 940 b 228 838 272 940 228 889 b 301 769 228 796 260 769 z m 118 193 b 50 36 118 64 50 96 b 114 0 50 8 74 0 l 313 0 b 374 35 350 0 374 7 b 306 193 374 96 306 64 l 306 447 l 307 638 b 275 679 307 667 297 681 b 94 619 253 679 153 646 b 51 575 61 604 51 594 b 118 447 51 533 118 543 z "},"ю":{"ha":1164,"x_min":0,"x_max":0,"o":"m 794 681 b 419 388 603 681 456 557 l 301 388 l 301 474 b 371 632 301 603 371 571 b 307 667 371 658 346 667 l 107 667 b 47 632 69 667 47 660 b 114 474 47 571 114 603 l 114 193 b 46 36 114 64 46 96 b 110 0 46 8 69 0 l 308 0 b 369 35 346 0 369 7 b 301 193 369 96 301 64 l 301 307 l 411 307 b 738 -14 411 110 553 -14 b 1117 354 958 -14 1117 144 b 794 681 1117 539 985 681 z m 796 78 b 594 396 678 78 594 233 b 732 589 594 494 632 589 b 932 257 850 589 932 418 b 796 78 932 161 892 78 z "},"я":{"ha":788,"x_min":0,"x_max":0,"o":"m 675 479 b 679 526 675 496 676 510 b 743 629 692 596 743 585 b 675 667 743 658 719 667 l 433 667 b 94 442 214 667 94 575 b 233 268 94 364 143 300 b 142 154 189 244 164 204 b 53 74 110 83 88 76 b 25 47 36 74 25 63 b 143 -11 24 14 75 -11 b 314 117 260 -11 294 60 b 388 247 339 196 357 235 b 463 254 415 247 433 250 b 489 233 482 258 489 253 l 489 165 b 421 32 489 78 421 75 b 488 0 421 8 442 0 l 679 0 b 742 31 721 0 742 7 b 675 165 742 76 675 76 z m 485 364 b 415 331 485 340 475 331 b 282 456 328 331 282 386 b 426 588 282 543 336 588 b 485 544 479 588 485 572 z "},"⁄":{"ha":513,"x_min":0,"x_max":0,"o":"m 82 -139 b 133 -101 113 -139 125 -129 l 469 976 b 438 1028 482 1015 475 1028 l 425 1028 b 375 990 396 1028 383 1018 l 38 -87 b 75 -139 25 -126 35 -139 z "},"¹":{"ha":372,"x_min":0,"x_max":0,"o":"m 251 957 b 231 983 251 975 244 983 b 97 936 217 983 144 957 b 58 907 65 924 58 919 b 85 882 58 896 65 889 b 129 817 124 869 129 856 l 129 471 b 69 388 129 415 69 419 b 111 367 69 372 82 367 l 254 367 b 293 386 281 367 293 372 b 251 471 293 414 251 415 z "},"²":{"ha":567,"x_min":0,"x_max":0,"o":"m 425 369 b 492 415 471 369 479 383 b 508 499 500 442 507 468 b 492 529 510 515 506 529 b 342 469 465 529 436 476 b 189 469 285 465 236 465 b 468 826 372 614 468 729 b 289 986 468 924 389 986 b 86 851 178 986 106 908 b 113 829 76 825 97 811 b 243 897 153 876 196 897 b 338 806 300 897 338 861 b 67 421 338 706 242 593 b 93 369 38 392 49 369 z "},"³":{"ha":521,"x_min":0,"x_max":0,"o":"m 308 721 b 425 863 394 760 425 817 b 265 986 425 933 364 986 b 86 907 183 986 111 943 b 110 879 68 882 88 865 b 221 915 139 897 174 915 b 303 847 267 915 303 890 b 158 713 304 786 258 743 b 172 661 135 706 142 658 b 357 549 297 674 357 626 b 233 438 357 479 306 438 b 86 471 171 436 125 453 b 61 438 58 485 42 461 b 257 361 97 394 174 361 b 486 560 404 361 486 454 b 308 721 486 663 403 713 z "}," ":{"ha":278,"x_min":0,"x_max":0,"o":""}," ":{"ha":278,"x_min":0,"x_max":0,"o":""},".":{"ha":340,"x_min":0,"x_max":0,"o":"m 165 -14 b 279 96 225 -14 279 28 b 178 197 279 163 229 197 b 64 85 121 197 64 156 b 165 -14 64 19 111 -14 z "},",":{"ha":354,"x_min":0,"x_max":0,"o":"m 119 -189 b 288 65 181 -189 288 -82 b 175 197 288 158 238 197 b 74 88 125 197 74 154 b 153 -57 74 4 153 -4 b 93 -168 153 -110 93 -144 b 119 -189 93 -181 104 -189 z "},":":{"ha":340,"x_min":0,"x_max":0,"o":"m 165 419 b 279 529 225 419 279 461 b 178 631 279 596 229 631 b 64 518 121 631 64 589 b 165 419 64 453 111 419 z m 165 -14 b 279 96 225 -14 279 28 b 178 197 279 163 229 197 b 64 85 121 197 64 156 b 165 -14 64 19 111 -14 z "},";":{"ha":354,"x_min":0,"x_max":0,"o":"m 165 419 b 279 529 225 419 279 461 b 178 631 279 596 229 631 b 64 518 121 631 64 589 b 165 419 64 453 111 419 z m 119 -189 b 288 65 181 -189 288 -82 b 175 197 288 158 238 197 b 74 88 125 197 74 154 b 153 -57 74 4 153 -4 b 93 -168 153 -110 93 -144 b 119 -189 93 -181 104 -189 z "},"…":{"ha":951,"x_min":0,"x_max":0,"o":"m 165 -14 b 279 96 225 -14 279 28 b 178 197 279 163 229 197 b 64 85 121 197 64 156 b 165 -14 64 19 111 -14 z m 471 -14 b 585 96 531 -14 585 28 b 483 197 585 163 535 197 b 369 85 426 197 369 156 b 471 -14 369 19 417 -14 z m 776 -14 b 890 96 836 -14 890 28 b 789 197 890 163 840 197 b 675 85 732 197 675 156 b 776 -14 675 19 722 -14 z "},"!":{"ha":340,"x_min":0,"x_max":0,"o":"m 169 335 b 197 374 190 335 196 344 b 281 865 211 589 281 774 b 169 986 281 940 232 986 b 61 865 108 986 61 940 b 142 374 61 774 128 589 b 169 335 143 344 150 335 z m 165 -14 b 279 96 225 -14 279 28 b 178 197 279 163 229 197 b 64 85 121 197 64 156 b 165 -14 64 19 111 -14 z "},"¡":{"ha":340,"x_min":0,"x_max":0,"o":"m 175 681 b 61 571 115 681 61 639 b 163 469 61 504 111 469 b 276 582 219 469 276 511 b 175 681 276 649 229 681 z m 171 332 b 143 293 150 332 144 324 b 61 -199 129 78 61 -107 b 171 -319 61 -274 110 -319 b 281 -199 233 -319 281 -274 b 199 293 281 -107 213 78 b 171 332 197 324 192 332 z "},"?":{"ha":679,"x_min":0,"x_max":0,"o":"m 363 374 b 401 482 364 406 389 463 b 628 790 465 575 626 653 b 342 986 628 903 522 986 b 53 785 151 986 53 886 b 140 696 53 742 76 696 b 226 769 196 696 211 733 b 340 899 256 843 281 899 b 424 801 397 899 424 851 b 278 389 422 657 278 575 b 363 374 278 318 358 313 z m 328 -14 b 442 96 388 -14 442 28 b 340 197 442 163 392 197 b 226 85 283 197 226 156 b 328 -14 226 19 274 -14 z "},"¿":{"ha":833,"x_min":0,"x_max":0,"o":"m 468 681 b 354 571 408 681 354 639 b 456 469 354 504 404 469 b 569 582 513 469 569 511 b 468 681 569 649 522 681 z m 435 293 b 394 185 433 261 407 204 b 168 -124 331 93 169 14 b 454 -319 168 -236 274 -319 b 744 -118 644 -319 744 -219 b 656 -29 744 -75 719 -29 b 569 -103 600 -29 585 -67 b 456 -232 540 -176 515 -232 b 372 -135 400 -232 372 -185 b 518 278 374 11 518 92 b 435 293 518 349 438 354 z "},"·":{"ha":340,"x_min":0,"x_max":0,"o":"m 165 250 b 279 360 225 250 279 292 b 178 461 279 426 229 461 b 64 349 121 461 64 419 b 165 250 64 283 111 250 z "},"•":{"ha":446,"x_min":0,"x_max":0,"o":"m 217 197 b 376 351 300 197 376 256 b 233 496 376 446 307 496 b 74 336 154 496 74 435 b 217 197 74 243 140 197 z "},"*":{"ha":692,"x_min":0,"x_max":0,"o":"m 149 429 b 257 443 182 401 228 408 b 317 594 290 482 289 536 b 372 596 331 621 358 622 b 433 443 399 539 400 482 b 542 429 463 408 508 401 b 550 540 576 458 576 506 b 419 619 518 579 468 588 b 435 674 393 639 400 671 b 588 675 492 676 543 658 b 638 774 629 692 653 733 b 536 818 622 815 578 832 b 417 724 492 803 464 758 b 372 756 390 703 363 722 b 421 899 388 808 421 850 b 346 978 421 942 389 978 b 271 899 303 978 271 942 b 318 756 271 850 303 811 b 274 724 328 722 300 703 b 154 818 229 757 199 803 b 53 774 113 832 68 815 b 103 675 38 733 61 692 b 256 674 147 658 197 676 b 271 619 290 671 299 639 b 142 540 225 589 171 578 b 149 429 114 506 114 458 z "},"#":{"ha":990,"x_min":0,"x_max":0,"o":"m 774 942 b 749 972 778 960 768 972 l 714 972 b 683 949 697 972 688 964 l 614 665 l 414 665 l 482 942 b 457 972 486 960 476 972 l 422 972 b 392 949 406 972 396 964 l 322 665 l 96 665 b 68 638 78 665 68 656 l 68 601 b 96 574 68 583 78 574 l 299 574 l 253 388 l 68 388 b 40 360 50 388 40 378 l 40 324 b 68 296 40 306 50 296 l 231 296 l 165 31 b 190 0 161 13 171 0 l 225 0 b 256 24 242 0 251 8 l 322 296 l 522 296 l 457 31 b 482 0 453 13 463 0 l 517 0 b 547 24 533 0 543 8 l 614 296 l 879 296 b 907 324 897 296 907 306 l 907 360 b 879 388 907 378 897 388 l 638 388 l 683 574 l 907 574 b 935 601 925 574 935 583 l 935 638 b 907 665 935 656 925 665 l 706 665 z m 392 574 l 590 574 l 544 388 l 346 388 z "},"/":{"ha":513,"x_min":0,"x_max":0,"o":"m 82 -139 b 133 -101 113 -139 125 -129 l 469 976 b 438 1028 482 1015 475 1028 l 425 1028 b 375 990 396 1028 383 1018 l 38 -87 b 75 -139 25 -126 35 -139 z "},"\\":{"ha":514,"x_min":0,"x_max":0,"o":"m 439 -139 b 472 -87 476 -139 485 -126 l 135 990 b 85 1028 126 1018 114 1028 l 72 1028 b 40 976 36 1028 28 1015 l 376 -101 b 426 -139 385 -129 397 -139 z "},"-":{"ha":472,"x_min":0,"x_max":0,"o":"m 360 358 b 404 392 386 358 397 367 l 410 414 b 378 450 417 442 403 450 l 111 450 b 68 417 86 450 75 442 l 61 393 b 94 358 54 367 68 358 z "},"­":{"ha":472,"x_min":0,"x_max":0,"o":"m 360 358 b 404 392 386 358 397 367 l 410 414 b 378 450 417 442 403 450 l 111 450 b 68 417 86 450 75 442 l 61 393 b 94 358 54 367 68 358 z "},"–":{"ha":682,"x_min":0,"x_max":0,"o":"m 568 358 b 613 392 594 358 606 367 l 618 414 b 586 450 625 442 611 450 l 111 450 b 68 417 86 450 75 442 l 61 393 b 94 358 54 367 68 358 z "},"—":{"ha":958,"x_min":0,"x_max":0,"o":"m 846 358 b 889 392 871 358 882 367 l 896 414 b 863 450 903 442 889 450 l 111 450 b 68 417 86 450 75 442 l 61 393 b 94 358 54 367 68 358 z "},"_":{"ha":551,"x_min":0,"x_max":0,"o":"m 514 -115 b 551 -78 542 -115 551 -106 b 514 -40 551 -50 542 -40 l 36 -40 b 0 -78 8 -40 0 -50 b 36 -115 0 -106 8 -115 z "},"(":{"ha":519,"x_min":0,"x_max":0,"o":"m 439 -167 b 499 -157 458 -175 483 -179 b 469 -93 511 -136 496 -114 b 254 460 326 28 254 208 b 468 1000 254 699 322 882 b 497 1064 493 1022 510 1043 b 425 1067 482 1088 454 1081 b 56 464 240 968 56 763 b 439 -167 56 135 251 -76 z "},")":{"ha":519,"x_min":0,"x_max":0,"o":"m 86 -167 b 468 464 272 -76 468 135 b 99 1067 468 763 283 968 b 26 1064 69 1081 42 1088 b 56 1000 14 1043 31 1022 b 269 460 201 882 269 699 b 54 -93 269 208 197 28 b 25 -157 28 -114 13 -136 b 86 -167 40 -179 65 -175 z "},"{":{"ha":453,"x_min":0,"x_max":0,"o":"m 371 -100 b 311 42 318 -83 311 -28 l 311 285 b 178 465 311 382 258 436 b 311 647 258 494 311 550 l 311 863 b 371 1006 311 931 324 988 b 411 1047 401 1017 411 1025 b 365 1082 411 1075 400 1083 b 119 838 185 1069 119 981 l 119 592 b 60 510 119 553 101 521 b 21 465 29 504 21 494 b 60 422 21 439 28 429 b 119 340 99 411 119 379 l 119 67 b 365 -178 119 -76 185 -168 b 411 -142 400 -179 411 -171 b 371 -100 411 -119 399 -110 z "},"}":{"ha":453,"x_min":0,"x_max":0,"o":"m 393 510 b 335 592 351 521 335 553 l 335 838 b 88 1082 335 981 268 1069 b 42 1047 54 1083 42 1075 b 82 1006 42 1025 53 1017 b 143 863 129 988 143 931 l 143 647 b 275 467 143 550 194 494 b 143 285 194 438 143 382 l 143 42 b 82 -100 143 -28 135 -83 b 42 -142 54 -110 42 -119 b 88 -178 42 -171 53 -179 b 335 67 268 -168 335 -76 l 335 340 b 394 422 335 379 354 411 b 433 465 425 429 433 439 b 393 510 433 494 424 504 z "},"[":{"ha":482,"x_min":0,"x_max":0,"o":"m 386 -178 b 431 -142 419 -178 431 -169 b 386 -106 431 -114 419 -106 l 326 -106 b 293 -71 306 -106 293 -92 l 293 975 b 326 1010 293 996 306 1010 l 386 1010 b 431 1046 419 1010 431 1018 b 386 1082 431 1074 419 1082 l 153 1082 b 107 1038 124 1082 107 1067 l 107 -133 b 153 -178 107 -162 124 -178 z "},"]":{"ha":482,"x_min":0,"x_max":0,"o":"m 329 -178 b 375 -133 358 -178 375 -162 l 375 1038 b 329 1082 375 1067 358 1082 l 97 1082 b 51 1046 63 1082 51 1074 b 97 1010 51 1018 63 1010 l 156 1010 b 189 975 176 1010 189 996 l 189 -71 b 156 -106 189 -92 176 -106 l 97 -106 b 51 -142 63 -106 51 -114 b 97 -178 51 -169 63 -178 z "},"‚":{"ha":354,"x_min":0,"x_max":0,"o":"m 119 -189 b 288 65 181 -189 288 -82 b 175 197 288 158 238 197 b 74 88 125 197 74 154 b 153 -57 74 4 153 -4 b 93 -168 153 -110 93 -144 b 119 -189 93 -181 104 -189 z "},"„":{"ha":619,"x_min":0,"x_max":0,"o":"m 119 -189 b 288 65 181 -189 288 -82 b 175 197 288 158 238 197 b 74 88 125 197 74 154 b 153 -57 74 4 153 -4 b 93 -168 153 -110 93 -144 b 119 -189 93 -181 104 -189 z m 406 -189 b 574 65 468 -189 574 -82 b 463 197 574 158 525 197 b 360 88 411 197 360 154 b 440 -57 360 4 440 -4 b 379 -168 440 -110 379 -144 b 406 -189 379 -181 390 -189 z "},"“":{"ha":597,"x_min":0,"x_max":0,"o":"m 213 1013 b 44 757 151 1013 44 906 b 157 625 44 664 94 625 b 258 735 208 625 258 668 b 179 881 258 818 179 826 b 240 990 179 932 240 967 b 213 1013 240 1003 229 1013 z m 499 1013 b 332 757 438 1013 332 906 b 443 625 332 664 381 625 b 546 735 494 625 546 668 b 465 881 546 818 465 826 b 526 990 465 932 526 967 b 499 1013 526 1003 515 1013 z "},"”":{"ha":597,"x_min":0,"x_max":0,"o":"m 97 588 b 265 843 160 588 265 694 b 154 974 265 936 217 974 b 51 865 103 974 51 932 b 132 719 51 782 132 774 b 71 610 132 668 71 633 b 97 588 71 597 82 588 z m 385 588 b 551 843 446 588 551 694 b 440 974 551 936 503 974 b 339 865 389 974 339 932 b 418 719 339 782 418 774 b 357 610 418 668 357 633 b 385 588 357 597 368 588 z "},"‘":{"ha":354,"x_min":0,"x_max":0,"o":"m 235 1013 b 67 758 174 1013 67 906 b 179 626 67 664 117 626 b 281 735 229 626 281 668 b 201 881 281 818 201 826 b 263 990 201 933 263 967 b 235 1013 263 1003 250 1013 z "},"’":{"ha":354,"x_min":0,"x_max":0,"o":"m 119 588 b 288 842 181 588 288 694 b 175 974 288 935 238 974 b 74 865 125 974 74 932 b 153 719 74 781 153 772 b 93 610 153 667 93 633 b 119 588 93 597 104 588 z "},"«":{"ha":656,"x_min":0,"x_max":0,"o":"m 300 90 b 322 114 314 90 322 96 b 189 344 324 156 246 265 b 322 576 246 424 324 535 b 300 599 322 593 314 599 b 140 468 274 599 190 519 b 56 344 82 408 56 385 b 140 222 56 306 82 281 b 300 90 190 171 274 90 z m 557 90 b 579 114 569 90 578 96 b 446 344 579 156 503 265 b 579 576 503 424 579 535 b 557 599 578 593 569 599 b 397 468 531 599 447 519 b 313 344 339 408 313 385 b 397 222 313 306 339 281 b 557 90 447 171 531 90 z "},"»":{"ha":646,"x_min":0,"x_max":0,"o":"m 92 90 b 251 222 118 90 203 171 b 336 344 310 281 336 306 b 251 468 336 385 310 408 b 92 599 203 519 118 599 b 71 576 79 599 71 593 b 203 344 69 535 147 424 b 71 114 147 265 69 156 b 92 90 71 96 79 90 z m 349 90 b 508 222 375 90 460 171 b 593 344 567 281 593 306 b 508 468 593 385 567 408 b 349 599 460 519 375 599 b 326 576 336 599 328 593 b 460 344 326 535 404 424 b 326 114 404 265 326 156 b 349 90 328 96 336 90 z "},"‹":{"ha":390,"x_min":0,"x_max":0,"o":"m 294 90 b 317 114 307 90 315 96 b 183 344 317 156 240 265 b 317 576 240 424 317 535 b 294 599 315 593 307 599 b 135 468 268 599 185 519 b 50 344 76 408 50 385 b 135 222 50 306 76 281 b 294 90 185 171 268 90 z "},"›":{"ha":390,"x_min":0,"x_max":0,"o":"m 96 90 b 256 222 122 90 207 171 b 340 344 314 281 340 306 b 256 468 340 385 314 408 b 96 599 207 519 122 599 b 74 576 83 599 75 593 b 207 344 74 535 151 424 b 74 114 151 265 74 156 b 96 90 75 96 83 90 z "}}}
